G04*
G04 #@! TF.GenerationSoftware,Altium Limited,Altium Designer,19.1.5 (86)*
G04*
G04 Layer_Physical_Order=1*
G04 Layer_Color=255*
%FSLAX25Y25*%
%MOIN*%
G70*
G01*
G75*
%ADD10C,0.00984*%
%ADD12C,0.01181*%
%ADD52R,0.05512X0.05118*%
%ADD53R,0.04528X0.05315*%
%ADD54R,0.03150X0.06693*%
%ADD55R,0.03150X0.03150*%
G04:AMPARAMS|DCode=56|XSize=35.43mil|YSize=57.09mil|CornerRadius=1.95mil|HoleSize=0mil|Usage=FLASHONLY|Rotation=180.000|XOffset=0mil|YOffset=0mil|HoleType=Round|Shape=RoundedRectangle|*
%AMROUNDEDRECTD56*
21,1,0.03543,0.05319,0,0,180.0*
21,1,0.03154,0.05709,0,0,180.0*
1,1,0.00390,-0.01577,0.02659*
1,1,0.00390,0.01577,0.02659*
1,1,0.00390,0.01577,-0.02659*
1,1,0.00390,-0.01577,-0.02659*
%
%ADD56ROUNDEDRECTD56*%
G04:AMPARAMS|DCode=57|XSize=124.02mil|YSize=57.09mil|CornerRadius=2mil|HoleSize=0mil|Usage=FLASHONLY|Rotation=180.000|XOffset=0mil|YOffset=0mil|HoleType=Round|Shape=RoundedRectangle|*
%AMROUNDEDRECTD57*
21,1,0.12402,0.05309,0,0,180.0*
21,1,0.12002,0.05709,0,0,180.0*
1,1,0.00400,-0.06001,0.02655*
1,1,0.00400,0.06001,0.02655*
1,1,0.00400,0.06001,-0.02655*
1,1,0.00400,-0.06001,-0.02655*
%
%ADD57ROUNDEDRECTD57*%
%ADD58R,0.04528X0.03937*%
%ADD59R,0.09843X0.09843*%
G04:AMPARAMS|DCode=60|XSize=33.86mil|YSize=10.24mil|CornerRadius=0.36mil|HoleSize=0mil|Usage=FLASHONLY|Rotation=90.000|XOffset=0mil|YOffset=0mil|HoleType=Round|Shape=RoundedRectangle|*
%AMROUNDEDRECTD60*
21,1,0.03386,0.00952,0,0,90.0*
21,1,0.03314,0.01024,0,0,90.0*
1,1,0.00072,0.00476,0.01657*
1,1,0.00072,0.00476,-0.01657*
1,1,0.00072,-0.00476,-0.01657*
1,1,0.00072,-0.00476,0.01657*
%
%ADD60ROUNDEDRECTD60*%
G04:AMPARAMS|DCode=61|XSize=33.86mil|YSize=10.24mil|CornerRadius=0.36mil|HoleSize=0mil|Usage=FLASHONLY|Rotation=180.000|XOffset=0mil|YOffset=0mil|HoleType=Round|Shape=RoundedRectangle|*
%AMROUNDEDRECTD61*
21,1,0.03386,0.00952,0,0,180.0*
21,1,0.03314,0.01024,0,0,180.0*
1,1,0.00072,-0.01657,0.00476*
1,1,0.00072,0.01657,0.00476*
1,1,0.00072,0.01657,-0.00476*
1,1,0.00072,-0.01657,-0.00476*
%
%ADD61ROUNDEDRECTD61*%
%ADD62R,0.05315X0.04528*%
%ADD63R,0.05118X0.05512*%
%ADD64R,0.22047X0.08268*%
%ADD65R,0.02559X0.03347*%
%ADD66R,0.02362X0.01575*%
%ADD67R,0.05906X0.09449*%
%ADD68R,0.07874X0.03543*%
%ADD69R,0.03543X0.07874*%
%ADD70R,0.13110X0.13110*%
%ADD71R,0.01575X0.05315*%
%ADD72R,0.07087X0.07480*%
%ADD73C,0.01575*%
%ADD74C,0.02362*%
%ADD75C,0.01000*%
%ADD76C,0.01156*%
%ADD77C,0.01200*%
%ADD78C,0.01772*%
%ADD79C,0.01083*%
%ADD80C,0.01378*%
%ADD81C,0.01102*%
%ADD82R,0.06201X0.07480*%
%ADD83R,0.06201X0.07480*%
%ADD84C,0.02953*%
%ADD85C,0.05906*%
%ADD86R,0.05906X0.05906*%
%ADD87C,0.12795*%
%ADD88C,0.09626*%
%ADD89C,0.06024*%
%ADD90C,0.05504*%
%ADD91R,0.05504X0.05504*%
%ADD92C,0.17323*%
%ADD93O,0.04134X0.04921*%
%ADD94O,0.04724X0.07480*%
%ADD95C,0.02556*%
G36*
X23949Y223900D02*
X84422D01*
X84629Y223400D01*
X70457Y209228D01*
X67197D01*
Y209961D01*
X67197D01*
Y210039D01*
X67197D01*
Y211801D01*
X67258Y211892D01*
X67403Y212622D01*
X67276Y213260D01*
X67505Y213693D01*
X67554Y213760D01*
X68476D01*
Y214219D01*
X68892Y214497D01*
X69231Y214357D01*
X69585Y214310D01*
Y217520D01*
Y220729D01*
X69231Y220683D01*
X68892Y220542D01*
X68476Y220820D01*
Y221240D01*
X63065D01*
Y217500D01*
X62571D01*
Y217006D01*
X56665D01*
Y214344D01*
X47410D01*
X47100Y214405D01*
X46716Y214329D01*
X40347D01*
Y215398D01*
X33654D01*
Y213269D01*
X30799D01*
X30070Y213124D01*
X29451Y212710D01*
X26686Y209946D01*
X26224Y210137D01*
Y211655D01*
X16776D01*
Y207737D01*
X16144Y207612D01*
X15526Y207199D01*
X11447Y203120D01*
X11344Y202966D01*
X10844Y203118D01*
Y210795D01*
X10838Y210823D01*
X10925Y211925D01*
X17992Y218992D01*
X18465Y218831D01*
X18491Y218641D01*
X18818Y217851D01*
X19335Y217177D01*
X19311Y216986D01*
X19206Y216677D01*
X16776D01*
Y212644D01*
X26224D01*
Y216677D01*
X24101D01*
X23996Y216986D01*
X23972Y217177D01*
X24489Y217851D01*
X24816Y218641D01*
X24863Y218994D01*
X21654D01*
Y219982D01*
X24863D01*
X24816Y220336D01*
X24489Y221125D01*
X23969Y221804D01*
X23291Y222324D01*
X22501Y222651D01*
X22310Y222676D01*
X22150Y223150D01*
X22819Y223819D01*
X23921Y223905D01*
X23949Y223900D01*
D02*
G37*
G36*
X57945Y210039D02*
Y209961D01*
X57945D01*
Y209165D01*
X55059D01*
X55059Y209165D01*
X54445Y209043D01*
X53924Y208694D01*
X52390Y207161D01*
X40347D01*
Y208508D01*
X33654D01*
Y202602D01*
X35394D01*
Y197898D01*
X33555D01*
Y192878D01*
X32276D01*
Y190855D01*
X31776Y190609D01*
X31362Y190926D01*
X30572Y191253D01*
X30218Y191300D01*
Y188091D01*
Y184881D01*
X30572Y184928D01*
X31362Y185255D01*
X31776Y185572D01*
X32276Y185326D01*
Y183823D01*
X36506D01*
Y188350D01*
X37000D01*
Y188845D01*
X41724D01*
Y192878D01*
X42218Y192894D01*
X42863D01*
X43233Y192647D01*
X44000Y192494D01*
X44767Y192647D01*
X45418Y193082D01*
X45853Y193733D01*
X46005Y194500D01*
X45853Y195267D01*
X45418Y195918D01*
X44767Y196353D01*
X44000Y196505D01*
X43233Y196353D01*
X42863Y196106D01*
X40445D01*
Y197898D01*
X38606D01*
Y202602D01*
X40347D01*
Y203949D01*
X53055D01*
X53055Y203949D01*
X53670Y204072D01*
X54190Y204420D01*
X55724Y205953D01*
X57591D01*
X57945Y205600D01*
X57945Y205039D01*
X57945Y204539D01*
Y200461D01*
X57945Y200039D01*
X57945Y199539D01*
Y195461D01*
X57945Y195039D01*
X57945Y194539D01*
Y190461D01*
X57945Y190039D01*
X57945Y189539D01*
Y185461D01*
X57945Y185039D01*
X57945Y184539D01*
Y184005D01*
X56110D01*
X55590Y184353D01*
X54823Y184505D01*
X54055Y184353D01*
X53405Y183918D01*
X52970Y183267D01*
X52817Y182500D01*
X52970Y181732D01*
X53405Y181082D01*
X54055Y180647D01*
X54823Y180494D01*
X55590Y180647D01*
X56110Y180995D01*
X57591D01*
X57945Y180641D01*
X57945Y180039D01*
X57945Y179539D01*
Y178955D01*
X54813D01*
X54368Y179253D01*
X53600Y179405D01*
X52833Y179253D01*
X52182Y178818D01*
X51747Y178167D01*
X51595Y177400D01*
X51747Y176632D01*
X52182Y175982D01*
X52833Y175547D01*
X53600Y175394D01*
X54368Y175547D01*
X54962Y175945D01*
X57591D01*
X57945Y175591D01*
X57945Y175039D01*
X57945Y174418D01*
X57591Y174064D01*
X52565D01*
X51564Y175064D01*
X51076Y175391D01*
X50500Y175505D01*
X33850D01*
Y177446D01*
X27945D01*
Y170754D01*
X33850D01*
Y172495D01*
X49876D01*
X50876Y171495D01*
X51365Y171168D01*
X51941Y171054D01*
X51941Y171054D01*
X57591D01*
X57945Y170700D01*
X57945Y170039D01*
X57945Y169418D01*
X57591Y169064D01*
X45559D01*
X44983Y168950D01*
X44495Y168623D01*
X41976Y166105D01*
X33750D01*
Y167947D01*
X27845D01*
Y161253D01*
X33750D01*
Y163095D01*
X42600D01*
X43176Y163209D01*
X43664Y163536D01*
X46183Y166054D01*
X57591D01*
X57945Y165700D01*
X57945Y165039D01*
X57945Y164418D01*
X57591Y164064D01*
X48653D01*
X48653Y164064D01*
X48077Y163950D01*
X47588Y163623D01*
X40982Y157017D01*
X33750D01*
Y158846D01*
X27845D01*
Y157399D01*
X27361Y157303D01*
X26861Y157567D01*
Y158846D01*
X20955D01*
Y155912D01*
X20842D01*
X20378Y155820D01*
X19985Y155557D01*
X19391Y154963D01*
X18929Y155155D01*
Y160915D01*
X20493Y162479D01*
X20955Y162288D01*
Y161253D01*
X26861D01*
Y167947D01*
X20955D01*
Y165812D01*
X20899D01*
X20435Y165720D01*
X20042Y165457D01*
X17422Y162837D01*
X16960Y163029D01*
Y168789D01*
X20593Y172422D01*
X21055Y172231D01*
Y170754D01*
X26961D01*
Y177446D01*
X21055D01*
Y175312D01*
X20557D01*
X20093Y175220D01*
X19700Y174957D01*
X15202Y170460D01*
X14702Y170667D01*
Y200982D01*
X17555Y203835D01*
X18055Y203681D01*
Y202602D01*
X19593D01*
Y197748D01*
X18055D01*
Y192728D01*
X16776D01*
Y188695D01*
X21500D01*
Y188201D01*
X21994D01*
Y183673D01*
X26224D01*
Y186750D01*
X26724Y186850D01*
X26889Y186453D01*
X27409Y185775D01*
X28087Y185255D01*
X28877Y184928D01*
X29230Y184881D01*
Y188091D01*
Y191300D01*
X28877Y191253D01*
X28087Y190926D01*
X27409Y190406D01*
X26889Y189728D01*
X26724Y189331D01*
X26224Y189431D01*
Y192728D01*
X24945D01*
Y197748D01*
X23407D01*
Y202602D01*
X24945D01*
Y205322D01*
X26665D01*
X27395Y205467D01*
X28014Y205880D01*
X31589Y209455D01*
X35917D01*
X36101Y209492D01*
X40347D01*
Y210516D01*
X46491D01*
X47100Y210395D01*
X47783Y210530D01*
X57923D01*
X57945Y210039D01*
D02*
G37*
G36*
X150710Y208995D02*
X150697Y208945D01*
X150233Y208853D01*
X149582Y208418D01*
X149147Y207768D01*
X148995Y207000D01*
X149147Y206233D01*
X149582Y205582D01*
X150233Y205147D01*
X151000Y204995D01*
X151768Y205147D01*
X152418Y205582D01*
X152853Y206233D01*
X152973Y206839D01*
X183323D01*
X183530Y206340D01*
X179677Y202487D01*
X179116Y202720D01*
X178150Y202847D01*
X177183Y202720D01*
X176283Y202347D01*
X175510Y201754D01*
X174917Y200980D01*
X174544Y200080D01*
X174417Y199114D01*
X174544Y198148D01*
X174857Y197391D01*
X173653Y196186D01*
X162134D01*
X161984Y196494D01*
X161968Y196619D01*
X162330Y196968D01*
X162700Y196895D01*
X163468Y197047D01*
X164118Y197482D01*
X164553Y198133D01*
X164706Y198900D01*
X164553Y199668D01*
X164118Y200318D01*
X163468Y200753D01*
X162700Y200905D01*
X161933Y200753D01*
X161282Y200318D01*
X160847Y199668D01*
X160747Y199164D01*
X160451Y198868D01*
X134479D01*
X134126Y199221D01*
X134126Y199961D01*
X134126Y200461D01*
Y201258D01*
X153042D01*
X153117Y201145D01*
X153768Y200710D01*
X154535Y200557D01*
X155303Y200710D01*
X155954Y201145D01*
X156388Y201796D01*
X156541Y202563D01*
X156388Y203330D01*
X155954Y203981D01*
X155303Y204416D01*
X154535Y204569D01*
X153768Y204416D01*
X153117Y203981D01*
X153042Y203868D01*
X134479D01*
X134126Y204221D01*
X134126Y204961D01*
X134126Y205461D01*
Y206255D01*
X140559D01*
X141058Y206354D01*
X141482Y206637D01*
X144340Y209495D01*
X150325D01*
X150710Y208995D01*
D02*
G37*
G36*
X349195Y199460D02*
Y183398D01*
X347755D01*
X347477Y183813D01*
X347553Y183995D01*
X347599Y184348D01*
X344390D01*
Y184843D01*
X343896D01*
Y188052D01*
X343542Y188005D01*
X342882Y187732D01*
X342382Y187961D01*
Y189913D01*
X328266D01*
X328059Y190413D01*
X330700Y193055D01*
X333122D01*
Y191776D01*
X337156D01*
Y196500D01*
Y201224D01*
X333122D01*
Y199945D01*
X328102D01*
Y195850D01*
X323150Y190898D01*
X319153D01*
Y189818D01*
X314985D01*
X314918Y189918D01*
X314267Y190353D01*
X313654Y190475D01*
X303657Y200472D01*
X303168Y200799D01*
X302592Y200913D01*
X245686D01*
X245471Y201057D01*
X244704Y201209D01*
X243936Y201057D01*
X243286Y200622D01*
X242851Y199971D01*
X242699Y199204D01*
X242851Y198436D01*
X243286Y197786D01*
X243936Y197351D01*
X244704Y197198D01*
X245471Y197351D01*
X246122Y197786D01*
X246200Y197903D01*
X264016D01*
X264293Y197487D01*
X264258Y197403D01*
X264212Y197049D01*
X270631D01*
X270584Y197403D01*
X270549Y197487D01*
X270827Y197903D01*
X301969D01*
X311525Y188346D01*
X311647Y187733D01*
X312082Y187082D01*
X312733Y186647D01*
X313500Y186495D01*
X314267Y186647D01*
X314507Y186807D01*
X319153D01*
Y184992D01*
X323831D01*
X323976Y184963D01*
X323976Y184963D01*
X326502D01*
X327618Y183848D01*
Y183024D01*
X328949D01*
X329095Y182995D01*
X329488D01*
X329634Y183024D01*
X331358D01*
Y182039D01*
X327618D01*
Y181868D01*
X325847D01*
Y184008D01*
X319153D01*
Y182305D01*
X317994D01*
X317918Y182418D01*
X317267Y182853D01*
X316500Y183005D01*
X315733Y182853D01*
X315082Y182418D01*
X314647Y181767D01*
X314551Y181285D01*
X314009Y181120D01*
X306620Y188509D01*
X306131Y188836D01*
X305555Y188950D01*
X290846D01*
Y190398D01*
X288814D01*
Y192000D01*
X288714Y192503D01*
X288429Y192929D01*
X286429Y194929D01*
X286003Y195214D01*
X285500Y195314D01*
X275987D01*
X275918Y195418D01*
X275268Y195853D01*
X274500Y196005D01*
X273732Y195853D01*
X273082Y195418D01*
X272647Y194767D01*
X272495Y194000D01*
X272647Y193233D01*
X273082Y192582D01*
X273186Y192513D01*
Y190398D01*
X271224D01*
Y191677D01*
X266994D01*
Y187150D01*
X266006D01*
Y191677D01*
X261776D01*
Y190514D01*
X261347Y190342D01*
Y190342D01*
X254654D01*
Y189665D01*
X199108D01*
X198425Y189801D01*
X197658Y189648D01*
X197007Y189213D01*
X196832Y188951D01*
X195288Y187407D01*
X184923D01*
X184656Y187907D01*
X184924Y188307D01*
X185076Y189075D01*
X184924Y189842D01*
X184550Y190402D01*
X184709Y190902D01*
X244352D01*
X244732Y190647D01*
X245500Y190495D01*
X246268Y190647D01*
X246918Y191082D01*
X247353Y191733D01*
X247505Y192500D01*
X247353Y193268D01*
X246918Y193918D01*
X246268Y194353D01*
X245500Y194506D01*
X244732Y194353D01*
X244082Y193918D01*
X243810Y193511D01*
X208398D01*
X208366Y194011D01*
X209561Y194168D01*
X210773Y194670D01*
X211813Y195468D01*
X212612Y196509D01*
X213113Y197720D01*
X213220Y198526D01*
X203303D01*
X203409Y197720D01*
X203911Y196509D01*
X204709Y195468D01*
X205750Y194670D01*
X206961Y194168D01*
X208157Y194011D01*
X208124Y193511D01*
X175344D01*
X175198Y193798D01*
X175167Y194011D01*
X176817Y195661D01*
X177183Y195509D01*
X178150Y195381D01*
X179116Y195509D01*
X180016Y195881D01*
X180789Y196475D01*
X181382Y197248D01*
X181755Y198148D01*
X181882Y199114D01*
X181755Y200080D01*
X181523Y200642D01*
X185376Y204495D01*
X190920D01*
X191127Y203995D01*
X189520Y202389D01*
X188958Y202621D01*
X187992Y202748D01*
X187026Y202621D01*
X186126Y202248D01*
X185353Y201655D01*
X184759Y200882D01*
X184387Y199982D01*
X184259Y199016D01*
X184387Y198050D01*
X184759Y197149D01*
X185353Y196376D01*
X186126Y195783D01*
X187026Y195410D01*
X187992Y195283D01*
X188958Y195410D01*
X189858Y195783D01*
X190632Y196376D01*
X191225Y197149D01*
X191598Y198050D01*
X191725Y199016D01*
X191598Y199982D01*
X191365Y200544D01*
X193021Y202199D01*
X195339D01*
X195449Y201699D01*
X194897Y200980D01*
X194524Y200080D01*
X194397Y199114D01*
X194524Y198148D01*
X194897Y197248D01*
X195491Y196475D01*
X196264Y195881D01*
X197164Y195509D01*
X198130Y195381D01*
X199096Y195509D01*
X199996Y195881D01*
X200769Y196475D01*
X201363Y197248D01*
X201735Y198148D01*
X201863Y199114D01*
X201735Y200080D01*
X201363Y200980D01*
X200811Y201699D01*
X200921Y202199D01*
X203858D01*
X204079Y201751D01*
X203911Y201532D01*
X203409Y200321D01*
X203303Y199515D01*
X213220D01*
X213113Y200321D01*
X212612Y201532D01*
X212444Y201751D01*
X212665Y202199D01*
X216803D01*
X216972Y201699D01*
X216878Y201626D01*
X216357Y200948D01*
X216030Y200159D01*
X215984Y199805D01*
X222402D01*
X222356Y200159D01*
X222029Y200948D01*
X221508Y201626D01*
X221413Y201699D01*
X221583Y202199D01*
X310084D01*
X311547Y200736D01*
X311647Y200233D01*
X312082Y199582D01*
X312733Y199147D01*
X313500Y198995D01*
X314267Y199147D01*
X314918Y199582D01*
X315353Y200233D01*
X315506Y201000D01*
X315353Y201767D01*
X314918Y202418D01*
X314267Y202853D01*
X313500Y203006D01*
X313056Y202917D01*
X311978Y203995D01*
X312185Y204495D01*
X344160D01*
X349195Y199460D01*
D02*
G37*
G36*
X145897Y195817D02*
X145785Y195649D01*
X145632Y194882D01*
X145785Y194114D01*
X145894Y193952D01*
X145658Y193511D01*
X134126D01*
Y194961D01*
X134126D01*
Y195039D01*
X134126D01*
Y196258D01*
X145662D01*
X145897Y195817D01*
D02*
G37*
G36*
X141843Y190402D02*
X141553Y189968D01*
X141400Y189200D01*
X141553Y188433D01*
X141904Y187907D01*
X141718Y187407D01*
X138396D01*
X137900Y187505D01*
X137133Y187353D01*
X136482Y186918D01*
X136047Y186267D01*
X135895Y185500D01*
X136047Y184732D01*
X136252Y184427D01*
X135984Y183927D01*
X134479D01*
X134126Y184280D01*
X134126Y184961D01*
X134126Y185461D01*
Y189539D01*
X134126Y189961D01*
X134126Y190548D01*
X134479Y190902D01*
X141580D01*
X141843Y190402D01*
D02*
G37*
G36*
X161495Y181102D02*
X161647Y180335D01*
X162082Y179684D01*
X162650Y179305D01*
X162614Y178931D01*
X162567Y178805D01*
X134126D01*
Y179961D01*
X134126D01*
Y180039D01*
X134126D01*
Y181317D01*
X161028D01*
X161495Y181102D01*
D02*
G37*
G36*
X368003Y223797D02*
X379000Y212800D01*
X379009D01*
X379121Y211382D01*
X379117Y211360D01*
Y14142D01*
X379122Y14115D01*
X378977Y12277D01*
X367939Y1239D01*
X366102Y1095D01*
X366074Y1100D01*
X110164D01*
X110132Y1600D01*
X110507Y1649D01*
X111249Y1957D01*
X111886Y2446D01*
X112375Y3083D01*
X112683Y3825D01*
X112788Y4622D01*
Y6484D01*
X113288Y6583D01*
X113472Y6138D01*
X113993Y5460D01*
X114671Y4940D01*
X115460Y4613D01*
X115814Y4566D01*
Y7776D01*
Y10985D01*
X115460Y10938D01*
X114671Y10611D01*
X113993Y10091D01*
X113472Y9413D01*
X113145Y8623D01*
X113119Y8428D01*
X112606Y8360D01*
X112375Y8917D01*
X111886Y9554D01*
X111249Y10043D01*
X110507Y10351D01*
X109710Y10456D01*
X109613Y10443D01*
X103509D01*
X103241Y10389D01*
X103013Y10237D01*
X102860Y10009D01*
X102807Y9740D01*
Y2260D01*
X102860Y1991D01*
X103013Y1763D01*
X103241Y1611D01*
X103295Y1600D01*
X103246Y1100D01*
X102103D01*
X102033Y1571D01*
X102033Y1600D01*
Y10429D01*
X93568D01*
Y1600D01*
X93568Y1571D01*
X93526Y1287D01*
X93020D01*
X92978Y1571D01*
X92978Y1600D01*
Y10429D01*
X84513D01*
Y1600D01*
X84513Y1571D01*
X84443Y1100D01*
X83301D01*
X83252Y1600D01*
X83306Y1611D01*
X83534Y1763D01*
X83686Y1991D01*
X83740Y2260D01*
Y9740D01*
X83686Y10009D01*
X83534Y10237D01*
X83306Y10389D01*
X83037Y10443D01*
X76934D01*
X76836Y10456D01*
X76040Y10351D01*
X75297Y10043D01*
X74660Y9554D01*
X74171Y8917D01*
X73864Y8174D01*
X73759Y7378D01*
Y4622D01*
X73864Y3825D01*
X74171Y3083D01*
X74660Y2446D01*
X75297Y1957D01*
X76040Y1649D01*
X76415Y1600D01*
X76382Y1100D01*
X23516D01*
X23493Y1095D01*
X21533Y1250D01*
X21161Y1339D01*
X11083Y11417D01*
X10994Y11789D01*
X10840Y13749D01*
X10844Y13772D01*
Y99858D01*
X11344Y100009D01*
X11377Y99960D01*
X12028Y99525D01*
X12795Y99373D01*
X13563Y99525D01*
X14036Y99841D01*
X14536Y99611D01*
Y85052D01*
X14628Y84588D01*
X14891Y84195D01*
X27443Y71643D01*
X27836Y71380D01*
X28300Y71288D01*
X132804D01*
X132995Y70788D01*
X132647Y70267D01*
X132494Y69500D01*
X132647Y68733D01*
X133082Y68082D01*
X133195Y68006D01*
Y64398D01*
X131154D01*
Y58492D01*
X137847D01*
Y64398D01*
X135805D01*
Y68006D01*
X135918Y68082D01*
X136353Y68733D01*
X136505Y69500D01*
X136353Y70267D01*
X136005Y70788D01*
X136196Y71288D01*
X144300D01*
X144764Y71380D01*
X145157Y71643D01*
X148402Y74888D01*
X246213D01*
Y73847D01*
X240602D01*
Y67154D01*
X241648D01*
Y60847D01*
X240602D01*
Y59407D01*
X228397D01*
X227667Y59262D01*
X227049Y58848D01*
X220426Y52226D01*
X219558Y52586D01*
X218122Y52775D01*
X216686Y52586D01*
X215347Y52031D01*
X214198Y51149D01*
X213717Y50522D01*
X212502D01*
X203491Y59533D01*
X203581Y60217D01*
X203463Y61116D01*
X203116Y61953D01*
X202566Y62670D01*
Y64976D01*
X204426Y66837D01*
X205110Y66747D01*
X206009Y66865D01*
X206846Y67212D01*
X207564Y67763D01*
X208116Y68482D01*
X208463Y69319D01*
X208581Y70217D01*
X208463Y71116D01*
X208116Y71953D01*
X207564Y72671D01*
X206846Y73223D01*
X206009Y73570D01*
X205110Y73688D01*
X204212Y73570D01*
X203375Y73223D01*
X202656Y72671D01*
X202105Y71953D01*
X201758Y71116D01*
X201640Y70217D01*
X201730Y69533D01*
X199311Y67114D01*
X198897Y66496D01*
X198752Y65766D01*
Y63379D01*
X198375Y63223D01*
X197656Y62671D01*
X197105Y61953D01*
X196758Y61116D01*
X196640Y60217D01*
X196730Y59533D01*
X186328Y49132D01*
X162303D01*
X161944Y50000D01*
X161062Y51149D01*
X159913Y52031D01*
X158574Y52586D01*
X157138Y52775D01*
X155701Y52586D01*
X154363Y52031D01*
X153214Y51149D01*
X152332Y50000D01*
X151777Y48662D01*
X151588Y47225D01*
X151777Y45789D01*
X152332Y44451D01*
X153214Y43301D01*
X154363Y42419D01*
X155701Y41865D01*
X157138Y41676D01*
X158574Y41865D01*
X159913Y42419D01*
X161062Y43301D01*
X161944Y44451D01*
X162303Y45318D01*
X187118D01*
X187848Y45464D01*
X188466Y45877D01*
X199426Y56837D01*
X200110Y56747D01*
X200794Y56837D01*
X210364Y47267D01*
X210983Y46854D01*
X211713Y46708D01*
X212641D01*
X212762Y45789D01*
X213316Y44451D01*
X214198Y43301D01*
X215347Y42419D01*
X216686Y41865D01*
X218122Y41676D01*
X219558Y41865D01*
X220897Y42419D01*
X222046Y43301D01*
X222928Y44451D01*
X223482Y45789D01*
X223672Y47225D01*
X223482Y48662D01*
X223123Y49529D01*
X229187Y55593D01*
X240602D01*
Y54154D01*
X246213D01*
Y52874D01*
X249951D01*
Y57500D01*
Y62126D01*
X246213D01*
Y60847D01*
X245462D01*
Y67154D01*
X246213D01*
Y65874D01*
X249951D01*
Y70500D01*
X250445D01*
Y70994D01*
X254677D01*
Y74888D01*
X270898D01*
X272643Y73143D01*
X273036Y72880D01*
X273500Y72788D01*
X306944D01*
X307082Y72582D01*
X307733Y72147D01*
X308500Y71995D01*
X309267Y72147D01*
X309918Y72582D01*
X310353Y73233D01*
X310506Y74000D01*
X310353Y74768D01*
X309918Y75418D01*
X309267Y75853D01*
X308500Y76006D01*
X307733Y75853D01*
X307082Y75418D01*
X306944Y75212D01*
X274002D01*
X272257Y76957D01*
X272062Y77088D01*
X272214Y77588D01*
X302379D01*
X302843Y77680D01*
X303236Y77943D01*
X303906Y78613D01*
X304500Y78495D01*
X305268Y78647D01*
X305918Y79082D01*
X306353Y79733D01*
X306505Y80500D01*
X306353Y81267D01*
X305918Y81918D01*
X305268Y82353D01*
X304500Y82506D01*
X304271Y82460D01*
X304025Y82921D01*
X305492Y84388D01*
X310144D01*
X310282Y84182D01*
X310932Y83747D01*
X311700Y83595D01*
X312468Y83747D01*
X312756Y83940D01*
X312976Y83823D01*
Y83823D01*
X317206D01*
Y87856D01*
X312976D01*
Y87644D01*
X312535Y87408D01*
X312468Y87453D01*
X311700Y87606D01*
X310932Y87453D01*
X310282Y87018D01*
X310144Y86812D01*
X304990D01*
X304526Y86720D01*
X304133Y86457D01*
X299688Y82012D01*
X159596D01*
X159224Y82323D01*
X159224Y82512D01*
Y86356D01*
X154500D01*
Y87344D01*
X159224D01*
Y91378D01*
X157945D01*
Y96398D01*
X156407D01*
Y104210D01*
X157790Y105593D01*
X180154D01*
Y104437D01*
X186846D01*
Y106038D01*
X193154D01*
Y104992D01*
X199846D01*
Y110898D01*
X193154D01*
Y109852D01*
X186846D01*
Y110343D01*
X185407D01*
Y112004D01*
X185505Y112500D01*
X185353Y113268D01*
X184918Y113918D01*
X184267Y114353D01*
X183500Y114506D01*
X182732Y114353D01*
X182082Y113918D01*
X181647Y113268D01*
X181494Y112500D01*
X181593Y112004D01*
Y110343D01*
X180154D01*
Y109407D01*
X157000D01*
X156270Y109262D01*
X155652Y108848D01*
X153152Y106348D01*
X152738Y105730D01*
X152593Y105000D01*
Y96398D01*
X151055D01*
Y94556D01*
X123445D01*
Y95398D01*
X116555D01*
Y93556D01*
X113445D01*
Y94398D01*
X106555D01*
Y92981D01*
X101579D01*
Y93657D01*
X95673D01*
Y88342D01*
X101579D01*
Y89168D01*
X105276D01*
Y88211D01*
X104860Y87933D01*
X104686Y88005D01*
X104333Y88052D01*
Y84842D01*
Y81633D01*
X104686Y81680D01*
X104860Y81752D01*
X105276Y81474D01*
Y80323D01*
X109506D01*
Y84850D01*
X110000D01*
Y85344D01*
X114724D01*
Y88920D01*
X115224Y89264D01*
X115276Y89244D01*
Y86344D01*
X120000D01*
Y85850D01*
X120494D01*
Y81323D01*
X124724D01*
Y82297D01*
X125195Y82687D01*
Y85925D01*
Y89163D01*
X124724Y89554D01*
Y90378D01*
X125050Y90743D01*
X149776D01*
Y88584D01*
X149276Y88367D01*
X148762Y88761D01*
X147973Y89088D01*
X147619Y89135D01*
Y85925D01*
Y82716D01*
X147973Y82762D01*
X148762Y83089D01*
X149276Y83483D01*
X149776Y83266D01*
X149776Y82323D01*
X149404Y82012D01*
X134900D01*
X134436Y81920D01*
X134043Y81657D01*
X132098Y79712D01*
X96677D01*
X96553Y79856D01*
X96359Y80212D01*
X96407Y80452D01*
Y85761D01*
X96338Y86108D01*
X96142Y86402D01*
X95848Y86598D01*
X95501Y86667D01*
X91281D01*
Y88342D01*
X92327D01*
Y93657D01*
X86421D01*
Y92844D01*
X55310D01*
X55000Y92905D01*
X54233Y92753D01*
X53582Y92318D01*
X53147Y91667D01*
X52995Y90900D01*
X53147Y90132D01*
X53582Y89482D01*
X54233Y89047D01*
X55000Y88894D01*
X55683Y89030D01*
X86421D01*
Y88342D01*
X87467D01*
Y86667D01*
X83499D01*
X83152Y86598D01*
X82858Y86402D01*
X82662Y86108D01*
X82593Y85761D01*
Y80452D01*
X82640Y80212D01*
X82447Y79856D01*
X82323Y79712D01*
X34207D01*
X20897Y93022D01*
Y151678D01*
X20955Y152154D01*
X26861D01*
Y153826D01*
X27361Y154091D01*
X27845Y153995D01*
Y152154D01*
X33750D01*
Y154007D01*
X41605D01*
X42182Y154121D01*
X42670Y154447D01*
X49276Y161054D01*
X57591D01*
X57945Y160700D01*
X57945Y160039D01*
X57945Y159539D01*
Y155461D01*
X57945Y155039D01*
X57945Y154539D01*
Y150039D01*
X67197D01*
Y151095D01*
X68900D01*
X69295Y151174D01*
X69795Y150885D01*
Y149057D01*
X73535D01*
Y148069D01*
X69795D01*
Y142657D01*
X70748D01*
X70920Y142157D01*
X70491Y141598D01*
X70164Y140808D01*
X70117Y140455D01*
X73327D01*
Y139961D01*
X73821D01*
Y136751D01*
X74174Y136798D01*
X74964Y137125D01*
X75642Y137645D01*
X76162Y138323D01*
X76329Y138725D01*
X76810Y138579D01*
X76695Y138000D01*
X76847Y137232D01*
X77282Y136582D01*
X77933Y136147D01*
X78700Y135995D01*
X79467Y136147D01*
X80118Y136582D01*
X80553Y137232D01*
X80705Y138000D01*
X80553Y138768D01*
X80118Y139418D01*
X80023Y139482D01*
Y143583D01*
X80376Y143937D01*
X80996Y143937D01*
X81496Y143937D01*
X85575D01*
X85996Y143937D01*
X86496Y143937D01*
X90575D01*
X90996Y143937D01*
X91496Y143937D01*
X95575D01*
X95996Y143937D01*
X96496Y143937D01*
X100575D01*
X100996Y143937D01*
X101496Y143937D01*
X105575D01*
X105996Y143937D01*
X106496Y143937D01*
X110575D01*
X110996Y143937D01*
X111496Y143937D01*
X112263D01*
Y138640D01*
X111947Y138168D01*
X111794Y137400D01*
X111947Y136633D01*
X112382Y135982D01*
X113032Y135547D01*
X113800Y135395D01*
X114567Y135547D01*
X115218Y135982D01*
X115653Y136633D01*
X115805Y137400D01*
X115653Y138168D01*
X115218Y138818D01*
X115073Y138915D01*
Y143583D01*
X115426Y143937D01*
X115996Y143937D01*
X116496Y143937D01*
X120996D01*
Y153189D01*
X116496D01*
X116075Y153189D01*
X115575Y153189D01*
X111496D01*
X111075Y153189D01*
X110575Y153189D01*
X106496D01*
X106075Y153189D01*
X105575Y153189D01*
X101496D01*
X101075Y153189D01*
X100575Y153189D01*
X96496D01*
X96075Y153189D01*
X95575Y153189D01*
X91496D01*
X91075Y153189D01*
X90575Y153189D01*
X86496D01*
X86075Y153189D01*
X85575Y153189D01*
X81496D01*
X81075Y153189D01*
X80575Y153189D01*
X77276D01*
Y154469D01*
X73774D01*
X73523Y154969D01*
X73689Y155212D01*
X74367Y155347D01*
X75018Y155782D01*
X75453Y156432D01*
X75605Y157200D01*
X75453Y157967D01*
X75018Y158618D01*
X74367Y159053D01*
X73600Y159205D01*
X72833Y159053D01*
X72182Y158618D01*
X71747Y157967D01*
X71595Y157200D01*
X71598Y157185D01*
X68318Y153905D01*
X67550D01*
X67197Y154259D01*
X67197Y154961D01*
X67197Y155461D01*
Y159539D01*
X67197Y159961D01*
X67197Y160461D01*
Y164539D01*
X67197Y164961D01*
X67197Y165461D01*
Y169539D01*
X67197Y169961D01*
X67197Y170461D01*
Y174539D01*
X67197Y174961D01*
X67197Y175461D01*
Y179539D01*
X67197Y179961D01*
X67197Y180461D01*
Y184539D01*
X67197Y184961D01*
X67197Y185461D01*
Y189539D01*
X67197Y189961D01*
X67197Y190461D01*
Y194539D01*
X67197Y194961D01*
X67197Y195461D01*
Y199539D01*
X67197Y199961D01*
X67197Y200461D01*
Y204539D01*
X67197Y204961D01*
X67197Y205461D01*
Y206016D01*
X71122D01*
X71122Y206016D01*
X71737Y206139D01*
X72257Y206487D01*
X86606Y220835D01*
X123594D01*
Y217994D01*
X135406D01*
Y220835D01*
X152875D01*
X153027Y220335D01*
X152647Y219767D01*
X152495Y219000D01*
X152647Y218232D01*
X153082Y217582D01*
X153733Y217147D01*
X154500Y216995D01*
X155268Y217147D01*
X155918Y217582D01*
X156353Y218232D01*
X156445Y218695D01*
X162132D01*
X162399Y218195D01*
X162247Y217968D01*
X162094Y217200D01*
X162247Y216432D01*
X162682Y215782D01*
X162947Y215605D01*
X162796Y215105D01*
X137300D01*
X136801Y215005D01*
X136378Y214722D01*
X135906Y214250D01*
X135406Y214458D01*
Y217006D01*
X123594D01*
Y213760D01*
X124874D01*
Y210039D01*
X124874D01*
Y209961D01*
X124874D01*
Y205461D01*
X124874Y205039D01*
X124874Y204539D01*
Y200461D01*
X124874Y200039D01*
X124874Y199539D01*
Y195039D01*
X124874D01*
Y194961D01*
X124874D01*
Y190461D01*
X124874Y190039D01*
X124874Y189539D01*
Y185461D01*
X124874Y185039D01*
X124874Y184539D01*
Y180039D01*
X124874D01*
Y179961D01*
X124874D01*
Y175461D01*
X124874Y175039D01*
X124874Y174539D01*
Y170461D01*
X124874Y170039D01*
X124874Y169539D01*
Y165461D01*
X124874Y165039D01*
X124874Y164539D01*
Y160461D01*
X124874Y160039D01*
Y159733D01*
X124521Y159380D01*
X119877D01*
X119718Y159618D01*
X119068Y160053D01*
X118300Y160205D01*
X117533Y160053D01*
X116882Y159618D01*
X116447Y158967D01*
X116295Y158200D01*
X116447Y157432D01*
X116882Y156782D01*
X117533Y156347D01*
X118300Y156194D01*
X119068Y156347D01*
X119400Y156570D01*
X124521D01*
X124874Y156216D01*
X124874Y155039D01*
X124874Y154539D01*
Y150039D01*
X134126D01*
Y151087D01*
X149704D01*
X150268Y150710D01*
X151035Y150557D01*
X151803Y150710D01*
X152453Y151145D01*
X152888Y151795D01*
X153041Y152563D01*
X152888Y153330D01*
X152453Y153981D01*
X151803Y154416D01*
X151035Y154569D01*
X150268Y154416D01*
X149792Y154098D01*
X134479D01*
X134126Y154451D01*
X134126Y154961D01*
X134126Y155461D01*
Y159539D01*
X134126Y159961D01*
X134126Y160461D01*
Y164539D01*
X134126Y164961D01*
X134126Y165461D01*
Y169539D01*
X134126Y169961D01*
X134126Y170461D01*
Y174539D01*
X134126Y174961D01*
X134126Y175461D01*
Y176195D01*
X239960D01*
X242578Y173577D01*
X243001Y173295D01*
X243500Y173195D01*
X251409D01*
X251561Y172695D01*
X251535Y172678D01*
X251100Y172027D01*
X250947Y171260D01*
X251100Y170492D01*
X251354Y170112D01*
X251087Y169612D01*
X165483D01*
X165353Y170267D01*
X164918Y170918D01*
X164268Y171353D01*
X163500Y171505D01*
X162733Y171353D01*
X162082Y170918D01*
X161647Y170267D01*
X161495Y169500D01*
X161647Y168733D01*
X162082Y168082D01*
X162733Y167647D01*
X163500Y167494D01*
X163634Y167521D01*
X163770Y167385D01*
X164194Y167102D01*
X164579Y167025D01*
X164695Y166718D01*
X164697Y166502D01*
X164577Y166422D01*
X157769Y159614D01*
X157487Y159191D01*
X157387Y158692D01*
Y143308D01*
X157487Y142809D01*
X157769Y142386D01*
X158522Y141633D01*
X158946Y141350D01*
X159445Y141251D01*
X160153D01*
Y139602D01*
X166847D01*
Y140648D01*
X175654D01*
Y139602D01*
X177093D01*
Y137996D01*
X176995Y137500D01*
X177147Y136732D01*
X177582Y136082D01*
X178233Y135647D01*
X179000Y135494D01*
X179134Y135521D01*
X182703Y131951D01*
X183127Y131669D01*
X183626Y131569D01*
X236593D01*
X236856Y131069D01*
X236782Y130962D01*
X236232Y130853D01*
X235582Y130418D01*
X235147Y129768D01*
X234995Y129000D01*
X235147Y128233D01*
X235582Y127582D01*
X236232Y127147D01*
X237000Y126995D01*
X237768Y127147D01*
X238418Y127582D01*
X238853Y128233D01*
X239005Y129000D01*
X238979Y129134D01*
X239446Y129601D01*
X262078D01*
X262577Y129700D01*
X263000Y129983D01*
X268049Y135032D01*
X268511Y134840D01*
Y133545D01*
X263239Y128273D01*
X242469D01*
X241969Y128174D01*
X241546Y127891D01*
X237960Y124305D01*
X159400D01*
X158901Y124205D01*
X158477Y123923D01*
X156934Y122379D01*
X156800Y122406D01*
X156033Y122253D01*
X155382Y121818D01*
X154947Y121168D01*
X154795Y120400D01*
X154947Y119632D01*
X155382Y118982D01*
X156033Y118547D01*
X156800Y118394D01*
X157568Y118547D01*
X158218Y118982D01*
X158653Y119632D01*
X158806Y120400D01*
X158779Y120534D01*
X159940Y121695D01*
X238500D01*
X238999Y121795D01*
X239422Y122078D01*
X243009Y125664D01*
X263779D01*
X264279Y125763D01*
X264702Y126046D01*
X270018Y131362D01*
X270480Y131170D01*
Y129825D01*
X268578Y127922D01*
X268295Y127499D01*
X268195Y127000D01*
Y123704D01*
X267728Y123624D01*
Y123624D01*
X263695D01*
Y118900D01*
Y114176D01*
X267340D01*
X267547Y113676D01*
X266877Y113005D01*
X258000D01*
X257424Y112891D01*
X256936Y112564D01*
X253735Y109364D01*
X253409Y108875D01*
X253294Y108299D01*
Y104723D01*
X243087D01*
Y95077D01*
X266512D01*
Y104723D01*
X256305D01*
Y107676D01*
X258624Y109995D01*
X267500D01*
X268076Y110109D01*
X268564Y110436D01*
X270564Y112436D01*
X270891Y112924D01*
X271005Y113500D01*
X271005Y113500D01*
Y115455D01*
X272748D01*
Y122345D01*
X270805D01*
Y126460D01*
X272707Y128362D01*
X272990Y128785D01*
X273089Y129284D01*
Y136544D01*
X273551Y136735D01*
X276288Y133998D01*
Y122445D01*
X274102D01*
Y115555D01*
X275845D01*
Y113650D01*
X275960Y113074D01*
X276286Y112585D01*
X278436Y110436D01*
X278924Y110109D01*
X279500Y109995D01*
X286877D01*
X290696Y106176D01*
Y104723D01*
X280488D01*
Y95077D01*
X303913D01*
Y104723D01*
X293706D01*
Y106799D01*
X293591Y107375D01*
X293265Y107864D01*
X288564Y112564D01*
X288076Y112891D01*
X287500Y113005D01*
X280123D01*
X279353Y113776D01*
X279560Y114276D01*
X283155D01*
Y119000D01*
X284144D01*
Y114276D01*
X288177D01*
Y117325D01*
X288639Y117516D01*
X295578Y110577D01*
X296001Y110295D01*
X296500Y110195D01*
X308460D01*
X310578Y108078D01*
X311001Y107795D01*
X311500Y107695D01*
X312953D01*
Y105055D01*
X314896D01*
Y101899D01*
X314996Y101400D01*
X315278Y100977D01*
X316395Y99860D01*
Y97898D01*
X314255D01*
Y92878D01*
X312976D01*
Y88845D01*
X317700D01*
X322424D01*
Y92878D01*
X321145D01*
Y97898D01*
X319005D01*
Y100400D01*
X318905Y100899D01*
X318622Y101322D01*
X317505Y102440D01*
Y103696D01*
X317972Y103776D01*
Y103776D01*
X322006D01*
Y108500D01*
X322500D01*
Y108994D01*
X327028D01*
Y113123D01*
X327324D01*
Y117156D01*
X322600D01*
X317876D01*
Y113123D01*
X317972D01*
Y111945D01*
X312953D01*
Y110305D01*
X312040D01*
X309923Y112423D01*
X309499Y112705D01*
X309000Y112805D01*
X302155D01*
X302003Y113305D01*
X302418Y113582D01*
X302853Y114233D01*
X303006Y115000D01*
X302853Y115768D01*
X302418Y116418D01*
X301767Y116853D01*
X301000Y117006D01*
X300233Y116853D01*
X299582Y116418D01*
X299444Y116212D01*
X297002D01*
X292212Y121002D01*
Y131151D01*
X292674Y131342D01*
X300740Y123276D01*
Y122524D01*
X300582Y122418D01*
X300147Y121767D01*
X299994Y121000D01*
X300147Y120232D01*
X300582Y119582D01*
X301233Y119147D01*
X302000Y118994D01*
X302767Y119147D01*
X303418Y119582D01*
X303853Y120232D01*
X304006Y121000D01*
X303853Y121767D01*
X303418Y122418D01*
X303165Y122587D01*
Y123778D01*
X303073Y124242D01*
X302810Y124635D01*
X295384Y132061D01*
X295549Y132604D01*
X295767Y132647D01*
X296418Y133082D01*
X296556Y133288D01*
X304102D01*
Y130654D01*
X310008D01*
Y137346D01*
X304102D01*
Y135712D01*
X296556D01*
X296418Y135918D01*
X295767Y136353D01*
X295000Y136505D01*
X294233Y136353D01*
X293582Y135918D01*
X293248Y135418D01*
X292748Y135570D01*
Y136505D01*
X292655Y136969D01*
X292393Y137362D01*
X283531Y146224D01*
X283722Y146686D01*
X287956D01*
X292571Y142071D01*
X292997Y141786D01*
X293500Y141686D01*
X297013D01*
X297082Y141582D01*
X297732Y141147D01*
X298500Y140995D01*
X299268Y141147D01*
X299918Y141582D01*
X300353Y142233D01*
X300505Y143000D01*
X300353Y143767D01*
X299918Y144418D01*
X299268Y144853D01*
X298500Y145006D01*
X297732Y144853D01*
X297082Y144418D01*
X297013Y144314D01*
X294044D01*
X292218Y146140D01*
X292465Y146601D01*
X293000Y146494D01*
X293767Y146647D01*
X294175Y146920D01*
X301284D01*
Y146087D01*
X301947D01*
Y145248D01*
X302047Y144749D01*
X302329Y144325D01*
X307577Y139077D01*
X308001Y138795D01*
X308500Y138695D01*
X309960D01*
X310848Y137807D01*
X310992Y137346D01*
X310992D01*
X310992Y137346D01*
Y130654D01*
X316898D01*
Y137346D01*
X314305D01*
Y137500D01*
X314205Y137999D01*
X313923Y138423D01*
X311422Y140922D01*
X310999Y141205D01*
X310500Y141305D01*
X309040D01*
X304758Y145587D01*
X304965Y146087D01*
X305221D01*
X305221Y150811D01*
X305680Y150909D01*
X306500D01*
Y154057D01*
X303252D01*
Y155045D01*
X306500D01*
Y158193D01*
X306500D01*
X306508Y158654D01*
X306508D01*
X306508Y158690D01*
Y165347D01*
X300602D01*
Y163305D01*
X299400D01*
X298901Y163205D01*
X298478Y162923D01*
X290806Y155251D01*
X290345Y155497D01*
X290406Y155800D01*
X290253Y156568D01*
X289818Y157218D01*
X289167Y157653D01*
X288400Y157806D01*
X287632Y157653D01*
X286982Y157218D01*
X286839Y157004D01*
X286415Y156920D01*
X286284Y156833D01*
X286114Y156878D01*
X285805Y157113D01*
Y167460D01*
X286866Y168521D01*
X287000Y168494D01*
X287768Y168647D01*
X288418Y169082D01*
X288494Y169195D01*
X300547D01*
Y167654D01*
X306453D01*
Y174346D01*
X300547D01*
Y171805D01*
X288494D01*
X288418Y171918D01*
X287768Y172353D01*
X287000Y172505D01*
X286232Y172353D01*
X285582Y171918D01*
X285147Y171267D01*
X284995Y170500D01*
X285021Y170366D01*
X283577Y168922D01*
X283305Y168514D01*
X283265Y168505D01*
X282805Y168597D01*
Y187506D01*
X282918Y187582D01*
X283353Y188233D01*
X283506Y189000D01*
X283353Y189768D01*
X282918Y190418D01*
X282267Y190853D01*
X281500Y191006D01*
X280732Y190853D01*
X280082Y190418D01*
X279647Y189768D01*
X279495Y189000D01*
X279647Y188233D01*
X280082Y187582D01*
X280195Y187506D01*
Y162937D01*
X276260Y159002D01*
X276197Y159014D01*
X275245D01*
X275057Y159168D01*
Y159912D01*
X275423Y160277D01*
X275705Y160701D01*
X275805Y161200D01*
Y177602D01*
X277847D01*
Y183508D01*
X271224D01*
Y184492D01*
X277847D01*
Y190398D01*
X275814D01*
Y192513D01*
X275918Y192582D01*
X275987Y192686D01*
X284956D01*
X286186Y191456D01*
Y190398D01*
X284154D01*
Y184492D01*
X290846D01*
Y185940D01*
X304932D01*
X311718Y179153D01*
X311400Y178765D01*
X311267Y178853D01*
X310500Y179006D01*
X309733Y178853D01*
X309082Y178418D01*
X308647Y177768D01*
X308494Y177000D01*
X308647Y176233D01*
X308940Y175795D01*
Y174346D01*
X307437D01*
Y167654D01*
X308912D01*
Y165347D01*
X307492D01*
Y158653D01*
X311776D01*
X311921Y158625D01*
X315747D01*
X316495Y157877D01*
Y151123D01*
X315376Y150005D01*
X311717D01*
Y150811D01*
X307780D01*
Y146087D01*
X309020D01*
X317303Y137803D01*
X317303Y137803D01*
X319893Y135213D01*
Y127198D01*
X319155D01*
Y122178D01*
X317876D01*
Y118145D01*
X322600D01*
X327324D01*
Y122178D01*
X326045D01*
Y127198D01*
X323707D01*
Y136003D01*
X323562Y136733D01*
X323148Y137351D01*
X320000Y140500D01*
X320000Y140500D01*
X319966Y140534D01*
Y143653D01*
X320353Y144232D01*
X320505Y145000D01*
X320353Y145767D01*
X319918Y146418D01*
X319268Y146853D01*
X318500Y147005D01*
X317733Y146853D01*
X317082Y146418D01*
X316647Y145767D01*
X316494Y145000D01*
X316566Y144641D01*
X316105Y144395D01*
X313967Y146533D01*
X314158Y146995D01*
X316000D01*
X316576Y147109D01*
X317064Y147436D01*
X319064Y149436D01*
X319391Y149924D01*
X319505Y150500D01*
X319505Y150500D01*
Y158500D01*
X319391Y159076D01*
X319064Y159564D01*
X319064Y159564D01*
X317435Y161194D01*
X316946Y161521D01*
X316370Y161635D01*
X313398D01*
Y165347D01*
X311923D01*
Y167654D01*
X313342D01*
Y169495D01*
X334577D01*
X336736Y167336D01*
X336736Y167336D01*
X337224Y167009D01*
X337800Y166895D01*
X337800Y166895D01*
X339800D01*
X340376Y167009D01*
X340864Y167336D01*
X345579Y172050D01*
X347153D01*
Y170602D01*
X353847D01*
Y171593D01*
X367741D01*
X367875Y171418D01*
X368636Y170835D01*
X369522Y170468D01*
X370472Y170343D01*
X371423Y170468D01*
X372309Y170835D01*
X373070Y171418D01*
X373654Y172179D01*
X374020Y173065D01*
X374146Y174016D01*
X374020Y174966D01*
X373654Y175852D01*
X373070Y176613D01*
X372309Y177197D01*
X371423Y177564D01*
X370472Y177689D01*
X369522Y177564D01*
X368636Y177197D01*
X367875Y176613D01*
X367291Y175852D01*
X367107Y175407D01*
X353847D01*
Y176508D01*
X347153D01*
Y175060D01*
X344955D01*
X344379Y174946D01*
X343891Y174619D01*
X339177Y169905D01*
X338423D01*
X336264Y172064D01*
X335776Y172391D01*
X335200Y172505D01*
X313342D01*
Y174346D01*
X311950D01*
Y175630D01*
X312353Y176233D01*
X312506Y177000D01*
X312353Y177768D01*
X312265Y177900D01*
X312653Y178218D01*
X315936Y174936D01*
X315936Y174936D01*
X316424Y174609D01*
X317000Y174495D01*
X337376D01*
X337525Y174346D01*
X337647Y173732D01*
X338082Y173082D01*
X338733Y172647D01*
X339500Y172494D01*
X340267Y172647D01*
X340918Y173082D01*
X341353Y173732D01*
X341506Y174500D01*
X341353Y175268D01*
X340918Y175918D01*
X340267Y176353D01*
X339654Y176475D01*
X339064Y177064D01*
X338576Y177391D01*
X338000Y177505D01*
X317623D01*
X316620Y178509D01*
X316785Y179051D01*
X317267Y179147D01*
X317918Y179582D01*
X317994Y179695D01*
X319153D01*
Y178102D01*
X325847D01*
Y179258D01*
X327618D01*
Y179087D01*
X342382D01*
Y179258D01*
X347153D01*
Y177492D01*
X353847D01*
Y183398D01*
X351805D01*
Y200000D01*
X351705Y200499D01*
X351423Y200922D01*
X345622Y206722D01*
X345199Y207005D01*
X344700Y207105D01*
X269955D01*
X269803Y207605D01*
X270218Y207882D01*
X270653Y208533D01*
X270806Y209300D01*
X270653Y210068D01*
X270218Y210718D01*
X269567Y211153D01*
X268800Y211305D01*
X268033Y211153D01*
X267511Y210805D01*
X264800D01*
X264301Y210705D01*
X263878Y210422D01*
X262904Y209449D01*
X253293D01*
X253057Y209890D01*
X253153Y210033D01*
X253306Y210800D01*
X253153Y211567D01*
X252867Y211995D01*
X253134Y212495D01*
X279095D01*
X279147Y212232D01*
X279582Y211582D01*
X280233Y211147D01*
X281000Y210995D01*
X281768Y211147D01*
X282418Y211582D01*
X282853Y212232D01*
X283005Y213000D01*
X282853Y213768D01*
X282418Y214418D01*
X281768Y214853D01*
X281000Y215005D01*
X280768Y214959D01*
X280699Y215005D01*
X280200Y215105D01*
X165464D01*
X165312Y215566D01*
X165493Y215765D01*
X165518Y215782D01*
X165545Y215822D01*
X165612Y215895D01*
X167200D01*
X350370Y215895D01*
X350777Y215488D01*
X350750Y215354D01*
X350903Y214587D01*
X351338Y213936D01*
X351989Y213502D01*
X352756Y213349D01*
X353523Y213502D01*
X354174Y213936D01*
X354609Y214587D01*
X354761Y215354D01*
X354609Y216122D01*
X354174Y216772D01*
X353523Y217207D01*
X352756Y217360D01*
X352622Y217333D01*
X351833Y218123D01*
X351724Y218195D01*
X351875Y218695D01*
X353891D01*
X355134Y217453D01*
X355234Y216949D01*
X355668Y216299D01*
X356319Y215864D01*
X357087Y215711D01*
X357854Y215864D01*
X358505Y216299D01*
X358939Y216949D01*
X359092Y217717D01*
X358961Y218376D01*
X359321Y218649D01*
X359373Y218671D01*
X361394Y216650D01*
Y180137D01*
X361147Y179768D01*
X360995Y179000D01*
X361147Y178233D01*
X361582Y177582D01*
X362232Y177147D01*
X363000Y176995D01*
X363768Y177147D01*
X364418Y177582D01*
X364853Y178233D01*
X365005Y179000D01*
X364853Y179768D01*
X364606Y180137D01*
Y217315D01*
X364606Y217315D01*
X364483Y217929D01*
X364135Y218450D01*
X359186Y223400D01*
X359393Y223900D01*
X366700D01*
X368003Y223797D01*
D02*
G37*
G36*
X254654Y184437D02*
X261347D01*
Y184437D01*
X261776Y184266D01*
Y183624D01*
X261347Y183453D01*
Y183453D01*
X254654D01*
Y177547D01*
X261347D01*
Y179546D01*
X263055D01*
Y177602D01*
X265195D01*
Y175655D01*
X264695Y175503D01*
X264418Y175918D01*
X263768Y176353D01*
X263000Y176505D01*
X262232Y176353D01*
X261582Y175918D01*
X261506Y175805D01*
X244040D01*
X241423Y178422D01*
X240999Y178705D01*
X240500Y178805D01*
X164433D01*
X164386Y178931D01*
X164350Y179305D01*
X164918Y179684D01*
X165353Y180335D01*
X165506Y181102D01*
X165353Y181870D01*
X164918Y182520D01*
X164268Y182955D01*
X163573Y183093D01*
X163622Y183593D01*
X196078D01*
X196807Y183738D01*
X197426Y184152D01*
X199126Y185852D01*
X254654D01*
Y184437D01*
D02*
G37*
G36*
X271153Y177602D02*
X273195D01*
Y166307D01*
X272744Y166151D01*
X272695Y166150D01*
X267805Y171040D01*
Y177602D01*
X269945D01*
Y182622D01*
X271153D01*
Y177602D01*
D02*
G37*
G36*
X261406Y164816D02*
X261136Y164379D01*
X260500Y164506D01*
X259733Y164353D01*
X259082Y163918D01*
X258647Y163268D01*
X258494Y162500D01*
X258647Y161732D01*
X259082Y161082D01*
X259733Y160647D01*
X260500Y160494D01*
X261026Y160599D01*
X261825Y159800D01*
X262232Y159528D01*
X262712Y159432D01*
X263793D01*
X264595Y158631D01*
Y156648D01*
X264664Y156301D01*
Y155136D01*
X263632D01*
X263182Y155226D01*
X263075Y155205D01*
X259640D01*
X257805Y157040D01*
Y163000D01*
X257705Y163499D01*
X257422Y163923D01*
X254923Y166422D01*
X254803Y166502D01*
X254954Y167002D01*
X259219D01*
X261406Y164816D01*
D02*
G37*
G36*
X255195Y162460D02*
Y156500D01*
X255295Y156001D01*
X255577Y155578D01*
X256130Y155025D01*
X255939Y154563D01*
X253736D01*
X253453Y155063D01*
X253525Y155429D01*
Y156407D01*
X253426Y156907D01*
X253143Y157330D01*
X249843Y160630D01*
X249869Y160764D01*
X249717Y161531D01*
X249282Y162182D01*
X248632Y162617D01*
X247864Y162769D01*
X247097Y162617D01*
X246446Y162182D01*
X246011Y161531D01*
X245859Y160764D01*
X246011Y159997D01*
X246446Y159346D01*
X247097Y158911D01*
X247864Y158759D01*
X247998Y158785D01*
X250280Y156503D01*
X250088Y156042D01*
X248418D01*
X240726Y163733D01*
X240918Y164195D01*
X253460D01*
X255195Y162460D01*
D02*
G37*
G36*
X170531Y163733D02*
X169315Y162518D01*
X169033Y162095D01*
X168933Y161595D01*
Y159581D01*
X168789Y159553D01*
X168139Y159118D01*
X167849Y158684D01*
X167638Y158642D01*
X167215Y158359D01*
X162577Y153723D01*
X162295Y153299D01*
X162195Y152800D01*
Y152398D01*
X160153D01*
X159996Y152833D01*
Y158151D01*
X166040Y164195D01*
X170339D01*
X170531Y163733D01*
D02*
G37*
G36*
X297443Y151023D02*
X297796Y151069D01*
X298586Y151397D01*
X299264Y151917D01*
X299504Y152229D01*
X300004Y152060D01*
Y150909D01*
X300824D01*
X301283Y150811D01*
X301284Y150409D01*
Y149529D01*
X294678D01*
X294418Y149918D01*
X293767Y150353D01*
X293000Y150505D01*
X292232Y150353D01*
X291582Y149918D01*
X291147Y149267D01*
X290995Y148500D01*
X291101Y147965D01*
X290640Y147718D01*
X289429Y148929D01*
X289101Y149149D01*
X288942Y149697D01*
X293206Y153961D01*
X293734Y153782D01*
X293786Y153385D01*
X294113Y152595D01*
X294633Y151917D01*
X295312Y151397D01*
X296101Y151069D01*
X296455Y151023D01*
Y154232D01*
X297443D01*
Y151023D01*
D02*
G37*
G36*
X246135Y151833D02*
X246558Y151551D01*
X247057Y151451D01*
X250007D01*
X250243Y151010D01*
X250147Y150867D01*
X249994Y150100D01*
X250147Y149332D01*
X250582Y148682D01*
X251233Y148247D01*
X251401Y148214D01*
X251546Y147735D01*
X249324Y145513D01*
X246789D01*
X246518Y145918D01*
X245867Y146353D01*
X245100Y146505D01*
X244333Y146353D01*
X243682Y145918D01*
X243247Y145267D01*
X243094Y144500D01*
X243247Y143733D01*
X243682Y143082D01*
X244333Y142647D01*
X245100Y142494D01*
X245867Y142647D01*
X246277Y142921D01*
X246364Y142904D01*
X249864D01*
X250363Y143003D01*
X250787Y143286D01*
X254212Y146711D01*
X255087D01*
X255170Y146451D01*
X255170Y146211D01*
X254582Y145818D01*
X254147Y145168D01*
X253994Y144400D01*
X254147Y143632D01*
X254582Y142982D01*
X255233Y142547D01*
X256000Y142394D01*
X256428Y142480D01*
X256674Y142019D01*
X254460Y139805D01*
X239898D01*
Y141847D01*
X234287D01*
Y143126D01*
X230549D01*
Y138500D01*
X229561D01*
Y143126D01*
X225823D01*
Y140577D01*
X225323Y140401D01*
X224767Y140828D01*
X223977Y141155D01*
X223624Y141201D01*
Y137992D01*
Y134783D01*
X223977Y134829D01*
X224767Y135156D01*
X225323Y135583D01*
X225823Y135407D01*
Y134179D01*
X184166D01*
X180979Y137366D01*
X181006Y137500D01*
X180907Y137996D01*
Y139602D01*
X182346D01*
Y145508D01*
X175654D01*
Y144462D01*
X166847D01*
Y145508D01*
X160153D01*
X159996Y145943D01*
Y146057D01*
X160153Y146492D01*
X166847D01*
Y152398D01*
X165596D01*
X165405Y152860D01*
X168551Y156006D01*
X168789Y155847D01*
X169557Y155694D01*
X170324Y155847D01*
X170975Y156282D01*
X170978Y156287D01*
X171478D01*
X171482Y156282D01*
X172133Y155847D01*
X172900Y155694D01*
X173668Y155847D01*
X173811Y155944D01*
X176895Y152860D01*
X176704Y152398D01*
X175654D01*
Y146492D01*
X182346D01*
Y152398D01*
X180305D01*
Y152600D01*
X180205Y153099D01*
X179922Y153523D01*
X175085Y158359D01*
X174662Y158642D01*
X174632Y158648D01*
X174318Y159118D01*
X173668Y159553D01*
X173523Y159581D01*
Y160162D01*
X237806D01*
X246135Y151833D01*
D02*
G37*
G36*
X286118Y137561D02*
Y135659D01*
X286175Y135378D01*
X285714Y135131D01*
X281923Y138923D01*
X281499Y139205D01*
X281000Y139305D01*
X278484D01*
X276986Y140803D01*
Y141382D01*
X276936Y141631D01*
Y142864D01*
X280075D01*
X280148Y142878D01*
X280801D01*
X286118Y137561D01*
D02*
G37*
G36*
X264664Y141832D02*
X264574Y141382D01*
Y139451D01*
X259302Y134179D01*
X234287D01*
Y135153D01*
X239898D01*
Y137195D01*
X255000D01*
X255499Y137295D01*
X255923Y137577D01*
X261119Y142774D01*
X263182D01*
X263632Y142864D01*
X264664D01*
Y141832D01*
D02*
G37*
G36*
X287695Y129460D02*
Y127519D01*
X287195Y127419D01*
X286989Y127917D01*
X286469Y128595D01*
X285791Y129115D01*
X285001Y129442D01*
X284648Y129489D01*
Y126279D01*
X284154D01*
Y125785D01*
X280944D01*
X280991Y125432D01*
X281318Y124642D01*
X281638Y124224D01*
X281392Y123724D01*
X279122D01*
X278712Y123942D01*
Y132141D01*
X279212Y132552D01*
X279500Y132494D01*
X280268Y132647D01*
X280918Y133082D01*
X281353Y133732D01*
X281505Y134500D01*
X281396Y135052D01*
X281856Y135299D01*
X287695Y129460D01*
D02*
G37*
G36*
X32847Y77643D02*
X33241Y77380D01*
X33581Y77312D01*
X33532Y76812D01*
X31802D01*
X18929Y89686D01*
Y90908D01*
X19391Y91100D01*
X32847Y77643D01*
D02*
G37*
G36*
X30443Y74743D02*
X30836Y74480D01*
X31300Y74388D01*
X141900D01*
X142364Y74480D01*
X142757Y74743D01*
X145602Y77588D01*
X146970D01*
X147245Y77153D01*
X147238Y77088D01*
X147043Y76957D01*
X143798Y73712D01*
X28802D01*
X16960Y85554D01*
Y87572D01*
X17422Y87763D01*
X30443Y74743D01*
D02*
G37*
%LPC*%
G36*
X70573Y220729D02*
Y218014D01*
X73288D01*
X73242Y218367D01*
X72914Y219157D01*
X72394Y219835D01*
X71716Y220356D01*
X70926Y220683D01*
X70573Y220729D01*
D02*
G37*
G36*
X62077Y221240D02*
X56665D01*
Y217994D01*
X62077D01*
Y221240D01*
D02*
G37*
G36*
X73288Y217026D02*
X70573D01*
Y214310D01*
X70926Y214357D01*
X71716Y214684D01*
X72394Y215204D01*
X72914Y215882D01*
X73242Y216672D01*
X73288Y217026D01*
D02*
G37*
G36*
X41724Y187856D02*
X37494D01*
Y183823D01*
X41724D01*
Y187856D01*
D02*
G37*
G36*
X21006Y187707D02*
X16776D01*
Y183673D01*
X21006D01*
Y187707D01*
D02*
G37*
G36*
X344785Y200158D02*
Y197443D01*
X347501D01*
X347454Y197796D01*
X347127Y198586D01*
X346607Y199264D01*
X345929Y199785D01*
X345139Y200112D01*
X344785Y200158D01*
D02*
G37*
G36*
X222402Y198817D02*
X219687D01*
Y196102D01*
X220040Y196148D01*
X220830Y196475D01*
X221508Y196996D01*
X222029Y197674D01*
X222356Y198463D01*
X222402Y198817D01*
D02*
G37*
G36*
X218699D02*
X215984D01*
X216030Y198463D01*
X216357Y197674D01*
X216878Y196996D01*
X217556Y196475D01*
X218345Y196148D01*
X218699Y196102D01*
Y198817D01*
D02*
G37*
G36*
X347501Y196455D02*
X344785D01*
Y193739D01*
X345139Y193786D01*
X345929Y194113D01*
X346607Y194633D01*
X347127Y195312D01*
X347454Y196101D01*
X347501Y196455D01*
D02*
G37*
G36*
X342177Y201224D02*
X338144D01*
Y196500D01*
Y191776D01*
X342177D01*
Y193914D01*
X342626Y194135D01*
X342654Y194113D01*
X343444Y193786D01*
X343797Y193739D01*
Y196949D01*
Y200158D01*
X343444Y200112D01*
X342654Y199785D01*
X342626Y199763D01*
X342177Y199984D01*
Y201224D01*
D02*
G37*
G36*
X270631Y196061D02*
X267915D01*
Y193346D01*
X268269Y193392D01*
X269058Y193719D01*
X269737Y194240D01*
X270257Y194918D01*
X270584Y195708D01*
X270631Y196061D01*
D02*
G37*
G36*
X266927D02*
X264212D01*
X264258Y195708D01*
X264585Y194918D01*
X265106Y194240D01*
X265784Y193719D01*
X266574Y193392D01*
X266927Y193346D01*
Y196061D01*
D02*
G37*
G36*
X344884Y188052D02*
Y185337D01*
X347599D01*
X347553Y185690D01*
X347225Y186480D01*
X346705Y187158D01*
X346027Y187678D01*
X345237Y188005D01*
X344884Y188052D01*
D02*
G37*
G36*
X92915Y220237D02*
Y217522D01*
X95631D01*
X95584Y217875D01*
X95257Y218665D01*
X94737Y219343D01*
X94059Y219863D01*
X93269Y220191D01*
X92915Y220237D01*
D02*
G37*
G36*
X91927D02*
X91574Y220191D01*
X90784Y219863D01*
X90106Y219343D01*
X89586Y218665D01*
X89258Y217875D01*
X89212Y217522D01*
X91927D01*
Y220237D01*
D02*
G37*
G36*
X95631Y216533D02*
X92915D01*
Y213818D01*
X93269Y213865D01*
X94059Y214192D01*
X94737Y214712D01*
X95257Y215390D01*
X95584Y216180D01*
X95631Y216533D01*
D02*
G37*
G36*
X91927D02*
X89212D01*
X89258Y216180D01*
X89586Y215390D01*
X90106Y214712D01*
X90784Y214192D01*
X91574Y213865D01*
X91927Y213818D01*
Y216533D01*
D02*
G37*
G36*
X370770Y215217D02*
Y212502D01*
X373485D01*
X373439Y212855D01*
X373111Y213645D01*
X372591Y214323D01*
X371913Y214844D01*
X371123Y215171D01*
X370770Y215217D01*
D02*
G37*
G36*
X369781D02*
X369428Y215171D01*
X368638Y214844D01*
X367960Y214323D01*
X367440Y213645D01*
X367113Y212855D01*
X367066Y212502D01*
X369781D01*
Y215217D01*
D02*
G37*
G36*
X373485Y211514D02*
X367066D01*
X367113Y211160D01*
X367440Y210371D01*
X367960Y209693D01*
X368293Y209437D01*
X368123Y208937D01*
X365551D01*
Y204510D01*
X370472D01*
X375394D01*
Y208937D01*
X372428D01*
X372258Y209437D01*
X372591Y209693D01*
X373111Y210371D01*
X373439Y211160D01*
X373485Y211514D01*
D02*
G37*
G36*
X375394Y203522D02*
X370967D01*
Y199094D01*
X375394D01*
Y203522D01*
D02*
G37*
G36*
X369978D02*
X365551D01*
Y199094D01*
X369978D01*
Y203522D01*
D02*
G37*
G36*
X370472Y197689D02*
X369522Y197564D01*
X368636Y197197D01*
X367875Y196613D01*
X367291Y195852D01*
X366924Y194966D01*
X366799Y194016D01*
X366924Y193065D01*
X367291Y192179D01*
X367875Y191418D01*
X368636Y190835D01*
X369522Y190468D01*
X370472Y190343D01*
X371423Y190468D01*
X372309Y190835D01*
X373070Y191418D01*
X373654Y192179D01*
X374020Y193065D01*
X374146Y194016D01*
X374020Y194966D01*
X373654Y195852D01*
X373070Y196613D01*
X372309Y197197D01*
X371423Y197564D01*
X370472Y197689D01*
D02*
G37*
G36*
X99673Y196169D02*
X85185D01*
Y181681D01*
X99673D01*
Y196169D01*
D02*
G37*
G36*
X370472Y187689D02*
X369522Y187564D01*
X368636Y187197D01*
X367875Y186613D01*
X367291Y185852D01*
X366924Y184966D01*
X366799Y184016D01*
X366924Y183065D01*
X367291Y182179D01*
X367875Y181418D01*
X368636Y180835D01*
X369522Y180468D01*
X370472Y180343D01*
X371423Y180468D01*
X372309Y180835D01*
X373070Y181418D01*
X373654Y182179D01*
X374020Y183065D01*
X374146Y184016D01*
X374020Y184966D01*
X373654Y185852D01*
X373070Y186613D01*
X372309Y187197D01*
X371423Y187564D01*
X370472Y187689D01*
D02*
G37*
G36*
X290846Y183508D02*
X284154D01*
Y177602D01*
X286195D01*
Y176994D01*
X286082Y176918D01*
X285647Y176268D01*
X285494Y175500D01*
X285647Y174732D01*
X286082Y174082D01*
X286733Y173647D01*
X287500Y173495D01*
X288267Y173647D01*
X288918Y174082D01*
X289353Y174732D01*
X289506Y175500D01*
X289353Y176268D01*
X288918Y176918D01*
X288805Y176994D01*
Y177602D01*
X290846D01*
Y183508D01*
D02*
G37*
G36*
X370472Y167689D02*
X369522Y167564D01*
X368636Y167197D01*
X367875Y166613D01*
X367291Y165852D01*
X366924Y164966D01*
X366799Y164016D01*
X366924Y163065D01*
X367291Y162179D01*
X367875Y161418D01*
X368636Y160835D01*
X369522Y160468D01*
X370472Y160343D01*
X371423Y160468D01*
X372309Y160835D01*
X373070Y161418D01*
X373654Y162179D01*
X374020Y163065D01*
X374146Y164016D01*
X374020Y164966D01*
X373654Y165852D01*
X373070Y166613D01*
X372309Y167197D01*
X371423Y167564D01*
X370472Y167689D01*
D02*
G37*
G36*
X311717Y156913D02*
X307780D01*
Y152189D01*
X311717D01*
Y156913D01*
D02*
G37*
G36*
X344000Y162005D02*
X343232Y161853D01*
X342582Y161418D01*
X342147Y160767D01*
X341995Y160000D01*
X342147Y159232D01*
X342582Y158582D01*
X343232Y158147D01*
X343846Y158025D01*
X348999Y152873D01*
X349487Y152546D01*
X350063Y152432D01*
X367187D01*
X367291Y152179D01*
X367875Y151418D01*
X368636Y150835D01*
X369522Y150468D01*
X370472Y150343D01*
X371423Y150468D01*
X372309Y150835D01*
X373070Y151418D01*
X373654Y152179D01*
X374020Y153065D01*
X374146Y154016D01*
X374020Y154966D01*
X373654Y155852D01*
X373070Y156613D01*
X372309Y157197D01*
X371423Y157564D01*
X370472Y157689D01*
X369522Y157564D01*
X368636Y157197D01*
X367875Y156613D01*
X367291Y155852D01*
X367122Y155442D01*
X350687D01*
X345975Y160154D01*
X345853Y160767D01*
X345418Y161418D01*
X344767Y161853D01*
X344000Y162005D01*
D02*
G37*
G36*
X72833Y139467D02*
X70117D01*
X70164Y139113D01*
X70491Y138323D01*
X71011Y137645D01*
X71689Y137125D01*
X72479Y136798D01*
X72833Y136751D01*
Y139467D01*
D02*
G37*
G36*
X262707Y123624D02*
X258673D01*
Y121945D01*
X258173Y121700D01*
X257540Y121962D01*
X257187Y122009D01*
Y118799D01*
Y115590D01*
X257540Y115636D01*
X258173Y115899D01*
X258673Y115653D01*
Y114176D01*
X262707D01*
Y118900D01*
Y123624D01*
D02*
G37*
G36*
X347894Y129624D02*
Y119494D01*
X358024D01*
X357931Y120668D01*
X357541Y122295D01*
X356901Y123841D01*
X356026Y125267D01*
X354940Y126540D01*
X353667Y127626D01*
X352241Y128501D01*
X350695Y129141D01*
X349068Y129532D01*
X347894Y129624D01*
D02*
G37*
G36*
X346906D02*
X345732Y129532D01*
X344105Y129141D01*
X342559Y128501D01*
X341133Y127626D01*
X339860Y126540D01*
X338774Y125267D01*
X337899Y123841D01*
X337259Y122295D01*
X336869Y120668D01*
X336776Y119494D01*
X346906D01*
Y129624D01*
D02*
G37*
G36*
X39694Y129524D02*
Y119394D01*
X49824D01*
X49731Y120568D01*
X49341Y122195D01*
X48701Y123741D01*
X47826Y125167D01*
X46740Y126440D01*
X45467Y127526D01*
X44041Y128401D01*
X42495Y129041D01*
X40868Y129431D01*
X39694Y129524D01*
D02*
G37*
G36*
X38706D02*
X37532Y129431D01*
X35905Y129041D01*
X34359Y128401D01*
X32933Y127526D01*
X31660Y126440D01*
X30574Y125167D01*
X29699Y123741D01*
X29059Y122195D01*
X28668Y120568D01*
X28576Y119394D01*
X38706D01*
Y129524D01*
D02*
G37*
G36*
X256199Y122009D02*
X255845Y121962D01*
X255056Y121635D01*
X254378Y121115D01*
X253857Y120436D01*
X253530Y119647D01*
X253484Y119293D01*
X256199D01*
Y122009D01*
D02*
G37*
G36*
Y118305D02*
X253484D01*
X253530Y117952D01*
X253857Y117162D01*
X254378Y116484D01*
X255056Y115963D01*
X255845Y115636D01*
X256199Y115590D01*
Y118305D01*
D02*
G37*
G36*
X358024Y118506D02*
X347894D01*
Y108376D01*
X349068Y108468D01*
X350695Y108859D01*
X352241Y109499D01*
X353667Y110374D01*
X354940Y111460D01*
X356026Y112733D01*
X356901Y114159D01*
X357541Y115705D01*
X357931Y117332D01*
X358024Y118506D01*
D02*
G37*
G36*
X346906D02*
X336776D01*
X336869Y117332D01*
X337259Y115705D01*
X337899Y114159D01*
X338774Y112733D01*
X339860Y111460D01*
X341133Y110374D01*
X342559Y109499D01*
X344105Y108859D01*
X345732Y108468D01*
X346906Y108376D01*
Y118506D01*
D02*
G37*
G36*
X49824Y118406D02*
X39694D01*
Y108276D01*
X40868Y108369D01*
X42495Y108759D01*
X44041Y109399D01*
X45467Y110274D01*
X46740Y111360D01*
X47826Y112633D01*
X48701Y114059D01*
X49341Y115605D01*
X49731Y117232D01*
X49824Y118406D01*
D02*
G37*
G36*
X38706D02*
X28576D01*
X28668Y117232D01*
X29059Y115605D01*
X29699Y114059D01*
X30574Y112633D01*
X31660Y111360D01*
X32933Y110274D01*
X34359Y109399D01*
X35905Y108759D01*
X37532Y108369D01*
X38706Y108276D01*
Y118406D01*
D02*
G37*
G36*
X327028Y108006D02*
X322994D01*
Y103776D01*
X327028D01*
Y108006D01*
D02*
G37*
G36*
X138800Y133205D02*
X138032Y133053D01*
X137382Y132618D01*
X136947Y131967D01*
X136794Y131200D01*
X136893Y130704D01*
Y106519D01*
X133856Y103481D01*
X31205D01*
X30709Y103580D01*
X29941Y103428D01*
X29291Y102993D01*
X28856Y102342D01*
X28703Y101575D01*
X28856Y100807D01*
X29291Y100157D01*
X29941Y99722D01*
X30709Y99569D01*
X31205Y99668D01*
X134646D01*
X135375Y99813D01*
X135994Y100226D01*
X140148Y104381D01*
X140562Y104999D01*
X140707Y105729D01*
Y130704D01*
X140805Y131200D01*
X140653Y131967D01*
X140218Y132618D01*
X139567Y133053D01*
X138800Y133205D01*
D02*
G37*
G36*
X199846Y104008D02*
X193154D01*
Y98102D01*
X195295D01*
Y96294D01*
X195182Y96218D01*
X194747Y95568D01*
X194595Y94800D01*
X194747Y94033D01*
X195182Y93382D01*
X195833Y92947D01*
X196600Y92795D01*
X197368Y92947D01*
X198018Y93382D01*
X198453Y94033D01*
X198606Y94800D01*
X198453Y95568D01*
X198018Y96218D01*
X197905Y96294D01*
Y98102D01*
X199846D01*
Y104008D01*
D02*
G37*
G36*
X186846Y103453D02*
X180154D01*
Y97547D01*
X182295D01*
Y95894D01*
X182182Y95818D01*
X181747Y95167D01*
X181595Y94400D01*
X181747Y93633D01*
X182182Y92982D01*
X182833Y92547D01*
X183600Y92395D01*
X184368Y92547D01*
X185018Y92982D01*
X185453Y93633D01*
X185606Y94400D01*
X185453Y95167D01*
X185018Y95818D01*
X184905Y95894D01*
Y97547D01*
X186846D01*
Y103453D01*
D02*
G37*
G36*
X146631Y89135D02*
X146278Y89088D01*
X145488Y88761D01*
X144810Y88241D01*
X144289Y87562D01*
X143962Y86773D01*
X143916Y86419D01*
X146631D01*
Y89135D01*
D02*
G37*
G36*
X126183D02*
Y86419D01*
X128898D01*
X128852Y86773D01*
X128525Y87562D01*
X128004Y88241D01*
X127326Y88761D01*
X126537Y89088D01*
X126183Y89135D01*
D02*
G37*
G36*
X103345Y88052D02*
X102991Y88005D01*
X102201Y87678D01*
X101523Y87158D01*
X101003Y86480D01*
X100676Y85690D01*
X100629Y85337D01*
X103345D01*
Y88052D01*
D02*
G37*
G36*
X322424Y87856D02*
X318194D01*
Y83823D01*
X322424D01*
Y87856D01*
D02*
G37*
G36*
X146631Y85431D02*
X143916D01*
X143962Y85078D01*
X144289Y84288D01*
X144810Y83610D01*
X145488Y83089D01*
X146278Y82762D01*
X146631Y82716D01*
Y85431D01*
D02*
G37*
G36*
X128898D02*
X126183D01*
Y82716D01*
X126537Y82762D01*
X127326Y83089D01*
X128004Y83610D01*
X128525Y84288D01*
X128852Y85078D01*
X128898Y85431D01*
D02*
G37*
G36*
X103345Y84348D02*
X100629D01*
X100676Y83995D01*
X101003Y83205D01*
X101523Y82527D01*
X102201Y82007D01*
X102991Y81680D01*
X103345Y81633D01*
Y84348D01*
D02*
G37*
G36*
X119506Y85356D02*
X115276D01*
Y81323D01*
X119506D01*
Y85356D01*
D02*
G37*
G36*
X114724Y84356D02*
X110494D01*
Y80323D01*
X114724D01*
Y84356D01*
D02*
G37*
G36*
X318112Y73583D02*
Y70868D01*
X320828D01*
X320781Y71222D01*
X320454Y72011D01*
X319934Y72689D01*
X319255Y73210D01*
X318466Y73537D01*
X318112Y73583D01*
D02*
G37*
G36*
X317124D02*
X316771Y73537D01*
X315981Y73210D01*
X315303Y72689D01*
X314782Y72011D01*
X314455Y71222D01*
X314409Y70868D01*
X317124D01*
Y73583D01*
D02*
G37*
G36*
X261715D02*
Y70868D01*
X264430D01*
X264383Y71222D01*
X264056Y72011D01*
X263536Y72689D01*
X262858Y73210D01*
X262068Y73537D01*
X261715Y73583D01*
D02*
G37*
G36*
X260726D02*
X260373Y73537D01*
X259583Y73210D01*
X258905Y72689D01*
X258385Y72011D01*
X258058Y71222D01*
X258011Y70868D01*
X260726D01*
Y73583D01*
D02*
G37*
G36*
X320828Y69880D02*
X318112D01*
Y67165D01*
X318466Y67211D01*
X319255Y67538D01*
X319934Y68059D01*
X320454Y68737D01*
X320781Y69526D01*
X320828Y69880D01*
D02*
G37*
G36*
X317124D02*
X314409D01*
X314455Y69526D01*
X314782Y68737D01*
X315303Y68059D01*
X315981Y67538D01*
X316771Y67211D01*
X317124Y67165D01*
Y69880D01*
D02*
G37*
G36*
X264430D02*
X261715D01*
Y67165D01*
X262068Y67211D01*
X262858Y67538D01*
X263536Y68059D01*
X264056Y68737D01*
X264383Y69526D01*
X264430Y69880D01*
D02*
G37*
G36*
X260726D02*
X258011D01*
X258058Y69526D01*
X258385Y68737D01*
X258905Y68059D01*
X259583Y67538D01*
X260373Y67211D01*
X260726Y67165D01*
Y69880D01*
D02*
G37*
G36*
X195110Y73688D02*
X194212Y73570D01*
X193375Y73223D01*
X192656Y72671D01*
X192105Y71953D01*
X191758Y71116D01*
X191640Y70217D01*
X191758Y69319D01*
X192105Y68482D01*
X192656Y67763D01*
X193375Y67212D01*
X194212Y66865D01*
X195110Y66747D01*
X196009Y66865D01*
X196846Y67212D01*
X197564Y67763D01*
X198116Y68482D01*
X198463Y69319D01*
X198581Y70217D01*
X198463Y71116D01*
X198116Y71953D01*
X197564Y72671D01*
X196846Y73223D01*
X196009Y73570D01*
X195110Y73688D01*
D02*
G37*
G36*
X175110D02*
X174212Y73570D01*
X173375Y73223D01*
X172656Y72671D01*
X172105Y71953D01*
X171758Y71116D01*
X171640Y70217D01*
X171758Y69319D01*
X172105Y68482D01*
X172656Y67763D01*
X173375Y67212D01*
X174212Y66865D01*
X175110Y66747D01*
X176008Y66865D01*
X176846Y67212D01*
X177564Y67763D01*
X178116Y68482D01*
X178463Y69319D01*
X178581Y70217D01*
X178463Y71116D01*
X178116Y71953D01*
X177564Y72671D01*
X176846Y73223D01*
X176008Y73570D01*
X175110Y73688D01*
D02*
G37*
G36*
X254677Y70006D02*
X250939D01*
Y65874D01*
X254677D01*
Y70006D01*
D02*
G37*
G36*
X71677Y63724D02*
X67644D01*
Y59494D01*
X71677D01*
Y63724D01*
D02*
G37*
G36*
X82022Y63759D02*
X80939D01*
Y59388D01*
X84227D01*
Y61553D01*
X84060Y62397D01*
X83581Y63113D01*
X82866Y63591D01*
X82022Y63759D01*
D02*
G37*
G36*
X79951D02*
X78868D01*
X78024Y63591D01*
X77308Y63113D01*
X76830Y62397D01*
X76662Y61553D01*
Y59388D01*
X79951D01*
Y63759D01*
D02*
G37*
G36*
X254677Y62126D02*
X250939D01*
Y57994D01*
X254677D01*
Y62126D01*
D02*
G37*
G36*
X261715Y60591D02*
Y57876D01*
X264430D01*
X264383Y58229D01*
X264056Y59019D01*
X263536Y59697D01*
X262858Y60218D01*
X262068Y60545D01*
X261715Y60591D01*
D02*
G37*
G36*
X260726D02*
X260373Y60545D01*
X259583Y60218D01*
X258905Y59697D01*
X258385Y59019D01*
X258058Y58229D01*
X258011Y57876D01*
X260726D01*
Y60591D01*
D02*
G37*
G36*
X173551Y63658D02*
X166669D01*
Y56776D01*
X173551D01*
Y63658D01*
D02*
G37*
G36*
X185110Y73688D02*
X184212Y73570D01*
X183375Y73223D01*
X182656Y72671D01*
X182105Y71953D01*
X181758Y71116D01*
X181640Y70217D01*
X181758Y69319D01*
X182105Y68482D01*
X182656Y67763D01*
X183375Y67212D01*
X183805Y67034D01*
Y64721D01*
X183950Y63992D01*
X184363Y63373D01*
X186742Y60994D01*
X186640Y60217D01*
X186758Y59319D01*
X187105Y58482D01*
X187656Y57763D01*
X188375Y57212D01*
X189212Y56865D01*
X190110Y56747D01*
X191008Y56865D01*
X191846Y57212D01*
X192564Y57763D01*
X193116Y58482D01*
X193463Y59319D01*
X193581Y60217D01*
X193463Y61116D01*
X193116Y61953D01*
X192564Y62671D01*
X191846Y63223D01*
X191008Y63570D01*
X190110Y63688D01*
X189519Y63610D01*
X187618Y65511D01*
Y67833D01*
X188116Y68482D01*
X188463Y69319D01*
X188581Y70217D01*
X188463Y71116D01*
X188116Y71953D01*
X187564Y72671D01*
X186846Y73223D01*
X186009Y73570D01*
X185110Y73688D01*
D02*
G37*
G36*
X180110Y63688D02*
X179212Y63570D01*
X178375Y63223D01*
X177656Y62671D01*
X177105Y61953D01*
X176758Y61116D01*
X176640Y60217D01*
X176758Y59319D01*
X177105Y58482D01*
X177656Y57763D01*
X178375Y57212D01*
X179212Y56865D01*
X180110Y56747D01*
X181009Y56865D01*
X181846Y57212D01*
X182564Y57763D01*
X183116Y58482D01*
X183463Y59319D01*
X183581Y60217D01*
X183463Y61116D01*
X183116Y61953D01*
X182564Y62671D01*
X181846Y63223D01*
X181009Y63570D01*
X180110Y63688D01*
D02*
G37*
G36*
X121065Y57540D02*
Y54825D01*
X123780D01*
X123734Y55178D01*
X123407Y55968D01*
X122886Y56646D01*
X122208Y57166D01*
X121418Y57494D01*
X121065Y57540D01*
D02*
G37*
G36*
X120077D02*
X119723Y57494D01*
X118934Y57166D01*
X118255Y56646D01*
X117735Y55968D01*
X117408Y55178D01*
X117361Y54825D01*
X120077D01*
Y57540D01*
D02*
G37*
G36*
X264430Y56888D02*
X261715D01*
Y54172D01*
X262068Y54219D01*
X262858Y54546D01*
X263536Y55067D01*
X264056Y55745D01*
X264383Y56534D01*
X264430Y56888D01*
D02*
G37*
G36*
X260726D02*
X258011D01*
X258058Y56534D01*
X258385Y55745D01*
X258905Y55067D01*
X259583Y54546D01*
X260373Y54219D01*
X260726Y54172D01*
Y56888D01*
D02*
G37*
G36*
X254677Y57006D02*
X250939D01*
Y52874D01*
X254677D01*
Y57006D01*
D02*
G37*
G36*
X84227Y58400D02*
X80445D01*
X76662D01*
Y56234D01*
X76830Y55390D01*
X77308Y54675D01*
X77959Y54240D01*
X78031Y54103D01*
X78046Y54052D01*
X78104Y53671D01*
X77676Y53114D01*
X77349Y52324D01*
X77302Y51970D01*
X83721D01*
X83675Y52324D01*
X83348Y53114D01*
X82902Y53694D01*
X82892Y53836D01*
X82925Y54069D01*
X83002Y54288D01*
X83581Y54675D01*
X84060Y55390D01*
X84227Y56234D01*
Y58400D01*
D02*
G37*
G36*
X100132Y62454D02*
X96978D01*
X96633Y62386D01*
X96341Y62190D01*
X96146Y61898D01*
X96077Y61553D01*
Y56234D01*
X96146Y55889D01*
X96341Y55597D01*
X96633Y55402D01*
X96978Y55333D01*
X97022D01*
Y54829D01*
X96647Y54268D01*
X96495Y53500D01*
X96647Y52732D01*
X97082Y52082D01*
X97733Y51647D01*
X98500Y51494D01*
X99268Y51647D01*
X99918Y52082D01*
X100353Y52732D01*
X100505Y53500D01*
X100353Y54268D01*
X100033Y54746D01*
Y55333D01*
X100132D01*
X100477Y55402D01*
X100769Y55597D01*
X100964Y55889D01*
X101033Y56234D01*
Y61553D01*
X100964Y61898D01*
X100769Y62190D01*
X100477Y62386D01*
X100132Y62454D01*
D02*
G37*
G36*
X66655Y63724D02*
X62622D01*
Y62445D01*
X57602D01*
Y55555D01*
X58819D01*
Y47698D01*
X57253D01*
Y41792D01*
X61498D01*
X61683Y41756D01*
X66048D01*
X81801Y26003D01*
X82082Y25582D01*
X82732Y25147D01*
X83346Y25025D01*
X86650Y21721D01*
Y20669D01*
X86150Y20423D01*
X85903Y20612D01*
X85233Y20890D01*
X84513Y20984D01*
X83794Y20890D01*
X83124Y20612D01*
X82548Y20170D01*
X82106Y19595D01*
X81828Y18924D01*
X81734Y18205D01*
Y17417D01*
X81828Y16698D01*
X82106Y16027D01*
X82548Y15452D01*
X83124Y15010D01*
X83794Y14732D01*
X84513Y14638D01*
X85233Y14732D01*
X85903Y15010D01*
X86179Y15221D01*
X86679Y14975D01*
Y13185D01*
X95635D01*
Y11906D01*
X97897D01*
Y16532D01*
X98886D01*
Y11906D01*
X101147D01*
Y14295D01*
X101647Y14688D01*
X102033Y14638D01*
X102752Y14732D01*
X103423Y15010D01*
X103999Y15452D01*
X104440Y16027D01*
X104718Y16698D01*
X104813Y17417D01*
Y18205D01*
X104718Y18924D01*
X104440Y19595D01*
X103999Y20170D01*
X103423Y20612D01*
X102752Y20890D01*
X102033Y20984D01*
X101647Y20934D01*
X101147Y21158D01*
D01*
X100785Y21240D01*
X100641Y21722D01*
X100741Y21799D01*
X101261Y22477D01*
X101588Y23267D01*
X101635Y23620D01*
X95216D01*
X95262Y23267D01*
X95589Y22477D01*
X96110Y21799D01*
X96294Y21657D01*
X96124Y21158D01*
X95635D01*
Y19878D01*
X89660D01*
Y22345D01*
X89546Y22921D01*
X89219Y23409D01*
X85475Y27154D01*
X85353Y27768D01*
X84918Y28418D01*
X84497Y28699D01*
X68186Y45010D01*
X67567Y45424D01*
X66838Y45569D01*
X63946D01*
Y47698D01*
X62632D01*
Y54276D01*
X65815D01*
X65914Y53776D01*
X65784Y53722D01*
X65106Y53201D01*
X64586Y52523D01*
X64258Y51733D01*
X64212Y51380D01*
X70631D01*
X70584Y51733D01*
X70257Y52523D01*
X69737Y53201D01*
X69059Y53722D01*
X68928Y53776D01*
X69028Y54276D01*
X71677D01*
Y58506D01*
X67150D01*
Y59000D01*
X66655D01*
Y63724D01*
D02*
G37*
G36*
X83721Y50982D02*
X81006D01*
Y48267D01*
X81359Y48314D01*
X82149Y48641D01*
X82827Y49161D01*
X83348Y49839D01*
X83675Y50629D01*
X83721Y50982D01*
D02*
G37*
G36*
X80018D02*
X77302D01*
X77349Y50629D01*
X77676Y49839D01*
X78196Y49161D01*
X78875Y48641D01*
X79664Y48314D01*
X80018Y48267D01*
Y50982D01*
D02*
G37*
G36*
X70631Y50392D02*
X67915D01*
Y47676D01*
X68269Y47723D01*
X69059Y48050D01*
X69737Y48570D01*
X70257Y49249D01*
X70584Y50038D01*
X70631Y50392D01*
D02*
G37*
G36*
X66927D02*
X64212D01*
X64258Y50038D01*
X64586Y49249D01*
X65106Y48570D01*
X65784Y48050D01*
X66574Y47723D01*
X66927Y47676D01*
Y50392D01*
D02*
G37*
G36*
X125156Y37390D02*
X121123D01*
Y33160D01*
X125156D01*
Y37390D01*
D02*
G37*
G36*
X244500Y44006D02*
X243733Y43853D01*
X243082Y43418D01*
X242647Y42768D01*
X242495Y42000D01*
X242647Y41232D01*
X243082Y40582D01*
X243195Y40506D01*
Y38131D01*
X241154D01*
Y32225D01*
X247847D01*
Y38131D01*
X245805D01*
Y40506D01*
X245918Y40582D01*
X246353Y41232D01*
X246505Y42000D01*
X246353Y42768D01*
X245918Y43418D01*
X245268Y43853D01*
X244500Y44006D01*
D02*
G37*
G36*
X53545Y32540D02*
Y29825D01*
X56261D01*
X56214Y30178D01*
X55887Y30968D01*
X55367Y31646D01*
X54688Y32166D01*
X53899Y32494D01*
X53545Y32540D01*
D02*
G37*
G36*
X210130Y42338D02*
X208741Y42201D01*
X207405Y41796D01*
X206174Y41138D01*
X205095Y40253D01*
X204209Y39173D01*
X203551Y37942D01*
X203146Y36606D01*
X203009Y35217D01*
X203146Y33828D01*
X203551Y32492D01*
X204209Y31261D01*
X205095Y30182D01*
X206174Y29296D01*
X207405Y28638D01*
X208741Y28233D01*
X210130Y28096D01*
X211519Y28233D01*
X212855Y28638D01*
X214086Y29296D01*
X215165Y30182D01*
X216051Y31261D01*
X216709Y32492D01*
X217114Y33828D01*
X217251Y35217D01*
X217114Y36606D01*
X216709Y37942D01*
X216051Y39173D01*
X215165Y40253D01*
X214086Y41138D01*
X212855Y41796D01*
X211519Y42201D01*
X210130Y42338D01*
D02*
G37*
G36*
X137847Y57508D02*
X131154D01*
Y51602D01*
X137847D01*
Y53050D01*
X142899D01*
X146495Y49454D01*
Y40500D01*
X146609Y39924D01*
X146936Y39436D01*
X168429Y17942D01*
X168315Y17792D01*
X167942Y16892D01*
X167815Y15926D01*
X167942Y14960D01*
X168315Y14060D01*
X168908Y13287D01*
X169681Y12693D01*
X170581Y12320D01*
X171547Y12193D01*
X172513Y12320D01*
X173414Y12693D01*
X174187Y13287D01*
X174780Y14060D01*
X175153Y14960D01*
X175280Y15926D01*
X175153Y16892D01*
X174780Y17792D01*
X174187Y18565D01*
X173414Y19159D01*
X172513Y19532D01*
X171547Y19659D01*
X171037Y19592D01*
X162560Y28069D01*
X162825Y28511D01*
X163741Y28233D01*
X165130Y28096D01*
X166519Y28233D01*
X167855Y28638D01*
X169086Y29296D01*
X170165Y30182D01*
X171051Y31261D01*
X171709Y32492D01*
X172114Y33828D01*
X172251Y35217D01*
X172114Y36606D01*
X171709Y37942D01*
X171051Y39173D01*
X170165Y40253D01*
X169086Y41138D01*
X167855Y41796D01*
X166519Y42201D01*
X165130Y42338D01*
X163741Y42201D01*
X162405Y41796D01*
X161174Y41138D01*
X160095Y40253D01*
X159209Y39173D01*
X158551Y37942D01*
X158146Y36606D01*
X158009Y35217D01*
X158146Y33828D01*
X158424Y32912D01*
X157982Y32647D01*
X149505Y41124D01*
Y50077D01*
X149391Y50654D01*
X149064Y51142D01*
X144587Y55620D01*
X144098Y55946D01*
X143522Y56060D01*
X137847D01*
Y57508D01*
D02*
G37*
G36*
X56261Y28837D02*
X53545D01*
Y26121D01*
X53899Y26168D01*
X54688Y26495D01*
X55367Y27015D01*
X55887Y27694D01*
X56214Y28483D01*
X56261Y28837D01*
D02*
G37*
G36*
X50677Y34224D02*
X46644D01*
Y29500D01*
Y24776D01*
X50677D01*
Y26430D01*
X51177Y26677D01*
X51414Y26495D01*
X52204Y26168D01*
X52557Y26121D01*
Y29331D01*
Y32540D01*
X52204Y32494D01*
X51414Y32166D01*
X51177Y31985D01*
X50677Y32231D01*
Y34224D01*
D02*
G37*
G36*
X247847Y31241D02*
X241154D01*
Y29794D01*
X216075D01*
X215499Y29679D01*
X215010Y29353D01*
X205040Y19382D01*
X204679Y19532D01*
X203713Y19659D01*
X202747Y19532D01*
X201846Y19159D01*
X201073Y18565D01*
X200480Y17792D01*
X200107Y16892D01*
X199980Y15926D01*
X200107Y14960D01*
X200480Y14060D01*
X201073Y13287D01*
X201846Y12693D01*
X202747Y12320D01*
X203713Y12193D01*
X204679Y12320D01*
X205579Y12693D01*
X206352Y13287D01*
X206945Y14060D01*
X207318Y14960D01*
X207445Y15926D01*
X207318Y16892D01*
X207169Y17253D01*
X216698Y26783D01*
X241154D01*
Y25335D01*
X247847D01*
Y31241D01*
D02*
G37*
G36*
X98919Y27324D02*
Y24608D01*
X101635D01*
X101588Y24962D01*
X101261Y25751D01*
X100741Y26430D01*
X100062Y26950D01*
X99273Y27277D01*
X98919Y27324D01*
D02*
G37*
G36*
X97931D02*
X97578Y27277D01*
X96788Y26950D01*
X96110Y26430D01*
X95589Y25751D01*
X95262Y24962D01*
X95216Y24608D01*
X97931D01*
Y27324D01*
D02*
G37*
G36*
X91077Y62454D02*
X87923D01*
X87578Y62386D01*
X87286Y62190D01*
X87091Y61898D01*
X87022Y61553D01*
Y56234D01*
X87091Y55889D01*
X87286Y55597D01*
X87578Y55402D01*
X87593Y55399D01*
Y49290D01*
X82003Y43699D01*
X81582Y43418D01*
X81147Y42768D01*
X80994Y42000D01*
X81147Y41232D01*
X81582Y40582D01*
X82232Y40147D01*
X83000Y39994D01*
X83767Y40147D01*
X84418Y40582D01*
X84699Y41003D01*
X90029Y46332D01*
X90473Y46036D01*
X91203Y45891D01*
X110981D01*
Y44239D01*
X112372D01*
Y41329D01*
X111081D01*
Y34439D01*
X112275D01*
Y30531D01*
X111081D01*
Y23838D01*
X116987D01*
Y30531D01*
X116088D01*
Y32665D01*
X116101Y33160D01*
X120134D01*
Y37884D01*
X120628D01*
Y38378D01*
X125156D01*
Y42501D01*
X125156Y42609D01*
X125156Y42609D01*
X125056Y42960D01*
X125056Y42960D01*
Y47190D01*
X120528D01*
Y48178D01*
X125056D01*
Y52409D01*
X123775D01*
X123496Y52909D01*
X123734Y53483D01*
X123780Y53837D01*
X117361D01*
X117408Y53483D01*
X117646Y52909D01*
X117367Y52409D01*
X116001D01*
Y51129D01*
X110981D01*
Y49704D01*
X91992D01*
X91407Y50290D01*
Y55399D01*
X91422Y55402D01*
X91714Y55597D01*
X91909Y55889D01*
X91978Y56234D01*
Y61553D01*
X91909Y61898D01*
X91714Y62190D01*
X91422Y62386D01*
X91077Y62454D01*
D02*
G37*
G36*
X61222Y21123D02*
Y18407D01*
X63938D01*
X63891Y18761D01*
X63564Y19551D01*
X63044Y20229D01*
X62366Y20749D01*
X61576Y21076D01*
X61222Y21123D01*
D02*
G37*
G36*
X60234D02*
X59881Y21076D01*
X59091Y20749D01*
X58413Y20229D01*
X57893Y19551D01*
X57565Y18761D01*
X57519Y18407D01*
X60234D01*
Y21123D01*
D02*
G37*
G36*
X63938Y17419D02*
X61222D01*
Y14704D01*
X61576Y14751D01*
X62366Y15078D01*
X63044Y15598D01*
X63564Y16276D01*
X63891Y17066D01*
X63938Y17419D01*
D02*
G37*
G36*
X60234D02*
X57519D01*
X57565Y17066D01*
X57893Y16276D01*
X58413Y15598D01*
X59091Y15078D01*
X59881Y14751D01*
X60234Y14704D01*
Y17419D01*
D02*
G37*
G36*
X213713Y19659D02*
X212747Y19532D01*
X211846Y19159D01*
X211073Y18565D01*
X210480Y17792D01*
X210107Y16892D01*
X209980Y15926D01*
X210107Y14960D01*
X210480Y14060D01*
X211073Y13287D01*
X211846Y12693D01*
X212747Y12320D01*
X213713Y12193D01*
X214679Y12320D01*
X215579Y12693D01*
X216352Y13287D01*
X216945Y14060D01*
X217318Y14960D01*
X217445Y15926D01*
X217318Y16892D01*
X216945Y17792D01*
X216352Y18565D01*
X215579Y19159D01*
X214679Y19532D01*
X213713Y19659D01*
D02*
G37*
G36*
X161547D02*
X160581Y19532D01*
X159681Y19159D01*
X158908Y18565D01*
X158315Y17792D01*
X157942Y16892D01*
X157815Y15926D01*
X157942Y14960D01*
X158315Y14060D01*
X158908Y13287D01*
X159681Y12693D01*
X160581Y12320D01*
X161547Y12193D01*
X162513Y12320D01*
X163414Y12693D01*
X164187Y13287D01*
X164780Y14060D01*
X165153Y14960D01*
X165280Y15926D01*
X165153Y16892D01*
X164780Y17792D01*
X164187Y18565D01*
X163414Y19159D01*
X162513Y19532D01*
X161547Y19659D01*
D02*
G37*
G36*
X121061Y13189D02*
X118012D01*
Y11125D01*
X117512Y10791D01*
X117155Y10938D01*
X116802Y10985D01*
Y7776D01*
Y4566D01*
X117155Y4613D01*
X117512Y4760D01*
X118012Y4426D01*
Y2559D01*
X121061D01*
Y7874D01*
Y13189D01*
D02*
G37*
G36*
X123876Y30531D02*
X117971D01*
Y23838D01*
X123876D01*
Y26695D01*
X129095D01*
Y25463D01*
X129209Y24887D01*
X129536Y24399D01*
X140522Y13412D01*
Y10072D01*
X139829Y9379D01*
X137205D01*
Y11909D01*
X132677D01*
Y9484D01*
X132404Y9076D01*
X132290Y8500D01*
X132404Y7924D01*
X132677Y7516D01*
Y3839D01*
X137205D01*
Y6369D01*
X140453D01*
X141029Y6483D01*
X141517Y6810D01*
X143092Y8384D01*
X143418Y8873D01*
X143533Y9449D01*
Y14035D01*
X143418Y14612D01*
X143092Y15100D01*
X132105Y26087D01*
Y26913D01*
X132453Y27433D01*
X132606Y28200D01*
X132453Y28967D01*
X132018Y29618D01*
X131368Y30053D01*
X130600Y30206D01*
X129832Y30053D01*
X129313Y29705D01*
X123876D01*
Y30531D01*
D02*
G37*
G36*
X64184Y13189D02*
X61135D01*
Y8368D01*
X64184D01*
Y13189D01*
D02*
G37*
G36*
X125098D02*
X122049D01*
Y8368D01*
X125098D01*
Y13189D01*
D02*
G37*
G36*
X60147D02*
X57098D01*
Y8368D01*
X60147D01*
Y13189D01*
D02*
G37*
G36*
X63946Y40808D02*
X57253D01*
Y34902D01*
X58695D01*
Y31631D01*
X58809Y31055D01*
X59136Y30566D01*
X67097Y22605D01*
Y16043D01*
X66339D01*
X66339Y11516D01*
X65879Y11417D01*
X65059D01*
Y8368D01*
X72146D01*
Y11417D01*
X71325D01*
X70866Y11516D01*
X70866Y11917D01*
Y16043D01*
X70108D01*
Y23228D01*
X69993Y23804D01*
X69667Y24293D01*
X61705Y32254D01*
Y34902D01*
X63946D01*
Y40808D01*
D02*
G37*
G36*
X128248Y10082D02*
X127403Y9914D01*
X126687Y9435D01*
X126208Y8719D01*
X126040Y7874D01*
X126208Y7029D01*
X126687Y6313D01*
X127403Y5834D01*
X128248Y5666D01*
X129093Y5834D01*
X129809Y6313D01*
X130288Y7029D01*
X130456Y7874D01*
X130288Y8719D01*
X129809Y9435D01*
X129093Y9914D01*
X128248Y10082D01*
D02*
G37*
G36*
X53948D02*
X53103Y9914D01*
X52387Y9435D01*
X51908Y8719D01*
X51740Y7874D01*
X51908Y7029D01*
X52387Y6313D01*
X53103Y5834D01*
X53948Y5666D01*
X54793Y5834D01*
X55509Y6313D01*
X55988Y7029D01*
X56156Y7874D01*
X55988Y8719D01*
X55509Y9435D01*
X54793Y9914D01*
X53948Y10082D01*
D02*
G37*
G36*
X72146Y7380D02*
X69096D01*
Y4331D01*
X72146D01*
Y7380D01*
D02*
G37*
G36*
X68108D02*
X65059D01*
Y4331D01*
X68108D01*
Y7380D01*
D02*
G37*
G36*
X39500Y40505D02*
X38732Y40353D01*
X38082Y39918D01*
X37647Y39268D01*
X37495Y38500D01*
X37647Y37732D01*
X37995Y37212D01*
Y32945D01*
X36602D01*
Y26055D01*
X38345D01*
Y9559D01*
X38460Y8983D01*
X38786Y8495D01*
X40373Y6908D01*
X40373Y6908D01*
X40861Y6582D01*
X41437Y6467D01*
X41437Y6467D01*
X44991D01*
Y3839D01*
X49519D01*
Y11909D01*
X44991D01*
Y9478D01*
X42061D01*
X41356Y10183D01*
Y24386D01*
X41622Y24776D01*
X45656D01*
Y29500D01*
Y34224D01*
X41622D01*
Y32945D01*
X41005D01*
Y37212D01*
X41353Y37732D01*
X41506Y38500D01*
X41353Y39268D01*
X40918Y39918D01*
X40268Y40353D01*
X39500Y40505D01*
D02*
G37*
G36*
X125098Y7380D02*
X122049D01*
Y2559D01*
X125098D01*
Y7380D01*
D02*
G37*
G36*
X64184D02*
X61135D01*
Y2559D01*
X64184D01*
Y7380D01*
D02*
G37*
G36*
X60147D02*
X57098D01*
Y2559D01*
X60147D01*
Y7380D01*
D02*
G37*
G36*
X222636Y141201D02*
X222282Y141155D01*
X221493Y140828D01*
X220814Y140307D01*
X220294Y139629D01*
X219967Y138840D01*
X219920Y138486D01*
X222636D01*
Y141201D01*
D02*
G37*
G36*
Y137498D02*
X219920D01*
X219967Y137145D01*
X220294Y136355D01*
X220814Y135677D01*
X221493Y135156D01*
X222282Y134829D01*
X222636Y134783D01*
Y137498D01*
D02*
G37*
G36*
X283660Y129489D02*
X283306Y129442D01*
X282516Y129115D01*
X281838Y128595D01*
X281318Y127917D01*
X280991Y127127D01*
X280944Y126774D01*
X283660D01*
Y129489D01*
D02*
G37*
%LPD*%
D10*
X258251Y151965D02*
X258263Y151953D01*
X263182D01*
D12*
X143405Y189200D02*
X182946D01*
X161980Y182622D02*
X163500Y181102D01*
X132425Y182622D02*
X161980D01*
X183600Y94400D02*
Y100400D01*
X183500Y100500D02*
X183600Y100400D01*
X196600Y94800D02*
Y100955D01*
X196500Y101055D02*
X196600Y100955D01*
X247057Y152756D02*
X252349D01*
X238347Y161467D02*
X247057Y152756D01*
X246364Y144208D02*
X249864D01*
X256000Y144400D02*
Y144668D01*
X257379Y146047D01*
X263182D01*
X260579Y144079D02*
X263182D01*
X255000Y138500D02*
X260579Y144079D01*
X249864Y144208D02*
X253672Y148016D01*
X256546D01*
X168137Y157437D02*
X169294D01*
X163500Y152800D02*
X168137Y157437D01*
X163500Y149445D02*
Y152800D01*
X179000Y149445D02*
Y152600D01*
X174163Y157437D02*
X179000Y152600D01*
X173163Y157437D02*
X174163D01*
X259100Y153900D02*
X263161D01*
X256500Y156500D02*
X259100Y153900D01*
X263161D02*
X263182Y153921D01*
X247864Y160764D02*
X252221Y156407D01*
X251529Y154737D02*
X252221Y155429D01*
X252000Y150100D02*
X252116Y149984D01*
X263182D01*
X252221Y155429D02*
Y156407D01*
X169294Y157437D02*
X169557Y157700D01*
X172900D02*
X173163Y157437D01*
X170238Y158753D02*
Y161595D01*
X172090Y163448D01*
X239167D02*
X247878Y154737D01*
X172090Y163448D02*
X239167D01*
X247878Y154737D02*
X251529D01*
X169557Y158072D02*
X170238Y158753D01*
X169557Y157700D02*
Y158072D01*
X256958Y153258D02*
X258251Y151965D01*
X252852Y153258D02*
X256958D01*
X172219Y160775D02*
X172911Y161467D01*
X252349Y152756D02*
X252852Y153258D01*
X172911Y161467D02*
X238347D01*
X172219Y158753D02*
X172900Y158072D01*
Y157700D02*
Y158072D01*
X172219Y158753D02*
Y160775D01*
X165500Y165500D02*
X254000D01*
X158692Y158692D02*
X165500Y165500D01*
X254000D02*
X256500Y163000D01*
X159400Y123000D02*
X238500D01*
X156800Y120400D02*
X159400Y123000D01*
X238500D02*
X242469Y126969D01*
X256500Y156500D02*
Y163000D01*
X299400Y162000D02*
X303555D01*
X287400Y150000D02*
X299400Y162000D01*
X278434Y150000D02*
X287400D01*
X293276Y148224D02*
X303028D01*
X293000Y148500D02*
X293276Y148224D01*
X280200Y213800D02*
X281000Y213000D01*
X129500Y212500D02*
X136000D01*
X137300Y213800D01*
X280200D01*
X178150Y199114D02*
X184835Y205800D01*
X151000Y207132D02*
X152013Y208144D01*
X264800Y209500D02*
X268600D01*
X268800Y209300D01*
X263444Y208144D02*
X264800Y209500D01*
X152013Y208144D02*
X263444D01*
X151000Y207000D02*
Y207132D01*
X192480Y203504D02*
X310624D01*
X140559Y207559D02*
X143800Y210800D01*
X251300D01*
X164100Y217200D02*
X167200D01*
X350910Y217200D02*
X352756Y215354D01*
X167200Y217200D02*
X350910Y217200D01*
X354431Y220000D02*
X356715Y217717D01*
X155500Y220000D02*
X354431D01*
X154500Y219000D02*
X155500Y220000D01*
X132484Y197563D02*
X160991D01*
X162328Y198900D01*
X162700D01*
X131890Y207559D02*
X140559D01*
X184835Y205800D02*
X344700D01*
X350500Y200000D01*
X310624Y203504D02*
X313128Y201000D01*
X187992Y199016D02*
X192480Y203504D01*
X275721Y156618D02*
X281500Y162397D01*
Y189000D01*
X313128Y201000D02*
X313500D01*
X129794Y192206D02*
X245206D01*
X245500Y192500D01*
X129500D02*
X129794Y192206D01*
X182946Y189200D02*
X183071Y189075D01*
X284500Y168000D02*
X287000Y170500D01*
X284500Y156984D02*
Y168000D01*
X281476Y153961D02*
X284500Y156984D01*
X287000Y170500D02*
X303000D01*
X303500Y171000D01*
X269816Y156618D02*
Y162684D01*
X261240Y171260D02*
X269816Y162684D01*
X252953Y171260D02*
X261240D01*
X271784Y156618D02*
Y165216D01*
X266500Y170500D02*
X271784Y165216D01*
X266500Y170500D02*
Y180850D01*
X243500Y174500D02*
X263000D01*
X265168Y162831D02*
X267847Y160153D01*
X265168Y162831D02*
Y162898D01*
X267847Y156618D02*
Y160153D01*
X259760Y168307D02*
X265168Y162898D01*
X164693Y168307D02*
X259760D01*
X242469Y126969D02*
X263779D01*
X269816Y133005D01*
X132425Y202622D02*
X132484Y202563D01*
X132425Y197622D02*
X132484Y197563D01*
Y202563D02*
X154535D01*
X163500Y169500D02*
X164693Y168307D01*
X259842Y132874D02*
X265879Y138910D01*
X183626Y132874D02*
X259842D01*
X179000Y137500D02*
X183626Y132874D01*
X265879Y138910D02*
Y141382D01*
X262078Y130905D02*
X267847Y136675D01*
X238906Y130905D02*
X262078D01*
X237000Y129000D02*
X238906Y130905D01*
X267847Y136675D02*
Y141382D01*
X269816Y133005D02*
Y141382D01*
X174193Y194882D02*
X178150Y198839D01*
X147638Y194882D02*
X174193D01*
X278457Y153961D02*
X281476D01*
X273753Y160453D02*
X274500Y161200D01*
Y180555D01*
X273753Y156618D02*
Y160453D01*
X278418Y153921D02*
X278457Y153961D01*
X278418Y149984D02*
X278434Y150000D01*
X278080Y138000D02*
X281000D01*
X269500Y127000D02*
X271784Y129284D01*
Y141382D01*
X178150Y198839D02*
Y199114D01*
X356715Y217717D02*
X357087D01*
X289000Y119000D02*
Y130000D01*
X281000Y138000D02*
X289000Y130000D01*
X313000Y134945D02*
Y137500D01*
X310500Y140000D02*
X313000Y137500D01*
X308500Y140000D02*
X310500D01*
X313000Y134945D02*
X313945Y134000D01*
X303252Y145248D02*
X308500Y140000D01*
X303252Y145248D02*
Y148449D01*
X289000Y119000D02*
X296500Y111500D01*
X309000D01*
X311500Y109000D01*
X240500Y177500D02*
X243500Y174500D01*
X131949Y177500D02*
X240500D01*
X269500Y118900D02*
Y127000D01*
X316201Y101899D02*
X317700Y100400D01*
X316201Y101899D02*
Y108500D01*
X317700Y94650D02*
Y100400D01*
X159445Y142555D02*
X163500D01*
X158692Y143308D02*
X159445Y142555D01*
X158692Y143308D02*
Y158692D01*
X316500Y181000D02*
X322445D01*
X322500Y181055D01*
X322992Y180563D02*
X329488D01*
X322500Y181055D02*
X322992Y180563D01*
X340512D02*
X350382D01*
X350500Y180445D01*
Y200000D01*
X131890Y177559D02*
X131949Y177500D01*
X134500Y61445D02*
Y69500D01*
X244500Y35178D02*
Y42000D01*
X316000Y95150D02*
X316201Y95350D01*
X311500Y109000D02*
X315701D01*
X316201Y108500D01*
X303028Y148224D02*
X303252Y148449D01*
X287500Y175500D02*
Y180555D01*
X258000Y180500D02*
X258350Y180850D01*
X266500D01*
X236945Y138500D02*
X255000D01*
D52*
X21500Y194500D02*
D03*
Y188201D02*
D03*
X37000Y194650D02*
D03*
Y188350D02*
D03*
X21500Y205850D02*
D03*
Y212150D02*
D03*
X322600Y123950D02*
D03*
Y117650D02*
D03*
X317700Y94650D02*
D03*
Y88350D02*
D03*
X154500Y93150D02*
D03*
Y86850D02*
D03*
X110000Y91150D02*
D03*
Y84850D02*
D03*
X120000Y92150D02*
D03*
Y85850D02*
D03*
X266500Y187150D02*
D03*
Y180850D02*
D03*
D53*
X24008Y174100D02*
D03*
X30898D02*
D03*
X23908Y164600D02*
D03*
X30798D02*
D03*
X23908Y155500D02*
D03*
X30798D02*
D03*
X243555Y70500D02*
D03*
X250445D02*
D03*
X243555Y57500D02*
D03*
X250445D02*
D03*
X313945Y134000D02*
D03*
X307055D02*
D03*
X303555Y162000D02*
D03*
X310445D02*
D03*
X303500Y171000D02*
D03*
X310390D02*
D03*
X230055Y138500D02*
D03*
X236945D02*
D03*
X114034Y27184D02*
D03*
X120924D02*
D03*
D54*
X60641Y7874D02*
D03*
X47255D02*
D03*
X134941D02*
D03*
X121555D02*
D03*
D55*
X68602Y7874D02*
D03*
Y13780D02*
D03*
D56*
X80445Y58894D02*
D03*
X89500D02*
D03*
X98555D02*
D03*
D57*
X89500Y83106D02*
D03*
D58*
X98626Y91000D02*
D03*
X89374D02*
D03*
D59*
X270800Y149000D02*
D03*
D60*
X265879Y156618D02*
D03*
X267847D02*
D03*
X269816D02*
D03*
X271784D02*
D03*
X273753D02*
D03*
X275721D02*
D03*
Y141382D02*
D03*
X273753D02*
D03*
X271784D02*
D03*
X269816D02*
D03*
X267847D02*
D03*
X265879D02*
D03*
D61*
X263182Y144079D02*
D03*
Y146047D02*
D03*
Y148016D02*
D03*
Y149984D02*
D03*
Y151953D02*
D03*
Y153921D02*
D03*
X278418D02*
D03*
Y151953D02*
D03*
Y149984D02*
D03*
Y148016D02*
D03*
Y146047D02*
D03*
Y144079D02*
D03*
D62*
X37000Y212445D02*
D03*
Y205555D02*
D03*
X350500Y180445D02*
D03*
Y173555D02*
D03*
X322500Y181055D02*
D03*
Y187945D02*
D03*
X244500Y28288D02*
D03*
Y35178D02*
D03*
X287500Y180555D02*
D03*
Y187445D02*
D03*
X274500D02*
D03*
Y180555D02*
D03*
X179000Y142555D02*
D03*
Y149445D02*
D03*
X163500Y142555D02*
D03*
Y149445D02*
D03*
X196500Y107945D02*
D03*
Y101055D02*
D03*
X134500Y54555D02*
D03*
Y61445D02*
D03*
X60600Y44745D02*
D03*
Y37855D02*
D03*
X183500Y107390D02*
D03*
Y100500D02*
D03*
X258000Y180500D02*
D03*
Y187390D02*
D03*
D63*
X114229Y47684D02*
D03*
X120528D02*
D03*
X114329Y37884D02*
D03*
X120628D02*
D03*
X337650Y196500D02*
D03*
X331350D02*
D03*
X316201Y108500D02*
D03*
X322500D02*
D03*
X60850Y59000D02*
D03*
X67150D02*
D03*
X46150Y29500D02*
D03*
X39850D02*
D03*
X263201Y118900D02*
D03*
X269500D02*
D03*
X283650Y119000D02*
D03*
X277350D02*
D03*
D64*
X292201Y99900D02*
D03*
X254799D02*
D03*
D65*
X303252Y148449D02*
D03*
Y154551D02*
D03*
X309748Y148449D02*
D03*
Y154551D02*
D03*
D66*
X329488Y180563D02*
D03*
Y184500D02*
D03*
Y188437D02*
D03*
X340512D02*
D03*
Y184500D02*
D03*
Y180563D02*
D03*
D67*
X335000Y184500D02*
D03*
D68*
X62571Y152500D02*
D03*
Y157500D02*
D03*
Y162500D02*
D03*
Y167500D02*
D03*
Y172500D02*
D03*
Y177500D02*
D03*
Y182500D02*
D03*
Y187500D02*
D03*
Y192500D02*
D03*
Y197500D02*
D03*
Y202500D02*
D03*
Y207500D02*
D03*
Y212500D02*
D03*
Y217500D02*
D03*
X129500Y152500D02*
D03*
Y157500D02*
D03*
Y162500D02*
D03*
Y167500D02*
D03*
Y172500D02*
D03*
Y177500D02*
D03*
Y182500D02*
D03*
Y187500D02*
D03*
Y192500D02*
D03*
Y197500D02*
D03*
Y202500D02*
D03*
Y207500D02*
D03*
Y212500D02*
D03*
Y217500D02*
D03*
D69*
X98535Y148563D02*
D03*
X103535D02*
D03*
X108535D02*
D03*
X113535D02*
D03*
X118535D02*
D03*
X93535D02*
D03*
X88535D02*
D03*
X83535D02*
D03*
X78535D02*
D03*
X73535D02*
D03*
D70*
X92429Y188925D02*
D03*
D71*
X95832Y16532D02*
D03*
X93273D02*
D03*
X98391D02*
D03*
X90714D02*
D03*
X88155D02*
D03*
D72*
X88746Y6000D02*
D03*
X97801D02*
D03*
D73*
X310417Y161634D02*
Y170972D01*
X244704Y199204D02*
X244908Y199408D01*
X23642Y217500D02*
X62571D01*
X21654Y219488D02*
X23642Y217500D01*
X125689Y85925D02*
X147125D01*
X153575D02*
X154500Y86850D01*
X147125Y85925D02*
X153575D01*
X111000Y85850D02*
X120000D01*
X110000Y84850D02*
X111000Y85850D01*
X244908Y199408D02*
X302592D01*
X133795Y8500D02*
X134941Y9646D01*
X302592Y199408D02*
X313500Y188500D01*
X120924Y27184D02*
X121939Y28200D01*
X130600Y25463D02*
Y28200D01*
Y25463D02*
X142028Y14035D01*
X121939Y28200D02*
X130600D01*
X54823Y182500D02*
X62571D01*
X73431Y148459D02*
X73535Y148563D01*
X73327Y139961D02*
X73431Y140065D01*
X62297Y182773D02*
X62571Y182500D01*
X132425Y152622D02*
X132455Y152593D01*
X62521Y177450D02*
X62571Y177500D01*
X151006Y152593D02*
X151035Y152563D01*
X53650Y177450D02*
X62521D01*
X62571Y217500D02*
X62581Y217510D01*
X73431Y140065D02*
Y148459D01*
X62581Y217510D02*
X70069D01*
X53600Y177400D02*
X53650Y177450D01*
X70069Y217510D02*
X70079Y217520D01*
X132455Y152593D02*
X151006D01*
X21500Y212150D02*
X21654Y212303D01*
Y219488D01*
X344955Y173555D02*
X350500D01*
X339800Y168400D02*
X344955Y173555D01*
X337800Y168400D02*
X339800D01*
X335200Y171000D02*
X337800Y168400D01*
X310390Y171000D02*
X335200D01*
X310445Y171055D02*
X311524Y172135D01*
X317000Y176000D02*
X338000D01*
X305555Y187445D02*
X317000Y176000D01*
X287500Y187445D02*
X305555D01*
X36740Y188091D02*
X37000Y188350D01*
X29724Y188091D02*
X36740D01*
X41437Y7972D02*
X47157D01*
X47255Y7874D01*
X39850Y9559D02*
X41437Y7972D01*
X39850Y9559D02*
Y29500D01*
X60641Y7874D02*
X68602D01*
X60641Y7874D02*
X60641Y7874D01*
X60200Y31631D02*
X68602Y23228D01*
Y13780D02*
Y23228D01*
X60200Y31631D02*
Y37455D01*
X142028Y9449D02*
Y14035D01*
X140453Y7874D02*
X142028Y9449D01*
X134941Y7874D02*
X140453D01*
X116308Y7776D02*
Y19027D01*
X113681Y21654D02*
X116308Y19027D01*
X108957Y21654D02*
X113681D01*
X106496Y24114D02*
X108957Y21654D01*
X98425Y24114D02*
X106496D01*
X116308Y7776D02*
X121457D01*
X121555Y7874D01*
X98391Y24080D02*
X98425Y24114D01*
X98391Y16532D02*
Y24080D01*
X83500Y27000D02*
X88155Y22345D01*
Y16532D02*
Y22345D01*
X283650Y119000D02*
X284154Y119504D01*
Y126279D01*
X370276Y204213D02*
X370472Y204016D01*
X370276Y204213D02*
Y212008D01*
X338098Y196949D02*
X344291D01*
X337650Y196500D02*
X338098Y196949D01*
X344124Y184843D02*
X344390D01*
X343782Y184500D02*
X344124Y184843D01*
X340512Y184500D02*
X343782D01*
X296949Y154232D02*
X297108Y154392D01*
X303093D01*
X303252Y154551D01*
X322441Y108559D02*
X322500Y108500D01*
X317618Y88269D02*
X317700Y88350D01*
X317618Y70374D02*
Y88269D01*
X250445Y70500D02*
X250571Y70374D01*
X261221D01*
X250563Y57382D02*
X261221D01*
X250445Y57500D02*
X250563Y57382D01*
X229547Y137992D02*
X230055Y138500D01*
X223130Y137992D02*
X229547D01*
X263100Y118799D02*
X263201Y118900D01*
X256693Y118799D02*
X263100D01*
X266500Y187150D02*
X267421Y188071D01*
Y196555D01*
X120000Y85850D02*
X120075Y85925D01*
X125689D01*
X109992Y84842D02*
X110000Y84850D01*
X103839Y84842D02*
X109992D01*
X120528Y47684D02*
X120571Y47727D01*
Y54331D01*
X350063Y153937D02*
X370394D01*
X370472Y154016D01*
X344000Y160000D02*
X350063Y153937D01*
X30898Y174100D02*
X30998Y174000D01*
X30798Y164600D02*
X42600D01*
X30798Y155500D02*
X30809Y155512D01*
X48653Y162559D02*
X64961D01*
X27845Y155500D02*
Y155894D01*
X41605Y155512D02*
X48653Y162559D01*
X30809Y155512D02*
X41605D01*
X51941Y172559D02*
X64961D01*
X30998Y174000D02*
X50500D01*
X51941Y172559D01*
X45559Y167559D02*
X64961D01*
X42600Y164600D02*
X45559Y167559D01*
X316370Y160130D02*
X318000Y158500D01*
X311921Y160130D02*
X316370D01*
X310417Y161634D02*
X311921Y160130D01*
X318000Y150500D02*
Y158500D01*
X316000Y148500D02*
X318000Y150500D01*
X309799Y148500D02*
X316000D01*
X309748Y148449D02*
X309799Y148500D01*
X310390Y171000D02*
X310417Y170972D01*
X310390Y171000D02*
X310445Y171055D01*
X313500Y188500D02*
X313688Y188312D01*
X322133D01*
X322500Y187945D01*
X310445Y176945D02*
X310500Y177000D01*
X310445Y171055D02*
Y176945D01*
X322500Y187945D02*
X323976Y186469D01*
X327126D01*
X329095Y184500D01*
X329488D01*
X338000Y176000D02*
X339500Y174500D01*
X267500Y111500D02*
X269500Y113500D01*
X258000Y111500D02*
X267500D01*
X269500Y113500D02*
Y118900D01*
X254799Y99900D02*
Y108299D01*
X258000Y111500D01*
X292201Y99900D02*
Y106799D01*
X287500Y111500D02*
X292201Y106799D01*
X279500Y111500D02*
X287500D01*
X277350Y113650D02*
X279500Y111500D01*
X277350Y113650D02*
Y119000D01*
X143522Y54555D02*
X148000Y50077D01*
Y40500D02*
Y50077D01*
Y40500D02*
X171547Y16953D01*
X134500Y54555D02*
X143522D01*
X216075Y28288D02*
X244500D01*
X203713Y15926D02*
X216075Y28288D01*
X171547Y15926D02*
Y16953D01*
X134941Y7874D02*
Y9646D01*
X39500Y29850D02*
Y38500D01*
Y29850D02*
X39850Y29500D01*
X60200Y37455D02*
X60600Y37855D01*
X98500Y53500D02*
X98528Y53528D01*
Y58866D01*
X98555Y58894D01*
D74*
X62571Y212593D02*
X65466D01*
X62415Y212437D02*
X62571Y212593D01*
X113716Y47797D02*
X114029Y47484D01*
X114181Y37837D02*
X114279Y37934D01*
X322441Y108559D02*
X322550Y108668D01*
X80478Y51443D02*
Y58860D01*
X60691Y7924D02*
Y21691D01*
X120528Y47684D02*
X120578Y47634D01*
Y37934D02*
Y47634D01*
Y37934D02*
X120628Y37884D01*
X71007Y47300D02*
X76335D01*
X80478Y51443D01*
X67421Y50886D02*
X71007Y47300D01*
X53051Y29331D02*
X60691Y21691D01*
X185711Y64721D02*
X190110Y60322D01*
X185711Y64721D02*
Y69616D01*
X163500Y142555D02*
X179000D01*
X157000Y107500D02*
X183390D01*
X183500Y107390D01*
X154500Y93150D02*
Y105000D01*
X157000Y107500D01*
X55000Y90900D02*
X55037Y90937D01*
X89311D01*
X89374Y91000D01*
X137900Y185500D02*
X196078D01*
X198373Y187795D01*
X138800Y105729D02*
Y131200D01*
X134646Y101575D02*
X138800Y105729D01*
X30709Y101575D02*
X134646D01*
X65466Y212593D02*
X65496Y212622D01*
X47100Y212400D02*
X47137Y212437D01*
X62415D01*
X47078Y212422D02*
X47100Y212400D01*
X37022Y212422D02*
X47078D01*
X37000Y212445D02*
X37022Y212422D01*
X29687Y188128D02*
X29724Y188091D01*
X21573Y188128D02*
X29687D01*
X21500Y188201D02*
X21573Y188128D01*
X80445Y58894D02*
X80478Y58860D01*
X67384Y50923D02*
X67421Y50886D01*
X67384Y50923D02*
Y58765D01*
X67150Y59000D02*
X67384Y58765D01*
X53014Y29368D02*
X53051Y29331D01*
X46282Y29368D02*
X53014D01*
X46150Y29500D02*
X46282Y29368D01*
X60641Y7874D02*
X60691Y7924D01*
X322600Y117650D02*
X323275Y118325D01*
X346725D01*
X347400Y119000D01*
X322550Y108668D02*
Y117600D01*
X322600Y117650D01*
X321800Y124750D02*
Y136003D01*
Y124750D02*
X322600Y123950D01*
X318652Y139152D02*
X321800Y136003D01*
X114279Y37934D02*
Y47634D01*
X114229Y47684D02*
X114279Y47634D01*
X91203Y47797D02*
X113716D01*
X198425Y187795D02*
X198462Y187758D01*
X257631D01*
X258000Y187390D01*
X198373Y187795D02*
X198425D01*
X22878Y207228D02*
X26665D01*
X30799Y211362D01*
X21500Y205850D02*
X22878Y207228D01*
X157138Y47225D02*
X187118D01*
X200110Y60217D02*
X200659Y60766D01*
Y65766D01*
X190110Y60217D02*
Y60322D01*
X200110Y60217D02*
X211713Y48615D01*
X187118Y47225D02*
X200110Y60217D01*
X211713Y48615D02*
X216732D01*
X200659Y65766D02*
X205110Y70217D01*
X216732Y48615D02*
X218122Y47225D01*
X185110Y70217D02*
X185711Y69616D01*
X369957Y173500D02*
X370472Y174016D01*
X12795Y101378D02*
Y201772D01*
X16874Y205850D01*
X21500D01*
X243555Y57500D02*
Y70500D01*
X218122Y47225D02*
X228397Y57500D01*
X243555D01*
X120000Y92150D02*
X120500Y92650D01*
X154000D01*
X154500Y93150D01*
X119500Y91650D02*
X120000Y92150D01*
X110500Y91650D02*
X119500D01*
X110000Y91150D02*
X110500Y91650D01*
X89500Y48500D02*
Y49500D01*
X83000Y42000D02*
X89500Y48500D01*
X309748Y148055D02*
X318652Y139152D01*
X109925Y91075D02*
X110000Y91150D01*
X98701Y91075D02*
X109925D01*
X21500Y194500D02*
Y205850D01*
X309748Y148055D02*
Y148449D01*
X331350Y196303D02*
Y196500D01*
X329972Y194925D02*
X331350Y196303D01*
X329874Y194925D02*
X329972D01*
X322894Y187945D02*
X329874Y194925D01*
X322500Y187945D02*
X322894D01*
X350555Y173500D02*
X369957D01*
X350500Y173555D02*
X350555Y173500D01*
X179000Y137500D02*
Y142555D01*
X183500Y107390D02*
Y112500D01*
X184055Y107945D02*
X196500D01*
X183500Y107390D02*
X184055Y107945D01*
X98626Y91000D02*
X98701Y91075D01*
X89374Y83232D02*
Y91000D01*
X30799Y211362D02*
X35917D01*
X89374Y83232D02*
X89500Y83106D01*
X114029Y47484D02*
X114229Y47684D01*
X89500Y49500D02*
X91203Y47797D01*
X89500Y49500D02*
Y58894D01*
X114181Y27332D02*
Y37837D01*
X114034Y27184D02*
X114181Y27332D01*
X60600Y44745D02*
X60725Y44870D01*
Y58875D01*
X60850Y59000D01*
X66838Y43662D02*
X83500Y27000D01*
X61683Y43662D02*
X66838D01*
X60600Y44745D02*
X61683Y43662D01*
D75*
X144300Y72500D02*
X147900Y76100D01*
X28300Y72500D02*
X144300D01*
X147900Y76100D02*
X271400D01*
X145100Y78800D02*
X302379D01*
X134900Y80800D02*
X300190D01*
X271400Y76100D02*
X273500Y74000D01*
X23908Y153851D02*
Y155500D01*
X132600Y78500D02*
X134900Y80800D01*
X304990Y85600D02*
X311700D01*
X300190Y80800D02*
X304990Y85600D01*
X302379Y78800D02*
X304079Y80500D01*
X141900Y75600D02*
X145100Y78800D01*
X304079Y80500D02*
X304500D01*
X295000Y134500D02*
X306555D01*
X307055Y134000D01*
X283032Y151953D02*
X286879Y155800D01*
X288400D01*
X281295Y144091D02*
X281299Y144095D01*
X278430Y144091D02*
X281295D01*
X278418Y144079D02*
X278430Y144091D01*
X31300Y75600D02*
X141900D01*
X17717Y89183D02*
X31300Y75600D01*
X17717Y89183D02*
Y161417D01*
X15748Y85052D02*
X28300Y72500D01*
X15748Y85052D02*
Y169291D01*
X273500Y74000D02*
X308500D01*
X291535Y134195D02*
Y136505D01*
Y134195D02*
X301953Y123778D01*
Y121047D02*
Y123778D01*
Y121047D02*
X302000Y121000D01*
X33705Y78500D02*
X132600D01*
X19685Y92520D02*
X33705Y78500D01*
X278418Y151953D02*
X283032D01*
X278418Y146047D02*
X281993D01*
X273765Y138235D02*
X277500Y134500D01*
X273765Y138235D02*
Y141370D01*
X273753Y141382D02*
X273765Y141370D01*
X277500Y134500D02*
X279500D01*
X287331Y135659D02*
X291000Y131990D01*
X287331Y135659D02*
Y138063D01*
X281299Y144095D02*
X287331Y138063D01*
X281993Y146047D02*
X291535Y136505D01*
X291000Y120500D02*
Y131990D01*
X15748Y169291D02*
X20557Y174100D01*
X17717Y161417D02*
X20899Y164600D01*
X19685Y153543D02*
X20842Y154700D01*
X19685Y92520D02*
Y153543D01*
X20557Y174100D02*
X24008D01*
X20899Y164600D02*
X23908D01*
X20842Y154700D02*
X23108D01*
X23908Y155500D01*
X291000Y120500D02*
X296500Y115000D01*
X301000D01*
X277350Y119000D02*
X277500Y119150D01*
Y134500D01*
D76*
X256546Y148016D02*
X263182D01*
D77*
X288500Y148000D02*
X293500Y143000D01*
X278434Y148000D02*
X288500D01*
X293500Y143000D02*
X298500D01*
X287500Y187445D02*
Y192000D01*
X285500Y194000D02*
X287500Y192000D01*
X274500Y194000D02*
X285500D01*
X274500Y187445D02*
Y194000D01*
X278418Y148016D02*
X278434Y148000D01*
X318652Y139152D02*
Y144848D01*
X318500Y145000D02*
X318652Y144848D01*
D78*
X62571Y207622D02*
X71122D01*
X85941Y222441D02*
X357874D01*
X71122Y207622D02*
X85941Y222441D01*
X357874D02*
X363000Y217315D01*
Y179000D02*
Y217315D01*
X37150Y194500D02*
X44000D01*
X37000Y194650D02*
X37150Y194500D01*
X37000Y194650D02*
Y205555D01*
X53055D02*
X55059Y207559D01*
X62035D01*
X37000Y205555D02*
X53055D01*
D79*
X264313Y160687D02*
X265849Y159151D01*
X262712Y160687D02*
X264313D01*
X260899Y162500D02*
X262712Y160687D01*
X260500Y162500D02*
X260899D01*
X265849Y156648D02*
Y159151D01*
Y156648D02*
X265879Y156618D01*
D80*
X78618Y138082D02*
X78700Y138000D01*
X78618Y138082D02*
Y148481D01*
X78535Y148563D02*
X78618Y148481D01*
X113668Y137532D02*
X113800Y137400D01*
X113668Y137532D02*
Y148431D01*
X113535Y148563D02*
X113668Y148431D01*
X118300Y158200D02*
X118525Y157975D01*
X129025D01*
X129500Y157500D01*
X62571Y152500D02*
X68900D01*
X73600Y157200D01*
D81*
X278001Y138000D02*
X278080D01*
X275721Y140279D02*
X278001Y138000D01*
X275721Y140279D02*
Y141382D01*
D82*
X106610Y6000D02*
D03*
D83*
X79937Y6000D02*
D03*
D84*
X53948Y7874D02*
D03*
X128248D02*
D03*
D85*
X370472Y154016D02*
D03*
Y164016D02*
D03*
Y174016D02*
D03*
Y184016D02*
D03*
Y194016D02*
D03*
D86*
Y204016D02*
D03*
D87*
X165130Y35217D02*
D03*
X210130D02*
D03*
D88*
X218122Y47225D02*
D03*
X157138D02*
D03*
D89*
X203713Y15926D02*
D03*
X213713D02*
D03*
X171547D02*
D03*
X161547D02*
D03*
X198130Y199114D02*
D03*
X187992Y199016D02*
D03*
X178150Y199114D02*
D03*
X208261Y199021D02*
D03*
D90*
X205110Y70217D02*
D03*
X200110Y60217D02*
D03*
X190110D02*
D03*
X185110Y70217D02*
D03*
X180110Y60217D02*
D03*
X175110Y70217D02*
D03*
X195110D02*
D03*
D91*
X170110Y60217D02*
D03*
D92*
X347400Y119000D02*
D03*
X39200Y118900D02*
D03*
D93*
X84513Y17811D02*
D03*
X102033D02*
D03*
D94*
X109710Y6000D02*
D03*
X76836D02*
D03*
D95*
X143405Y189200D02*
D03*
X183600Y94400D02*
D03*
X196600Y94800D02*
D03*
X147125Y85925D02*
D03*
X256000Y144400D02*
D03*
X245100Y144500D02*
D03*
X247864Y160764D02*
D03*
X252000Y150100D02*
D03*
X169557Y157700D02*
D03*
X172900D02*
D03*
X295000Y134500D02*
D03*
X288400Y155800D02*
D03*
X293000Y148500D02*
D03*
X268800Y209300D02*
D03*
X251300Y210800D02*
D03*
X164100Y217200D02*
D03*
X162700Y198900D02*
D03*
X363000Y179000D02*
D03*
X281500Y189000D02*
D03*
X281000Y213000D02*
D03*
X313500Y201000D02*
D03*
X244704Y199204D02*
D03*
X274500Y194000D02*
D03*
X287000Y170500D02*
D03*
X263000Y174500D02*
D03*
X260500Y162500D02*
D03*
X130600Y28200D02*
D03*
X78700Y138000D02*
D03*
X113800Y137400D02*
D03*
X118300Y158200D02*
D03*
X73600Y157200D02*
D03*
X156800Y120400D02*
D03*
X137900Y185500D02*
D03*
X138800Y131200D02*
D03*
X54823Y182500D02*
D03*
X163500Y181102D02*
D03*
X154535Y202563D02*
D03*
X53600Y177400D02*
D03*
X70079Y217520D02*
D03*
X73327Y139961D02*
D03*
X151035Y152563D02*
D03*
X47100Y212400D02*
D03*
X252953Y171260D02*
D03*
X21654Y219488D02*
D03*
X147638Y194882D02*
D03*
X311700Y85600D02*
D03*
X298500Y143000D02*
D03*
X279500Y134500D02*
D03*
X29724Y188091D02*
D03*
X55000Y90900D02*
D03*
X67421Y50886D02*
D03*
X80512Y51476D02*
D03*
X53051Y29331D02*
D03*
X98425Y24114D02*
D03*
X183071Y189075D02*
D03*
X198425Y187795D02*
D03*
X219193Y199311D02*
D03*
X284154Y126279D02*
D03*
X256693Y118799D02*
D03*
X267421Y196555D02*
D03*
X103839Y84842D02*
D03*
X223130Y137992D02*
D03*
X296949Y154232D02*
D03*
X344390Y184843D02*
D03*
X344291Y196949D02*
D03*
X370276Y212008D02*
D03*
X317618Y70374D02*
D03*
X261221D02*
D03*
Y57382D02*
D03*
X116308Y7776D02*
D03*
X120571Y54331D02*
D03*
X125689Y85925D02*
D03*
X92421Y217028D02*
D03*
X60728Y17913D02*
D03*
X357087Y217717D02*
D03*
X352756Y215354D02*
D03*
X12795Y101378D02*
D03*
X30709Y101575D02*
D03*
X344000Y160000D02*
D03*
X302000Y121000D02*
D03*
X301000Y115000D02*
D03*
X83000Y42000D02*
D03*
X151000Y207000D02*
D03*
X318500Y145000D02*
D03*
X308500Y74000D02*
D03*
X304500Y80500D02*
D03*
X313500Y188500D02*
D03*
X310500Y177000D02*
D03*
X316500Y181000D02*
D03*
X339500Y174500D02*
D03*
X154500Y219000D02*
D03*
X163500Y169500D02*
D03*
X245500Y192500D02*
D03*
X134500Y69500D02*
D03*
X244500Y42000D02*
D03*
X237000Y129000D02*
D03*
X179000Y137500D02*
D03*
X183500Y112500D02*
D03*
X287500Y175500D02*
D03*
X44000Y194500D02*
D03*
X39500Y38500D02*
D03*
X98500Y53500D02*
D03*
X83500Y27000D02*
D03*
M02*
