G04*
G04 #@! TF.GenerationSoftware,Altium Limited,Altium Designer,19.1.5 (86)*
G04*
G04 Layer_Color=16711935*
%FSLAX25Y25*%
%MOIN*%
G70*
G01*
G75*
%ADD13C,0.00787*%
G36*
X52825Y7179D02*
X52862D01*
X52904Y7175D01*
X52954Y7170D01*
X53058Y7154D01*
X53166Y7137D01*
X53274Y7108D01*
X53378Y7071D01*
X53382D01*
X53391Y7066D01*
X53403Y7058D01*
X53420Y7050D01*
X53470Y7025D01*
X53528Y6987D01*
X53594Y6937D01*
X53665Y6879D01*
X53732Y6808D01*
X53794Y6729D01*
Y6725D01*
X53803Y6717D01*
X53807Y6705D01*
X53819Y6688D01*
X53827Y6667D01*
X53840Y6642D01*
X53869Y6580D01*
X53898Y6501D01*
X53923Y6413D01*
X53940Y6313D01*
X53948Y6209D01*
X53590Y6176D01*
Y6180D01*
Y6185D01*
X53586Y6197D01*
Y6214D01*
X53578Y6251D01*
X53565Y6305D01*
X53549Y6359D01*
X53532Y6422D01*
X53503Y6480D01*
X53474Y6534D01*
X53470Y6538D01*
X53457Y6555D01*
X53436Y6584D01*
X53403Y6613D01*
X53361Y6650D01*
X53316Y6688D01*
X53253Y6725D01*
X53187Y6758D01*
X53183D01*
X53179Y6763D01*
X53166Y6767D01*
X53154Y6771D01*
X53112Y6784D01*
X53058Y6800D01*
X52991Y6817D01*
X52916Y6829D01*
X52833Y6838D01*
X52742Y6842D01*
X52704D01*
X52663Y6838D01*
X52613Y6833D01*
X52555Y6825D01*
X52488Y6817D01*
X52421Y6800D01*
X52359Y6779D01*
X52351Y6775D01*
X52330Y6767D01*
X52301Y6750D01*
X52263Y6734D01*
X52226Y6705D01*
X52184Y6675D01*
X52143Y6642D01*
X52109Y6600D01*
X52105Y6596D01*
X52097Y6580D01*
X52084Y6559D01*
X52068Y6526D01*
X52051Y6492D01*
X52039Y6451D01*
X52030Y6405D01*
X52026Y6355D01*
Y6351D01*
Y6330D01*
X52030Y6305D01*
X52034Y6272D01*
X52047Y6239D01*
X52059Y6197D01*
X52080Y6155D01*
X52109Y6118D01*
X52113Y6114D01*
X52126Y6101D01*
X52143Y6085D01*
X52172Y6060D01*
X52205Y6035D01*
X52251Y6006D01*
X52305Y5976D01*
X52367Y5951D01*
X52371Y5947D01*
X52392Y5943D01*
X52425Y5931D01*
X52446Y5927D01*
X52475Y5918D01*
X52505Y5906D01*
X52542Y5897D01*
X52584Y5885D01*
X52634Y5872D01*
X52683Y5860D01*
X52742Y5843D01*
X52808Y5827D01*
X52879Y5810D01*
X52883D01*
X52896Y5806D01*
X52916Y5802D01*
X52941Y5793D01*
X52975Y5785D01*
X53012Y5777D01*
X53095Y5752D01*
X53187Y5723D01*
X53282Y5694D01*
X53366Y5664D01*
X53403Y5648D01*
X53436Y5631D01*
X53441D01*
X53445Y5627D01*
X53470Y5610D01*
X53507Y5590D01*
X53549Y5556D01*
X53599Y5519D01*
X53649Y5473D01*
X53698Y5419D01*
X53740Y5361D01*
X53744Y5353D01*
X53757Y5332D01*
X53773Y5298D01*
X53790Y5257D01*
X53807Y5203D01*
X53823Y5140D01*
X53836Y5074D01*
X53840Y5003D01*
Y4999D01*
Y4995D01*
Y4982D01*
Y4966D01*
X53832Y4924D01*
X53823Y4870D01*
X53811Y4808D01*
X53790Y4737D01*
X53761Y4666D01*
X53719Y4595D01*
Y4591D01*
X53715Y4587D01*
X53694Y4562D01*
X53665Y4529D01*
X53628Y4487D01*
X53578Y4441D01*
X53515Y4391D01*
X53441Y4346D01*
X53357Y4304D01*
X53353D01*
X53345Y4300D01*
X53332Y4296D01*
X53316Y4287D01*
X53295Y4279D01*
X53266Y4271D01*
X53203Y4254D01*
X53124Y4238D01*
X53033Y4221D01*
X52937Y4208D01*
X52829Y4204D01*
X52775D01*
X52746Y4208D01*
X52717D01*
X52638Y4217D01*
X52550Y4229D01*
X52459Y4250D01*
X52359Y4275D01*
X52267Y4308D01*
X52263D01*
X52255Y4312D01*
X52242Y4321D01*
X52226Y4329D01*
X52184Y4350D01*
X52130Y4387D01*
X52068Y4429D01*
X52005Y4483D01*
X51947Y4545D01*
X51893Y4616D01*
Y4620D01*
X51889Y4625D01*
X51881Y4637D01*
X51872Y4649D01*
X51851Y4691D01*
X51827Y4745D01*
X51797Y4812D01*
X51777Y4891D01*
X51756Y4974D01*
X51747Y5065D01*
X52113Y5095D01*
Y5090D01*
Y5082D01*
X52118Y5070D01*
X52122Y5049D01*
X52134Y5003D01*
X52151Y4941D01*
X52176Y4874D01*
X52213Y4808D01*
X52259Y4745D01*
X52317Y4687D01*
X52326Y4683D01*
X52346Y4666D01*
X52388Y4641D01*
X52442Y4616D01*
X52513Y4591D01*
X52596Y4566D01*
X52700Y4550D01*
X52817Y4545D01*
X52875D01*
X52900Y4550D01*
X52933Y4554D01*
X53008Y4562D01*
X53091Y4579D01*
X53174Y4600D01*
X53253Y4633D01*
X53287Y4654D01*
X53320Y4674D01*
X53328Y4679D01*
X53345Y4695D01*
X53370Y4724D01*
X53395Y4758D01*
X53424Y4803D01*
X53449Y4853D01*
X53465Y4911D01*
X53474Y4978D01*
Y4986D01*
Y5003D01*
X53470Y5032D01*
X53461Y5065D01*
X53449Y5107D01*
X53428Y5149D01*
X53403Y5190D01*
X53366Y5232D01*
X53361Y5236D01*
X53341Y5249D01*
X53324Y5261D01*
X53307Y5269D01*
X53282Y5282D01*
X53253Y5298D01*
X53216Y5311D01*
X53174Y5328D01*
X53129Y5344D01*
X53075Y5365D01*
X53016Y5382D01*
X52950Y5402D01*
X52875Y5419D01*
X52792Y5440D01*
X52787D01*
X52771Y5444D01*
X52746Y5448D01*
X52717Y5457D01*
X52679Y5465D01*
X52634Y5477D01*
X52588Y5490D01*
X52538Y5502D01*
X52430Y5531D01*
X52326Y5561D01*
X52276Y5577D01*
X52230Y5594D01*
X52188Y5606D01*
X52155Y5623D01*
X52151D01*
X52143Y5627D01*
X52130Y5635D01*
X52113Y5644D01*
X52068Y5669D01*
X52014Y5702D01*
X51951Y5748D01*
X51889Y5798D01*
X51831Y5856D01*
X51781Y5918D01*
X51777Y5927D01*
X51760Y5947D01*
X51743Y5985D01*
X51718Y6035D01*
X51697Y6093D01*
X51677Y6164D01*
X51664Y6243D01*
X51660Y6326D01*
Y6330D01*
Y6334D01*
Y6347D01*
Y6363D01*
X51668Y6409D01*
X51677Y6467D01*
X51693Y6534D01*
X51714Y6605D01*
X51747Y6679D01*
X51793Y6758D01*
Y6763D01*
X51797Y6767D01*
X51818Y6792D01*
X51847Y6829D01*
X51889Y6871D01*
X51943Y6921D01*
X52009Y6975D01*
X52084Y7025D01*
X52172Y7071D01*
X52176D01*
X52184Y7075D01*
X52197Y7079D01*
X52213Y7087D01*
X52238Y7096D01*
X52267Y7108D01*
X52334Y7125D01*
X52413Y7145D01*
X52509Y7166D01*
X52613Y7179D01*
X52725Y7183D01*
X52792D01*
X52825Y7179D01*
D02*
G37*
G36*
X51402Y4254D02*
X51007D01*
X50578Y6143D01*
Y6147D01*
X50574Y6155D01*
X50570Y6172D01*
X50566Y6193D01*
X50562Y6222D01*
X50554Y6251D01*
X50545Y6289D01*
X50537Y6330D01*
X50516Y6417D01*
X50495Y6517D01*
X50475Y6625D01*
X50454Y6734D01*
Y6729D01*
X50450Y6713D01*
X50441Y6692D01*
X50437Y6659D01*
X50429Y6625D01*
X50416Y6584D01*
X50395Y6492D01*
X50371Y6401D01*
X50362Y6355D01*
X50350Y6313D01*
X50341Y6276D01*
X50333Y6243D01*
X50325Y6218D01*
X50321Y6201D01*
X49776Y4254D01*
X49314D01*
X48906Y5714D01*
Y5719D01*
X48898Y5739D01*
X48889Y5768D01*
X48881Y5806D01*
X48869Y5856D01*
X48852Y5910D01*
X48835Y5972D01*
X48819Y6043D01*
X48798Y6122D01*
X48781Y6201D01*
X48744Y6372D01*
X48706Y6550D01*
X48677Y6734D01*
Y6729D01*
X48673Y6721D01*
Y6705D01*
X48665Y6684D01*
X48661Y6659D01*
X48652Y6630D01*
X48648Y6592D01*
X48636Y6550D01*
X48615Y6459D01*
X48590Y6351D01*
X48565Y6234D01*
X48532Y6105D01*
X48083Y4254D01*
X47696D01*
X48486Y7133D01*
X48860D01*
X49464Y4941D01*
Y4936D01*
X49468Y4928D01*
X49472Y4916D01*
X49476Y4895D01*
X49489Y4849D01*
X49501Y4795D01*
X49518Y4737D01*
X49534Y4683D01*
X49547Y4637D01*
X49551Y4616D01*
X49555Y4604D01*
Y4608D01*
X49559Y4612D01*
X49563Y4637D01*
X49572Y4674D01*
X49584Y4720D01*
X49597Y4770D01*
X49613Y4828D01*
X49626Y4887D01*
X49643Y4941D01*
X50250Y7133D01*
X50649D01*
X51402Y4254D01*
D02*
G37*
G36*
X46506Y4882D02*
X46510Y4887D01*
X46531Y4903D01*
X46556Y4928D01*
X46597Y4957D01*
X46643Y4995D01*
X46701Y5036D01*
X46768Y5082D01*
X46843Y5128D01*
X46847D01*
X46851Y5132D01*
X46876Y5149D01*
X46918Y5169D01*
X46968Y5194D01*
X47026Y5223D01*
X47088Y5253D01*
X47151Y5282D01*
X47213Y5307D01*
Y4966D01*
X47209D01*
X47201Y4957D01*
X47184Y4953D01*
X47163Y4941D01*
X47138Y4928D01*
X47109Y4911D01*
X47038Y4870D01*
X46955Y4824D01*
X46872Y4766D01*
X46785Y4699D01*
X46697Y4629D01*
X46693Y4625D01*
X46689Y4620D01*
X46676Y4608D01*
X46660Y4595D01*
X46622Y4554D01*
X46572Y4504D01*
X46523Y4446D01*
X46468Y4379D01*
X46423Y4312D01*
X46381Y4242D01*
X46152D01*
Y7133D01*
X46506D01*
Y4882D01*
D02*
G37*
G36*
X129450Y11540D02*
X129479D01*
X129558Y11531D01*
X129646Y11519D01*
X129737Y11498D01*
X129837Y11473D01*
X129929Y11440D01*
X129933D01*
X129941Y11436D01*
X129954Y11427D01*
X129970Y11419D01*
X130012Y11398D01*
X130066Y11361D01*
X130128Y11319D01*
X130191Y11265D01*
X130249Y11203D01*
X130303Y11132D01*
Y11128D01*
X130307Y11124D01*
X130315Y11111D01*
X130324Y11099D01*
X130345Y11057D01*
X130370Y11003D01*
X130399Y10936D01*
X130420Y10857D01*
X130440Y10774D01*
X130449Y10683D01*
X130082Y10654D01*
Y10658D01*
Y10666D01*
X130078Y10678D01*
X130074Y10699D01*
X130062Y10745D01*
X130045Y10807D01*
X130020Y10874D01*
X129983Y10941D01*
X129937Y11003D01*
X129879Y11061D01*
X129870Y11065D01*
X129850Y11082D01*
X129808Y11107D01*
X129754Y11132D01*
X129683Y11157D01*
X129600Y11182D01*
X129496Y11198D01*
X129379Y11203D01*
X129321D01*
X129296Y11198D01*
X129263Y11194D01*
X129188Y11186D01*
X129105Y11169D01*
X129022Y11148D01*
X128943Y11115D01*
X128909Y11095D01*
X128876Y11074D01*
X128868Y11069D01*
X128851Y11053D01*
X128826Y11024D01*
X128801Y10990D01*
X128772Y10945D01*
X128747Y10895D01*
X128730Y10836D01*
X128722Y10770D01*
Y10762D01*
Y10745D01*
X128726Y10716D01*
X128735Y10683D01*
X128747Y10641D01*
X128768Y10599D01*
X128793Y10558D01*
X128830Y10516D01*
X128834Y10512D01*
X128855Y10500D01*
X128872Y10487D01*
X128889Y10479D01*
X128914Y10466D01*
X128943Y10450D01*
X128980Y10437D01*
X129022Y10420D01*
X129068Y10404D01*
X129122Y10383D01*
X129180Y10367D01*
X129246Y10346D01*
X129321Y10329D01*
X129404Y10308D01*
X129409D01*
X129425Y10304D01*
X129450Y10300D01*
X129479Y10292D01*
X129517Y10283D01*
X129562Y10271D01*
X129608Y10258D01*
X129658Y10246D01*
X129766Y10217D01*
X129870Y10188D01*
X129920Y10171D01*
X129966Y10154D01*
X130008Y10142D01*
X130041Y10125D01*
X130045D01*
X130053Y10121D01*
X130066Y10113D01*
X130082Y10104D01*
X130128Y10079D01*
X130182Y10046D01*
X130245Y10000D01*
X130307Y9950D01*
X130365Y9892D01*
X130415Y9830D01*
X130420Y9821D01*
X130436Y9801D01*
X130453Y9763D01*
X130478Y9713D01*
X130499Y9655D01*
X130519Y9584D01*
X130532Y9505D01*
X130536Y9422D01*
Y9418D01*
Y9414D01*
Y9401D01*
Y9385D01*
X130528Y9339D01*
X130519Y9281D01*
X130503Y9214D01*
X130482Y9143D01*
X130449Y9069D01*
X130403Y8990D01*
Y8985D01*
X130399Y8981D01*
X130378Y8956D01*
X130349Y8919D01*
X130307Y8877D01*
X130253Y8827D01*
X130186Y8773D01*
X130112Y8723D01*
X130024Y8677D01*
X130020D01*
X130012Y8673D01*
X129999Y8669D01*
X129983Y8661D01*
X129958Y8653D01*
X129929Y8640D01*
X129862Y8623D01*
X129783Y8603D01*
X129687Y8582D01*
X129583Y8569D01*
X129471Y8565D01*
X129404D01*
X129371Y8569D01*
X129334D01*
X129292Y8574D01*
X129242Y8578D01*
X129138Y8594D01*
X129030Y8611D01*
X128922Y8640D01*
X128818Y8677D01*
X128814D01*
X128805Y8682D01*
X128793Y8690D01*
X128776Y8698D01*
X128726Y8723D01*
X128668Y8761D01*
X128602Y8811D01*
X128531Y8869D01*
X128464Y8940D01*
X128402Y9019D01*
Y9023D01*
X128394Y9031D01*
X128389Y9044D01*
X128377Y9060D01*
X128369Y9081D01*
X128356Y9106D01*
X128327Y9168D01*
X128298Y9247D01*
X128273Y9335D01*
X128256Y9435D01*
X128248Y9539D01*
X128606Y9572D01*
Y9568D01*
Y9564D01*
X128610Y9551D01*
Y9534D01*
X128618Y9497D01*
X128631Y9443D01*
X128647Y9389D01*
X128664Y9326D01*
X128693Y9268D01*
X128722Y9214D01*
X128726Y9210D01*
X128739Y9193D01*
X128760Y9164D01*
X128793Y9135D01*
X128834Y9098D01*
X128880Y9060D01*
X128943Y9023D01*
X129009Y8990D01*
X129013D01*
X129018Y8985D01*
X129030Y8981D01*
X129042Y8977D01*
X129084Y8964D01*
X129138Y8948D01*
X129205Y8931D01*
X129280Y8919D01*
X129363Y8911D01*
X129454Y8906D01*
X129492D01*
X129533Y8911D01*
X129583Y8915D01*
X129642Y8923D01*
X129708Y8931D01*
X129775Y8948D01*
X129837Y8969D01*
X129845Y8973D01*
X129866Y8981D01*
X129895Y8998D01*
X129933Y9014D01*
X129970Y9044D01*
X130012Y9073D01*
X130053Y9106D01*
X130087Y9148D01*
X130091Y9152D01*
X130099Y9168D01*
X130112Y9189D01*
X130128Y9223D01*
X130145Y9256D01*
X130157Y9297D01*
X130166Y9343D01*
X130170Y9393D01*
Y9397D01*
Y9418D01*
X130166Y9443D01*
X130162Y9476D01*
X130149Y9510D01*
X130137Y9551D01*
X130116Y9593D01*
X130087Y9630D01*
X130082Y9634D01*
X130070Y9647D01*
X130053Y9663D01*
X130024Y9688D01*
X129991Y9713D01*
X129945Y9742D01*
X129891Y9772D01*
X129829Y9797D01*
X129825Y9801D01*
X129804Y9805D01*
X129771Y9817D01*
X129750Y9821D01*
X129721Y9830D01*
X129692Y9842D01*
X129654Y9851D01*
X129613Y9863D01*
X129562Y9876D01*
X129513Y9888D01*
X129454Y9905D01*
X129388Y9921D01*
X129317Y9938D01*
X129313D01*
X129300Y9942D01*
X129280Y9946D01*
X129255Y9955D01*
X129221Y9963D01*
X129184Y9971D01*
X129101Y9996D01*
X129009Y10025D01*
X128914Y10054D01*
X128830Y10084D01*
X128793Y10100D01*
X128760Y10117D01*
X128755D01*
X128751Y10121D01*
X128726Y10138D01*
X128689Y10159D01*
X128647Y10192D01*
X128597Y10229D01*
X128548Y10275D01*
X128498Y10329D01*
X128456Y10387D01*
X128452Y10396D01*
X128439Y10416D01*
X128423Y10450D01*
X128406Y10491D01*
X128389Y10545D01*
X128373Y10608D01*
X128360Y10674D01*
X128356Y10745D01*
Y10749D01*
Y10753D01*
Y10766D01*
Y10783D01*
X128365Y10824D01*
X128373Y10878D01*
X128385Y10941D01*
X128406Y11011D01*
X128435Y11082D01*
X128477Y11153D01*
Y11157D01*
X128481Y11161D01*
X128502Y11186D01*
X128531Y11219D01*
X128568Y11261D01*
X128618Y11307D01*
X128681Y11356D01*
X128755Y11402D01*
X128839Y11444D01*
X128843D01*
X128851Y11448D01*
X128864Y11452D01*
X128880Y11461D01*
X128901Y11469D01*
X128930Y11477D01*
X128993Y11494D01*
X129072Y11511D01*
X129163Y11527D01*
X129259Y11540D01*
X129367Y11544D01*
X129421D01*
X129450Y11540D01*
D02*
G37*
G36*
X133710Y8615D02*
X133336D01*
X132732Y10807D01*
Y10812D01*
X132728Y10820D01*
X132724Y10832D01*
X132720Y10853D01*
X132708Y10899D01*
X132695Y10953D01*
X132678Y11011D01*
X132662Y11065D01*
X132649Y11111D01*
X132645Y11132D01*
X132641Y11144D01*
Y11140D01*
X132637Y11136D01*
X132633Y11111D01*
X132624Y11074D01*
X132612Y11028D01*
X132599Y10978D01*
X132583Y10920D01*
X132570Y10862D01*
X132554Y10807D01*
X131946Y8615D01*
X131547D01*
X130794Y11494D01*
X131189D01*
X131618Y9605D01*
Y9601D01*
X131622Y9593D01*
X131626Y9576D01*
X131630Y9555D01*
X131634Y9526D01*
X131642Y9497D01*
X131651Y9460D01*
X131659Y9418D01*
X131680Y9331D01*
X131701Y9231D01*
X131722Y9123D01*
X131742Y9014D01*
Y9019D01*
X131746Y9035D01*
X131755Y9056D01*
X131759Y9089D01*
X131767Y9123D01*
X131780Y9164D01*
X131801Y9256D01*
X131826Y9347D01*
X131834Y9393D01*
X131846Y9435D01*
X131855Y9472D01*
X131863Y9505D01*
X131871Y9530D01*
X131876Y9547D01*
X132421Y11494D01*
X132882D01*
X133290Y10034D01*
Y10029D01*
X133298Y10009D01*
X133307Y9980D01*
X133315Y9942D01*
X133327Y9892D01*
X133344Y9838D01*
X133361Y9776D01*
X133377Y9705D01*
X133398Y9626D01*
X133415Y9547D01*
X133452Y9376D01*
X133490Y9198D01*
X133519Y9014D01*
Y9019D01*
X133523Y9027D01*
Y9044D01*
X133531Y9064D01*
X133535Y9089D01*
X133544Y9118D01*
X133548Y9156D01*
X133560Y9198D01*
X133581Y9289D01*
X133606Y9397D01*
X133631Y9514D01*
X133664Y9643D01*
X134114Y11494D01*
X134501D01*
X133710Y8615D01*
D02*
G37*
G36*
X135736Y11502D02*
X135769Y11498D01*
X135811Y11494D01*
X135857Y11485D01*
X135902Y11477D01*
X136011Y11448D01*
X136119Y11406D01*
X136173Y11382D01*
X136227Y11352D01*
X136277Y11315D01*
X136322Y11273D01*
X136327Y11269D01*
X136335Y11265D01*
X136343Y11248D01*
X136360Y11232D01*
X136381Y11211D01*
X136402Y11182D01*
X136422Y11153D01*
X136447Y11115D01*
X136489Y11036D01*
X136530Y10936D01*
X136547Y10887D01*
X136556Y10828D01*
X136564Y10770D01*
X136568Y10708D01*
Y10699D01*
Y10678D01*
X136564Y10645D01*
X136560Y10599D01*
X136551Y10549D01*
X136535Y10491D01*
X136518Y10429D01*
X136493Y10367D01*
X136489Y10358D01*
X136481Y10337D01*
X136464Y10304D01*
X136439Y10258D01*
X136406Y10208D01*
X136364Y10146D01*
X136314Y10084D01*
X136256Y10013D01*
X136248Y10005D01*
X136227Y9980D01*
X136206Y9959D01*
X136185Y9938D01*
X136160Y9913D01*
X136127Y9880D01*
X136094Y9847D01*
X136052Y9809D01*
X136011Y9767D01*
X135961Y9722D01*
X135907Y9676D01*
X135848Y9622D01*
X135782Y9568D01*
X135715Y9510D01*
X135711Y9505D01*
X135703Y9497D01*
X135686Y9484D01*
X135665Y9468D01*
X135640Y9443D01*
X135611Y9418D01*
X135545Y9364D01*
X135474Y9302D01*
X135407Y9239D01*
X135349Y9185D01*
X135324Y9164D01*
X135303Y9143D01*
X135299Y9139D01*
X135287Y9127D01*
X135270Y9110D01*
X135249Y9085D01*
X135229Y9056D01*
X135204Y9027D01*
X135154Y8956D01*
X136572D01*
Y8615D01*
X134663D01*
Y8619D01*
Y8636D01*
Y8661D01*
X134667Y8694D01*
X134671Y8732D01*
X134679Y8773D01*
X134688Y8815D01*
X134704Y8861D01*
Y8865D01*
X134708Y8869D01*
X134717Y8894D01*
X134733Y8931D01*
X134758Y8981D01*
X134792Y9039D01*
X134833Y9106D01*
X134879Y9172D01*
X134937Y9243D01*
Y9247D01*
X134946Y9252D01*
X134966Y9277D01*
X135004Y9314D01*
X135058Y9368D01*
X135120Y9431D01*
X135199Y9505D01*
X135295Y9589D01*
X135399Y9676D01*
X135403Y9680D01*
X135420Y9692D01*
X135445Y9713D01*
X135474Y9738D01*
X135511Y9772D01*
X135557Y9809D01*
X135603Y9851D01*
X135657Y9896D01*
X135761Y9996D01*
X135865Y10096D01*
X135915Y10146D01*
X135961Y10196D01*
X136002Y10242D01*
X136036Y10287D01*
Y10292D01*
X136044Y10296D01*
X136052Y10308D01*
X136061Y10325D01*
X136090Y10371D01*
X136123Y10425D01*
X136152Y10491D01*
X136181Y10562D01*
X136198Y10641D01*
X136206Y10716D01*
Y10720D01*
Y10724D01*
X136202Y10749D01*
X136198Y10791D01*
X136185Y10836D01*
X136169Y10895D01*
X136140Y10953D01*
X136102Y11011D01*
X136052Y11069D01*
X136044Y11078D01*
X136023Y11095D01*
X135994Y11115D01*
X135948Y11144D01*
X135890Y11169D01*
X135823Y11194D01*
X135744Y11211D01*
X135657Y11215D01*
X135632D01*
X135615Y11211D01*
X135565Y11207D01*
X135507Y11194D01*
X135445Y11178D01*
X135374Y11148D01*
X135308Y11111D01*
X135245Y11061D01*
X135237Y11053D01*
X135220Y11032D01*
X135195Y10999D01*
X135170Y10949D01*
X135141Y10891D01*
X135116Y10816D01*
X135099Y10733D01*
X135091Y10637D01*
X134729Y10674D01*
Y10678D01*
X134733Y10691D01*
Y10712D01*
X134738Y10741D01*
X134746Y10774D01*
X134754Y10812D01*
X134767Y10857D01*
X134779Y10903D01*
X134812Y11003D01*
X134862Y11103D01*
X134891Y11153D01*
X134929Y11203D01*
X134966Y11248D01*
X135008Y11290D01*
X135012Y11294D01*
X135020Y11298D01*
X135033Y11311D01*
X135054Y11323D01*
X135079Y11340D01*
X135108Y11356D01*
X135141Y11377D01*
X135183Y11398D01*
X135229Y11419D01*
X135278Y11440D01*
X135333Y11456D01*
X135391Y11473D01*
X135453Y11485D01*
X135520Y11498D01*
X135590Y11502D01*
X135665Y11506D01*
X135707D01*
X135736Y11502D01*
D02*
G37*
D13*
X45287Y2165D02*
X62609D01*
X45287D02*
Y13583D01*
X62609D01*
Y2165D02*
Y13583D01*
X119587Y2165D02*
Y13583D01*
Y2165D02*
X136909D01*
Y13583D01*
X119587D02*
X136909D01*
M02*
