G04*
G04 #@! TF.GenerationSoftware,Altium Limited,Altium Designer,19.1.5 (86)*
G04*
G04 Layer_Physical_Order=2*
G04 Layer_Color=16711680*
%FSLAX25Y25*%
%MOIN*%
G70*
G01*
G75*
%ADD12C,0.01181*%
%ADD73C,0.01575*%
%ADD74C,0.02362*%
%ADD75C,0.01000*%
%ADD77C,0.01200*%
%ADD80C,0.01378*%
%ADD84C,0.02953*%
%ADD85C,0.05906*%
%ADD86R,0.05906X0.05906*%
%ADD87C,0.12795*%
%ADD88C,0.09626*%
%ADD89C,0.06024*%
%ADD90C,0.05504*%
%ADD91R,0.05504X0.05504*%
%ADD92C,0.17323*%
%ADD93O,0.04134X0.04921*%
%ADD94O,0.04724X0.07480*%
%ADD95C,0.02556*%
%ADD96C,0.19685*%
%ADD97C,0.01968*%
G36*
X379200Y212200D02*
Y12600D01*
X367400Y800D01*
X21800D01*
X10400Y12200D01*
Y100775D01*
X10900Y100824D01*
X10943Y100610D01*
X11377Y99960D01*
X12028Y99525D01*
X12795Y99373D01*
X13292Y99471D01*
X30512D01*
X31242Y99616D01*
X31367Y99700D01*
X31476Y99722D01*
X32127Y100157D01*
X32561Y100807D01*
X32714Y101575D01*
X32561Y102342D01*
X32127Y102993D01*
X31476Y103428D01*
X30709Y103580D01*
X29941Y103428D01*
X29727Y103285D01*
X13292D01*
X12795Y103383D01*
X12028Y103231D01*
X11377Y102796D01*
X10943Y102145D01*
X10900Y101932D01*
X10400Y101981D01*
Y212000D01*
X11100D01*
X18004Y218904D01*
X18477Y218743D01*
X18491Y218641D01*
X18818Y217851D01*
X19338Y217173D01*
X20016Y216652D01*
X20806Y216325D01*
X21159Y216279D01*
Y219488D01*
X21654D01*
Y219982D01*
X24863D01*
X24816Y220336D01*
X24489Y221125D01*
X23969Y221804D01*
X23291Y222324D01*
X22501Y222651D01*
X22399Y222665D01*
X22238Y223138D01*
X23300Y224200D01*
X23500Y224300D01*
X367100D01*
X379200Y212200D01*
D02*
G37*
%LPC*%
G36*
X70573Y220729D02*
Y218014D01*
X73288D01*
X73242Y218367D01*
X72914Y219157D01*
X72394Y219835D01*
X71716Y220356D01*
X70926Y220683D01*
X70573Y220729D01*
D02*
G37*
G36*
X69585D02*
X69231Y220683D01*
X68441Y220356D01*
X67763Y219835D01*
X67243Y219157D01*
X66916Y218367D01*
X66869Y218014D01*
X69585D01*
Y220729D01*
D02*
G37*
G36*
X92915Y220237D02*
Y217522D01*
X95631D01*
X95584Y217875D01*
X95257Y218665D01*
X94737Y219343D01*
X94059Y219863D01*
X93269Y220191D01*
X92915Y220237D01*
D02*
G37*
G36*
X91927D02*
X91574Y220191D01*
X90784Y219863D01*
X90106Y219343D01*
X89586Y218665D01*
X89258Y217875D01*
X89212Y217522D01*
X91927D01*
Y220237D01*
D02*
G37*
G36*
X24863Y218994D02*
X22148D01*
Y216279D01*
X22501Y216325D01*
X23291Y216652D01*
X23969Y217173D01*
X24489Y217851D01*
X24816Y218641D01*
X24863Y218994D01*
D02*
G37*
G36*
X73288Y217026D02*
X70573D01*
Y214310D01*
X70926Y214357D01*
X71716Y214684D01*
X72394Y215204D01*
X72914Y215882D01*
X73242Y216672D01*
X73288Y217026D01*
D02*
G37*
G36*
X69585D02*
X66869D01*
X66916Y216672D01*
X67243Y215882D01*
X67763Y215204D01*
X68441Y214684D01*
X69231Y214357D01*
X69585Y214310D01*
Y217026D01*
D02*
G37*
G36*
X95631Y216533D02*
X92915D01*
Y213818D01*
X93269Y213865D01*
X94059Y214192D01*
X94737Y214712D01*
X95257Y215390D01*
X95584Y216180D01*
X95631Y216533D01*
D02*
G37*
G36*
X91927D02*
X89212D01*
X89258Y216180D01*
X89586Y215390D01*
X90106Y214712D01*
X90784Y214192D01*
X91574Y213865D01*
X91927Y213818D01*
Y216533D01*
D02*
G37*
G36*
X370770Y215217D02*
Y212502D01*
X373485D01*
X373439Y212855D01*
X373111Y213645D01*
X372591Y214323D01*
X371913Y214844D01*
X371123Y215171D01*
X370770Y215217D01*
D02*
G37*
G36*
X369781D02*
X369428Y215171D01*
X368638Y214844D01*
X367960Y214323D01*
X367440Y213645D01*
X367113Y212855D01*
X367066Y212502D01*
X369781D01*
Y215217D01*
D02*
G37*
G36*
X154500Y221006D02*
X153733Y220853D01*
X153082Y220418D01*
X152647Y219767D01*
X152495Y219000D01*
X152647Y218232D01*
X152945Y217786D01*
Y208529D01*
X152445Y208377D01*
X152418Y208418D01*
X151768Y208853D01*
X151000Y209005D01*
X150233Y208853D01*
X149582Y208418D01*
X149147Y207768D01*
X148995Y207000D01*
X149147Y206233D01*
X149512Y205686D01*
Y196517D01*
X149223Y196379D01*
X149012Y196329D01*
X148405Y196735D01*
X147638Y196887D01*
X146870Y196735D01*
X146220Y196300D01*
X145785Y195649D01*
X145632Y194882D01*
X145785Y194114D01*
X146220Y193464D01*
X146333Y193388D01*
Y126778D01*
X128909Y109354D01*
X127706D01*
X127499Y109854D01*
X144328Y126683D01*
X144611Y127106D01*
X144710Y127605D01*
Y187706D01*
X144824Y187782D01*
X145258Y188433D01*
X145411Y189200D01*
X145258Y189968D01*
X144824Y190618D01*
X144173Y191053D01*
X143405Y191206D01*
X142638Y191053D01*
X141987Y190618D01*
X141553Y189968D01*
X141400Y189200D01*
X141553Y188433D01*
X141987Y187782D01*
X142101Y187706D01*
Y128146D01*
X125860Y111905D01*
X62185D01*
X57580Y116509D01*
Y178508D01*
X57481Y179007D01*
X57198Y179431D01*
X56127Y180501D01*
Y181006D01*
X56241Y181082D01*
X56676Y181732D01*
X56828Y182500D01*
X56676Y183267D01*
X56241Y183918D01*
X55590Y184353D01*
X54823Y184505D01*
X54055Y184353D01*
X53405Y183918D01*
X52970Y183267D01*
X52817Y182500D01*
X52970Y181732D01*
X53405Y181082D01*
X53518Y181006D01*
Y179961D01*
X53532Y179890D01*
X53158Y179318D01*
X52833Y179253D01*
X52407Y178968D01*
X51907Y179235D01*
Y200300D01*
X51762Y201030D01*
X51348Y201648D01*
X49007Y203990D01*
Y211904D01*
X49106Y212400D01*
X48953Y213168D01*
X48518Y213818D01*
X47868Y214253D01*
X47100Y214405D01*
X46332Y214253D01*
X45682Y213818D01*
X45247Y213168D01*
X45094Y212400D01*
X45193Y211904D01*
Y203200D01*
X45338Y202470D01*
X45752Y201852D01*
X48093Y199510D01*
Y125625D01*
X47593Y125440D01*
X46740Y126440D01*
X45467Y127526D01*
X44041Y128401D01*
X42495Y129041D01*
X40868Y129431D01*
X39694Y129524D01*
Y118900D01*
Y108276D01*
X40868Y108369D01*
X42495Y108759D01*
X44041Y109399D01*
X45467Y110274D01*
X46740Y111360D01*
X47593Y112360D01*
X48093Y112175D01*
Y109500D01*
X48238Y108770D01*
X48652Y108152D01*
X53093Y103710D01*
Y91396D01*
X52995Y90900D01*
X53093Y90404D01*
Y82500D01*
X53238Y81770D01*
X53652Y81152D01*
X71593Y63210D01*
Y51500D01*
X71738Y50770D01*
X72152Y50152D01*
X81301Y41003D01*
X81582Y40582D01*
X82232Y40147D01*
X83000Y39994D01*
X83767Y40147D01*
X84418Y40582D01*
X84853Y41232D01*
X85005Y42000D01*
X84853Y42768D01*
X84418Y43418D01*
X83997Y43699D01*
X79921Y47775D01*
X80018Y47971D01*
Y50982D01*
X77007D01*
X76811Y50886D01*
X75407Y52290D01*
Y64000D01*
X75262Y64730D01*
X74848Y65348D01*
X56907Y83290D01*
Y90404D01*
X57006Y90900D01*
X56907Y91396D01*
Y104500D01*
X56762Y105230D01*
X56348Y105848D01*
X51907Y110290D01*
Y111309D01*
X52369Y111409D01*
X52407Y111402D01*
X52678Y110996D01*
X56547Y107127D01*
X56970Y106844D01*
X57469Y106745D01*
X129124D01*
X129389Y106245D01*
X129209Y105976D01*
X129095Y105400D01*
Y87493D01*
X128595Y87394D01*
X128525Y87562D01*
X128004Y88241D01*
X127326Y88761D01*
X126537Y89088D01*
X126183Y89135D01*
Y85925D01*
Y82716D01*
X126537Y82762D01*
X127326Y83089D01*
X128004Y83610D01*
X128525Y84288D01*
X128595Y84457D01*
X129095Y84357D01*
Y29487D01*
X128747Y28967D01*
X128595Y28200D01*
X128747Y27433D01*
X129182Y26782D01*
X129832Y26347D01*
X130600Y26195D01*
X131368Y26347D01*
X132018Y26782D01*
X132453Y27433D01*
X132606Y28200D01*
X132453Y28967D01*
X132105Y29487D01*
Y68894D01*
X132605Y68943D01*
X132647Y68733D01*
X133082Y68082D01*
X133732Y67647D01*
X134500Y67494D01*
X135267Y67647D01*
X135918Y68082D01*
X136353Y68733D01*
X136505Y69500D01*
X136353Y70267D01*
X135918Y70918D01*
X135805Y70994D01*
Y97560D01*
X156666Y118421D01*
X156800Y118394D01*
X157568Y118547D01*
X158218Y118982D01*
X158653Y119632D01*
X158806Y120400D01*
X158653Y121168D01*
X158218Y121818D01*
X157568Y122253D01*
X156800Y122406D01*
X156033Y122253D01*
X155382Y121818D01*
X154947Y121168D01*
X154795Y120400D01*
X154821Y120266D01*
X133578Y99023D01*
X133295Y98599D01*
X133195Y98100D01*
Y70994D01*
X133082Y70918D01*
X132647Y70267D01*
X132605Y70057D01*
X132105Y70106D01*
Y104777D01*
X151564Y124236D01*
X151891Y124724D01*
X152005Y125300D01*
Y150845D01*
X152453Y151145D01*
X152888Y151795D01*
X153041Y152563D01*
X152888Y153330D01*
X152523Y153877D01*
Y201134D01*
X153023Y201286D01*
X153117Y201145D01*
X153768Y200710D01*
X154535Y200557D01*
X155303Y200710D01*
X155954Y201145D01*
X156388Y201796D01*
X156541Y202563D01*
X156388Y203330D01*
X155954Y203981D01*
X155555Y204248D01*
Y217339D01*
X155918Y217582D01*
X156353Y218232D01*
X156506Y219000D01*
X156353Y219767D01*
X155918Y220418D01*
X155268Y220853D01*
X154500Y221006D01*
D02*
G37*
G36*
X373485Y211514D02*
X367066D01*
X367113Y211160D01*
X367440Y210371D01*
X367960Y209693D01*
X368293Y209437D01*
X368123Y208937D01*
X365551D01*
Y204510D01*
X370472D01*
X375394D01*
Y208937D01*
X372428D01*
X372258Y209437D01*
X372591Y209693D01*
X373111Y210371D01*
X373439Y211160D01*
X373485Y211514D01*
D02*
G37*
G36*
X219687Y202520D02*
Y199805D01*
X222402D01*
X222356Y200159D01*
X222029Y200948D01*
X221508Y201626D01*
X220830Y202147D01*
X220040Y202474D01*
X219687Y202520D01*
D02*
G37*
G36*
X218699D02*
X218345Y202474D01*
X217556Y202147D01*
X216878Y201626D01*
X216357Y200948D01*
X216030Y200159D01*
X215984Y199805D01*
X218699D01*
Y202520D01*
D02*
G37*
G36*
X208755Y203979D02*
Y199515D01*
X213220D01*
X213113Y200321D01*
X212612Y201532D01*
X211813Y202572D01*
X210773Y203371D01*
X209561Y203873D01*
X208755Y203979D01*
D02*
G37*
G36*
X207767D02*
X206961Y203873D01*
X205750Y203371D01*
X204709Y202572D01*
X203911Y201532D01*
X203409Y200321D01*
X203303Y199515D01*
X207767D01*
Y203979D01*
D02*
G37*
G36*
X375394Y203522D02*
X370967D01*
Y199094D01*
X375394D01*
Y203522D01*
D02*
G37*
G36*
X369978D02*
X365551D01*
Y199094D01*
X369978D01*
Y203522D01*
D02*
G37*
G36*
X344785Y200158D02*
Y197443D01*
X347501D01*
X347454Y197796D01*
X347127Y198586D01*
X346607Y199264D01*
X345929Y199785D01*
X345139Y200112D01*
X344785Y200158D01*
D02*
G37*
G36*
X343797D02*
X343444Y200112D01*
X342654Y199785D01*
X341976Y199264D01*
X341456Y198586D01*
X341128Y197796D01*
X341082Y197443D01*
X343797D01*
Y200158D01*
D02*
G37*
G36*
X267915Y199765D02*
Y197049D01*
X270631D01*
X270584Y197403D01*
X270257Y198192D01*
X269737Y198871D01*
X269058Y199391D01*
X268269Y199718D01*
X267915Y199765D01*
D02*
G37*
G36*
X266927D02*
X266574Y199718D01*
X265784Y199391D01*
X265106Y198871D01*
X264585Y198192D01*
X264258Y197403D01*
X264212Y197049D01*
X266927D01*
Y199765D01*
D02*
G37*
G36*
X164100Y219205D02*
X163332Y219053D01*
X162682Y218618D01*
X162247Y217968D01*
X162094Y217200D01*
X162183Y216756D01*
X161777Y216351D01*
X161495Y215927D01*
X161395Y215428D01*
Y200394D01*
X161282Y200318D01*
X160847Y199668D01*
X160695Y198900D01*
X160847Y198133D01*
X161282Y197482D01*
X161933Y197047D01*
X162700Y196895D01*
X163468Y197047D01*
X164118Y197482D01*
X164553Y198133D01*
X164706Y198900D01*
X164553Y199668D01*
X164118Y200318D01*
X164005Y200394D01*
Y214888D01*
X164364Y215247D01*
X164867Y215347D01*
X165518Y215782D01*
X165953Y216432D01*
X166105Y217200D01*
X165953Y217968D01*
X165518Y218618D01*
X164867Y219053D01*
X164100Y219205D01*
D02*
G37*
G36*
X222402Y198817D02*
X219687D01*
Y196102D01*
X220040Y196148D01*
X220830Y196475D01*
X221508Y196996D01*
X222029Y197674D01*
X222356Y198463D01*
X222402Y198817D01*
D02*
G37*
G36*
X218699D02*
X215984D01*
X216030Y198463D01*
X216357Y197674D01*
X216878Y196996D01*
X217556Y196475D01*
X218345Y196148D01*
X218699Y196102D01*
Y198817D01*
D02*
G37*
G36*
X178150Y202847D02*
X177183Y202720D01*
X176283Y202347D01*
X175510Y201754D01*
X174917Y200980D01*
X174544Y200080D01*
X174417Y199114D01*
X174544Y198148D01*
X174917Y197248D01*
X175510Y196475D01*
X176283Y195881D01*
X177183Y195509D01*
X178150Y195381D01*
X179116Y195509D01*
X180016Y195881D01*
X180789Y196475D01*
X181382Y197248D01*
X181755Y198148D01*
X181882Y199114D01*
X181755Y200080D01*
X181382Y200980D01*
X180789Y201754D01*
X180016Y202347D01*
X179116Y202720D01*
X178150Y202847D01*
D02*
G37*
G36*
X347501Y196455D02*
X344785D01*
Y193739D01*
X345139Y193786D01*
X345929Y194113D01*
X346607Y194633D01*
X347127Y195312D01*
X347454Y196101D01*
X347501Y196455D01*
D02*
G37*
G36*
X343797D02*
X341082D01*
X341128Y196101D01*
X341456Y195312D01*
X341976Y194633D01*
X342654Y194113D01*
X343444Y193786D01*
X343797Y193739D01*
Y196455D01*
D02*
G37*
G36*
X270631Y196061D02*
X267915D01*
Y193346D01*
X268269Y193392D01*
X269058Y193719D01*
X269737Y194240D01*
X270257Y194918D01*
X270584Y195708D01*
X270631Y196061D01*
D02*
G37*
G36*
X266927D02*
X264212D01*
X264258Y195708D01*
X264585Y194918D01*
X265106Y194240D01*
X265784Y193719D01*
X266574Y193392D01*
X266927Y193346D01*
Y196061D01*
D02*
G37*
G36*
X268800Y211305D02*
X268033Y211153D01*
X267382Y210718D01*
X266947Y210068D01*
X266794Y209300D01*
X266947Y208533D01*
X267382Y207882D01*
X268033Y207447D01*
X268800Y207295D01*
X269567Y207447D01*
X270218Y207882D01*
X270294Y207995D01*
X273160D01*
X273186Y207969D01*
Y195487D01*
X273082Y195418D01*
X272647Y194767D01*
X272495Y194000D01*
X272647Y193233D01*
X273082Y192582D01*
X273732Y192147D01*
X274500Y191995D01*
X275268Y192147D01*
X275918Y192582D01*
X276353Y193233D01*
X276505Y194000D01*
X276353Y194767D01*
X275918Y195418D01*
X275814Y195487D01*
Y208500D01*
X275714Y209003D01*
X275429Y209429D01*
X275388Y209457D01*
X274623Y210223D01*
X274199Y210505D01*
X273700Y210605D01*
X270294D01*
X270218Y210718D01*
X269567Y211153D01*
X268800Y211305D01*
D02*
G37*
G36*
X198130Y202847D02*
X197164Y202720D01*
X196264Y202347D01*
X195491Y201754D01*
X194897Y200980D01*
X194524Y200080D01*
X194397Y199114D01*
X194524Y198148D01*
X194897Y197248D01*
X195491Y196475D01*
X196264Y195881D01*
X196371Y195837D01*
Y187943D01*
X196516Y187213D01*
X196544Y187172D01*
X196572Y187028D01*
X197007Y186377D01*
X197658Y185942D01*
X198425Y185790D01*
X199193Y185942D01*
X199843Y186377D01*
X200278Y187028D01*
X200431Y187795D01*
X200278Y188563D01*
X200184Y188703D01*
Y193710D01*
X200646Y193901D01*
X202423Y192124D01*
X203042Y191711D01*
X203772Y191566D01*
X238972D01*
X239702Y191711D01*
X240321Y192124D01*
X245701Y197505D01*
X246122Y197786D01*
X246557Y198436D01*
X246709Y199204D01*
X246557Y199971D01*
X246122Y200622D01*
X245471Y201057D01*
X244704Y201209D01*
X243936Y201057D01*
X243286Y200622D01*
X243005Y200201D01*
X238183Y195379D01*
X212375D01*
X212129Y195879D01*
X212612Y196509D01*
X213113Y197720D01*
X213220Y198526D01*
X203303D01*
X203409Y197720D01*
X203750Y196898D01*
X203326Y196614D01*
X201742Y198198D01*
X201863Y199114D01*
X201735Y200080D01*
X201363Y200980D01*
X200769Y201754D01*
X199996Y202347D01*
X199096Y202720D01*
X198130Y202847D01*
D02*
G37*
G36*
X187992Y202748D02*
X187026Y202621D01*
X186126Y202248D01*
X185353Y201655D01*
X184759Y200882D01*
X184387Y199982D01*
X184259Y199016D01*
X184387Y198050D01*
X184759Y197149D01*
X185353Y196376D01*
X186126Y195783D01*
X186688Y195550D01*
Y194044D01*
X183615Y190972D01*
X183071Y191080D01*
X182303Y190928D01*
X181653Y190493D01*
X181218Y189842D01*
X181065Y189075D01*
X181218Y188307D01*
X181653Y187657D01*
X182303Y187222D01*
X183071Y187069D01*
X183838Y187222D01*
X184489Y187657D01*
X184924Y188307D01*
X184994Y188661D01*
X188915Y192581D01*
X189197Y193005D01*
X189297Y193504D01*
Y195550D01*
X189858Y195783D01*
X190632Y196376D01*
X191225Y197149D01*
X191598Y198050D01*
X191725Y199016D01*
X191598Y199982D01*
X191225Y200882D01*
X190632Y201655D01*
X189858Y202248D01*
X188958Y202621D01*
X187992Y202748D01*
D02*
G37*
G36*
X357087Y219722D02*
X356319Y219569D01*
X355668Y219135D01*
X355234Y218484D01*
X355081Y217717D01*
X355234Y216949D01*
X355668Y216299D01*
X355782Y216223D01*
Y198425D01*
X355881Y197926D01*
X356164Y197503D01*
X360574Y193093D01*
X360997Y192810D01*
X361496Y192711D01*
X367071D01*
X367291Y192179D01*
X367875Y191418D01*
X368636Y190835D01*
X369522Y190468D01*
X370472Y190343D01*
X371423Y190468D01*
X372309Y190835D01*
X373070Y191418D01*
X373654Y192179D01*
X374020Y193065D01*
X374146Y194016D01*
X374020Y194966D01*
X373654Y195852D01*
X373070Y196613D01*
X372309Y197197D01*
X371423Y197564D01*
X370472Y197689D01*
X369522Y197564D01*
X368636Y197197D01*
X367875Y196613D01*
X367291Y195852D01*
X367071Y195320D01*
X362036D01*
X358391Y198966D01*
Y216223D01*
X358505Y216299D01*
X358939Y216949D01*
X359092Y217717D01*
X358939Y218484D01*
X358505Y219135D01*
X357854Y219569D01*
X357087Y219722D01*
D02*
G37*
G36*
X313500Y203006D02*
X312733Y202853D01*
X312082Y202418D01*
X311647Y201767D01*
X311494Y201000D01*
X311647Y200233D01*
X312082Y199582D01*
X312733Y199147D01*
X313500Y198995D01*
X313634Y199021D01*
X315195Y197460D01*
Y190334D01*
X314695Y190067D01*
X314267Y190353D01*
X313500Y190506D01*
X312733Y190353D01*
X312082Y189918D01*
X311647Y189268D01*
X311494Y188500D01*
X311647Y187733D01*
X311995Y187213D01*
Y180623D01*
X310346Y178975D01*
X309733Y178853D01*
X309082Y178418D01*
X308647Y177768D01*
X308494Y177000D01*
X308647Y176233D01*
X309082Y175582D01*
X309733Y175147D01*
X310500Y174995D01*
X311267Y175147D01*
X311918Y175582D01*
X312353Y176233D01*
X312475Y176846D01*
X314564Y178936D01*
X314766Y179237D01*
X314933Y179420D01*
X315391Y179376D01*
X315733Y179147D01*
X316500Y178995D01*
X317267Y179147D01*
X317918Y179582D01*
X318353Y180233D01*
X318506Y181000D01*
X318353Y181767D01*
X317918Y182418D01*
X317805Y182494D01*
Y198000D01*
X317705Y198499D01*
X317423Y198923D01*
X315479Y200866D01*
X315506Y201000D01*
X315353Y201767D01*
X314918Y202418D01*
X314267Y202853D01*
X313500Y203006D01*
D02*
G37*
G36*
X30218Y191300D02*
Y188585D01*
X32934D01*
X32887Y188938D01*
X32560Y189728D01*
X32040Y190406D01*
X31362Y190926D01*
X30572Y191253D01*
X30218Y191300D01*
D02*
G37*
G36*
X29230D02*
X28877Y191253D01*
X28087Y190926D01*
X27409Y190406D01*
X26889Y189728D01*
X26561Y188938D01*
X26515Y188585D01*
X29230D01*
Y191300D01*
D02*
G37*
G36*
X281000Y215005D02*
X280233Y214853D01*
X279582Y214418D01*
X279147Y213768D01*
X278994Y213000D01*
X279147Y212232D01*
X279582Y211582D01*
X279945Y211339D01*
Y190214D01*
X279647Y189768D01*
X279495Y189000D01*
X279647Y188233D01*
X280082Y187582D01*
X280732Y187147D01*
X281500Y186995D01*
X282267Y187147D01*
X282918Y187582D01*
X283353Y188233D01*
X283506Y189000D01*
X283353Y189768D01*
X282918Y190418D01*
X282555Y190661D01*
Y211786D01*
X282853Y212232D01*
X283005Y213000D01*
X282853Y213768D01*
X282418Y214418D01*
X281768Y214853D01*
X281000Y215005D01*
D02*
G37*
G36*
X344884Y188052D02*
Y185337D01*
X347599D01*
X347553Y185690D01*
X347225Y186480D01*
X346705Y187158D01*
X346027Y187678D01*
X345237Y188005D01*
X344884Y188052D01*
D02*
G37*
G36*
X343896D02*
X343542Y188005D01*
X342753Y187678D01*
X342074Y187158D01*
X341554Y186480D01*
X341227Y185690D01*
X341180Y185337D01*
X343896D01*
Y188052D01*
D02*
G37*
G36*
X32934Y187596D02*
X30218D01*
Y184881D01*
X30572Y184928D01*
X31362Y185255D01*
X32040Y185775D01*
X32560Y186453D01*
X32887Y187243D01*
X32934Y187596D01*
D02*
G37*
G36*
X29230D02*
X26515D01*
X26561Y187243D01*
X26889Y186453D01*
X27409Y185775D01*
X28087Y185255D01*
X28877Y184928D01*
X29230Y184881D01*
Y187596D01*
D02*
G37*
G36*
X347599Y184348D02*
X344884D01*
Y181633D01*
X345237Y181680D01*
X346027Y182007D01*
X346705Y182527D01*
X347225Y183205D01*
X347553Y183995D01*
X347599Y184348D01*
D02*
G37*
G36*
X343896D02*
X341180D01*
X341227Y183995D01*
X341554Y183205D01*
X342074Y182527D01*
X342753Y182007D01*
X343542Y181680D01*
X343896Y181633D01*
Y184348D01*
D02*
G37*
G36*
X352756Y217360D02*
X351989Y217207D01*
X351338Y216772D01*
X350903Y216122D01*
X350750Y215354D01*
X350903Y214587D01*
X351338Y213936D01*
X351451Y213860D01*
Y192520D01*
X351551Y192020D01*
X351833Y191597D01*
X360337Y183093D01*
X360761Y182810D01*
X361260Y182711D01*
X367071D01*
X367291Y182179D01*
X367875Y181418D01*
X368636Y180835D01*
X369522Y180468D01*
X370472Y180343D01*
X371423Y180468D01*
X372309Y180835D01*
X373070Y181418D01*
X373654Y182179D01*
X374020Y183065D01*
X374146Y184016D01*
X374020Y184966D01*
X373654Y185852D01*
X373070Y186613D01*
X372309Y187197D01*
X371423Y187564D01*
X370472Y187689D01*
X369522Y187564D01*
X368636Y187197D01*
X367875Y186613D01*
X367291Y185852D01*
X367071Y185320D01*
X361800D01*
X354061Y193060D01*
Y213860D01*
X354174Y213936D01*
X354609Y214587D01*
X354761Y215354D01*
X354609Y216122D01*
X354174Y216772D01*
X353523Y217207D01*
X352756Y217360D01*
D02*
G37*
G36*
X251300Y212806D02*
X250533Y212653D01*
X249882Y212218D01*
X249447Y211567D01*
X249294Y210800D01*
X249447Y210033D01*
X249882Y209382D01*
X249995Y209306D01*
Y177700D01*
X250095Y177201D01*
X250377Y176778D01*
X253398Y173757D01*
X253174Y173298D01*
X252782Y173275D01*
X246805Y179253D01*
Y191006D01*
X246918Y191082D01*
X247353Y191733D01*
X247505Y192500D01*
X247353Y193268D01*
X246918Y193918D01*
X246268Y194353D01*
X245500Y194506D01*
X244732Y194353D01*
X244082Y193918D01*
X243647Y193268D01*
X243495Y192500D01*
X243647Y191733D01*
X244082Y191082D01*
X244195Y191006D01*
Y178713D01*
X244295Y178213D01*
X244578Y177790D01*
X250974Y171394D01*
X250947Y171260D01*
X251100Y170492D01*
X251535Y169842D01*
X252185Y169407D01*
X252953Y169254D01*
X253720Y169407D01*
X254371Y169842D01*
X254806Y170492D01*
X254958Y171260D01*
X254901Y171547D01*
X255362Y171793D01*
X259195Y167960D01*
Y163994D01*
X259082Y163918D01*
X258647Y163268D01*
X258494Y162500D01*
X258647Y161732D01*
X259082Y161082D01*
X259733Y160647D01*
X260500Y160494D01*
X261267Y160647D01*
X261918Y161082D01*
X262353Y161732D01*
X262506Y162500D01*
X262353Y163268D01*
X261918Y163918D01*
X261805Y163994D01*
Y168500D01*
X261705Y168999D01*
X261422Y169422D01*
X252605Y178240D01*
Y209306D01*
X252718Y209382D01*
X253153Y210033D01*
X253306Y210800D01*
X253153Y211567D01*
X252718Y212218D01*
X252067Y212653D01*
X251300Y212806D01*
D02*
G37*
G36*
X370472Y177689D02*
X369522Y177564D01*
X368636Y177197D01*
X367875Y176613D01*
X367291Y175852D01*
X366924Y174966D01*
X366799Y174016D01*
X366924Y173065D01*
X367291Y172179D01*
X367875Y171418D01*
X368636Y170835D01*
X369522Y170468D01*
X370472Y170343D01*
X371423Y170468D01*
X372309Y170835D01*
X373070Y171418D01*
X373654Y172179D01*
X374020Y173065D01*
X374146Y174016D01*
X374020Y174966D01*
X373654Y175852D01*
X373070Y176613D01*
X372309Y177197D01*
X371423Y177564D01*
X370472Y177689D01*
D02*
G37*
G36*
X263000Y176505D02*
X262232Y176353D01*
X261582Y175918D01*
X261147Y175268D01*
X260995Y174500D01*
X261147Y173732D01*
X261582Y173082D01*
X262232Y172647D01*
X263000Y172494D01*
X263768Y172647D01*
X264418Y173082D01*
X264494Y173195D01*
X278588D01*
X282206Y169578D01*
X282629Y169295D01*
X283128Y169195D01*
X285506D01*
X285582Y169082D01*
X286232Y168647D01*
X287000Y168494D01*
X287768Y168647D01*
X288418Y169082D01*
X288853Y169732D01*
X289005Y170500D01*
X288853Y171267D01*
X288418Y171918D01*
X287768Y172353D01*
X287000Y172505D01*
X286232Y172353D01*
X285582Y171918D01*
X285506Y171805D01*
X283668D01*
X280050Y175423D01*
X279627Y175705D01*
X279128Y175805D01*
X264494D01*
X264418Y175918D01*
X263768Y176353D01*
X263000Y176505D01*
D02*
G37*
G36*
X163500Y183108D02*
X162733Y182955D01*
X162082Y182520D01*
X161647Y181870D01*
X161495Y181102D01*
X161647Y180335D01*
X162082Y179684D01*
X162195Y179609D01*
Y170994D01*
X162082Y170918D01*
X161647Y170267D01*
X161495Y169500D01*
X161647Y168733D01*
X162082Y168082D01*
X162733Y167647D01*
X163500Y167494D01*
X164268Y167647D01*
X164918Y168082D01*
X165353Y168733D01*
X165506Y169500D01*
X165353Y170267D01*
X164918Y170918D01*
X164805Y170994D01*
Y179609D01*
X164918Y179684D01*
X165353Y180335D01*
X165506Y181102D01*
X165353Y181870D01*
X164918Y182520D01*
X164268Y182955D01*
X163500Y183108D01*
D02*
G37*
G36*
X78740Y182808D02*
X77088Y182678D01*
X75476Y182291D01*
X73944Y181657D01*
X72531Y180791D01*
X71270Y179714D01*
X70194Y178454D01*
X69327Y177040D01*
X68693Y175509D01*
X68306Y173897D01*
X68176Y172244D01*
X68306Y170591D01*
X68693Y168980D01*
X69327Y167448D01*
X70194Y166035D01*
X71270Y164774D01*
X72531Y163698D01*
X73944Y162831D01*
X74560Y162576D01*
Y160147D01*
X73615Y159202D01*
X73600Y159205D01*
X72833Y159053D01*
X72182Y158618D01*
X71747Y157967D01*
X71595Y157200D01*
X71747Y156432D01*
X72182Y155782D01*
X72833Y155347D01*
X73600Y155194D01*
X74367Y155347D01*
X75018Y155782D01*
X75453Y156432D01*
X75605Y157200D01*
X75602Y157215D01*
X76959Y158572D01*
X77263Y159028D01*
X77370Y159565D01*
Y161419D01*
X77737Y161759D01*
X78740Y161680D01*
X80393Y161810D01*
X82005Y162197D01*
X83536Y162831D01*
X84950Y163698D01*
X86210Y164774D01*
X87287Y166035D01*
X88153Y167448D01*
X88787Y168980D01*
X89174Y170591D01*
X89304Y172244D01*
X89174Y173897D01*
X88787Y175509D01*
X88153Y177040D01*
X87287Y178454D01*
X86210Y179714D01*
X84950Y180791D01*
X83536Y181657D01*
X82005Y182291D01*
X80393Y182678D01*
X78740Y182808D01*
D02*
G37*
G36*
X363000Y181006D02*
X362232Y180853D01*
X361582Y180418D01*
X361147Y179768D01*
X360995Y179000D01*
X361093Y178504D01*
Y171488D01*
X361238Y170758D01*
X361652Y170140D01*
X366913Y164879D01*
X366799Y164016D01*
X366924Y163065D01*
X367291Y162179D01*
X367875Y161418D01*
X368636Y160835D01*
X369522Y160468D01*
X370472Y160343D01*
X371423Y160468D01*
X372309Y160835D01*
X373070Y161418D01*
X373654Y162179D01*
X374020Y163065D01*
X374146Y164016D01*
X374020Y164966D01*
X373654Y165852D01*
X373070Y166613D01*
X372309Y167197D01*
X371423Y167564D01*
X370472Y167689D01*
X369609Y167575D01*
X364907Y172278D01*
Y178504D01*
X365005Y179000D01*
X364853Y179768D01*
X364418Y180418D01*
X363768Y180853D01*
X363000Y181006D01*
D02*
G37*
G36*
X172900Y159705D02*
X172133Y159553D01*
X171482Y159118D01*
X171478Y159113D01*
X170978D01*
X170975Y159118D01*
X170324Y159553D01*
X169557Y159705D01*
X168789Y159553D01*
X168139Y159118D01*
X167704Y158467D01*
X167551Y157700D01*
X167704Y156932D01*
X168139Y156282D01*
X168789Y155847D01*
X168933Y155819D01*
Y114455D01*
X167387Y112909D01*
X167104Y112486D01*
X167005Y111986D01*
Y66219D01*
X167104Y65720D01*
X167387Y65297D01*
X168564Y64120D01*
X168373Y63658D01*
X166669D01*
Y56776D01*
X173551D01*
Y63658D01*
X171785D01*
Y64049D01*
X171685Y64548D01*
X171956Y65043D01*
X171961D01*
X172460Y65143D01*
X172884Y65426D01*
X174310Y66852D01*
X175110Y66747D01*
X176008Y66865D01*
X176846Y67212D01*
X177564Y67763D01*
X178116Y68482D01*
X178463Y69319D01*
X178581Y70217D01*
X178463Y71116D01*
X178116Y71953D01*
X177564Y72671D01*
X176846Y73223D01*
X176008Y73570D01*
X175110Y73688D01*
X174212Y73570D01*
X173375Y73223D01*
X172656Y72671D01*
X172105Y71953D01*
X172096Y71931D01*
X171596Y72030D01*
Y110625D01*
X173141Y112171D01*
X173424Y112594D01*
X173523Y113094D01*
Y155819D01*
X173668Y155847D01*
X174318Y156282D01*
X174753Y156932D01*
X174906Y157700D01*
X174753Y158467D01*
X174318Y159118D01*
X173668Y159553D01*
X172900Y159705D01*
D02*
G37*
G36*
X339500Y176505D02*
X338733Y176353D01*
X338082Y175918D01*
X337647Y175268D01*
X337494Y174500D01*
X337647Y173732D01*
X338082Y173082D01*
X338733Y172647D01*
X339346Y172525D01*
X342495Y169377D01*
Y161287D01*
X342147Y160767D01*
X341995Y160000D01*
X342147Y159232D01*
X342582Y158582D01*
X343232Y158147D01*
X344000Y157994D01*
X344767Y158147D01*
X345418Y158582D01*
X345853Y159232D01*
X346006Y160000D01*
X345853Y160767D01*
X345505Y161287D01*
Y170000D01*
X345391Y170576D01*
X345064Y171064D01*
X341475Y174654D01*
X341353Y175268D01*
X340918Y175918D01*
X340267Y176353D01*
X339500Y176505D01*
D02*
G37*
G36*
X114173Y182808D02*
X112521Y182678D01*
X110909Y182291D01*
X109377Y181657D01*
X107964Y180791D01*
X106703Y179714D01*
X105627Y178454D01*
X104761Y177040D01*
X104126Y175509D01*
X103739Y173897D01*
X103609Y172244D01*
X103739Y170591D01*
X104126Y168980D01*
X104761Y167448D01*
X105627Y166035D01*
X106703Y164774D01*
X107964Y163698D01*
X109377Y162831D01*
X110909Y162197D01*
X112521Y161810D01*
X114173Y161680D01*
X114712Y161722D01*
X115079Y161383D01*
Y160335D01*
X115186Y159797D01*
X115491Y159341D01*
X116350Y158481D01*
X116295Y158200D01*
X116447Y157432D01*
X116882Y156782D01*
X117533Y156347D01*
X118300Y156194D01*
X119068Y156347D01*
X119718Y156782D01*
X120153Y157432D01*
X120306Y158200D01*
X120153Y158967D01*
X119718Y159618D01*
X119068Y160053D01*
X118675Y160131D01*
X117889Y160917D01*
Y162384D01*
X118969Y162831D01*
X120383Y163698D01*
X121643Y164774D01*
X122720Y166035D01*
X123586Y167448D01*
X124220Y168980D01*
X124607Y170591D01*
X124737Y172244D01*
X124607Y173897D01*
X124220Y175509D01*
X123586Y177040D01*
X122720Y178454D01*
X121643Y179714D01*
X120383Y180791D01*
X118969Y181657D01*
X117438Y182291D01*
X115826Y182678D01*
X114173Y182808D01*
D02*
G37*
G36*
X297443Y157442D02*
Y154726D01*
X300158D01*
X300112Y155080D01*
X299785Y155869D01*
X299264Y156548D01*
X298586Y157068D01*
X297796Y157395D01*
X297443Y157442D01*
D02*
G37*
G36*
X300158Y153738D02*
X297443D01*
Y151023D01*
X297796Y151069D01*
X298586Y151397D01*
X299264Y151917D01*
X299785Y152595D01*
X300112Y153385D01*
X300158Y153738D01*
D02*
G37*
G36*
X287500Y177506D02*
X286733Y177353D01*
X286082Y176918D01*
X285647Y176268D01*
X285494Y175500D01*
X285647Y174732D01*
X286082Y174082D01*
X286733Y173647D01*
X287500Y173495D01*
X287634Y173521D01*
X291695Y169460D01*
Y149994D01*
X291582Y149918D01*
X291147Y149267D01*
X290995Y148500D01*
X291147Y147732D01*
X291582Y147082D01*
X292232Y146647D01*
X293000Y146494D01*
X293767Y146647D01*
X294418Y147082D01*
X294853Y147732D01*
X295005Y148500D01*
X294853Y149267D01*
X294418Y149918D01*
X294305Y149994D01*
Y151563D01*
X294805Y151786D01*
X295312Y151397D01*
X296101Y151069D01*
X296455Y151023D01*
Y154232D01*
Y157442D01*
X296101Y157395D01*
X295312Y157068D01*
X294805Y156679D01*
X294305Y156902D01*
Y170000D01*
X294205Y170499D01*
X293922Y170923D01*
X289479Y175366D01*
X289506Y175500D01*
X289353Y176268D01*
X288918Y176918D01*
X288267Y177353D01*
X287500Y177506D01*
D02*
G37*
G36*
X370472Y157689D02*
X369522Y157564D01*
X368636Y157197D01*
X367875Y156613D01*
X367291Y155852D01*
X366924Y154966D01*
X366799Y154016D01*
X366924Y153065D01*
X367291Y152179D01*
X367875Y151418D01*
X368636Y150835D01*
X369522Y150468D01*
X370472Y150343D01*
X371423Y150468D01*
X372309Y150835D01*
X373070Y151418D01*
X373654Y152179D01*
X374020Y153065D01*
X374146Y154016D01*
X374020Y154966D01*
X373654Y155852D01*
X373070Y156613D01*
X372309Y157197D01*
X371423Y157564D01*
X370472Y157689D01*
D02*
G37*
G36*
X247864Y162769D02*
X247097Y162617D01*
X246446Y162182D01*
X246011Y161531D01*
X245859Y160764D01*
X246011Y159997D01*
X246446Y159346D01*
X246560Y159270D01*
Y154236D01*
X246659Y153737D01*
X246942Y153313D01*
X250021Y150234D01*
X249994Y150100D01*
X250147Y149332D01*
X250582Y148682D01*
X251233Y148247D01*
X252000Y148094D01*
X252767Y148247D01*
X253418Y148682D01*
X253853Y149332D01*
X254006Y150100D01*
X253853Y150867D01*
X253418Y151518D01*
X252767Y151953D01*
X252000Y152105D01*
X251866Y152079D01*
X249169Y154776D01*
Y159270D01*
X249282Y159346D01*
X249717Y159997D01*
X249869Y160764D01*
X249717Y161531D01*
X249282Y162182D01*
X248632Y162617D01*
X247864Y162769D01*
D02*
G37*
G36*
X318500Y147005D02*
X317733Y146853D01*
X317082Y146418D01*
X316647Y145767D01*
X316546Y145257D01*
X315603Y144314D01*
X299987D01*
X299918Y144418D01*
X299268Y144853D01*
X298500Y145006D01*
X297732Y144853D01*
X297082Y144418D01*
X296647Y143767D01*
X296495Y143000D01*
X296647Y142233D01*
X297082Y141582D01*
X297732Y141147D01*
X298500Y140995D01*
X299268Y141147D01*
X299918Y141582D01*
X299987Y141686D01*
X316147D01*
X316650Y141786D01*
X317076Y142071D01*
X318083Y143077D01*
X318500Y142994D01*
X319268Y143147D01*
X319918Y143582D01*
X320353Y144232D01*
X320505Y145000D01*
X320353Y145767D01*
X319918Y146418D01*
X319268Y146853D01*
X318500Y147005D01*
D02*
G37*
G36*
X240645Y154486D02*
X198779D01*
X198280Y154386D01*
X197857Y154104D01*
X188318Y144564D01*
X188035Y144141D01*
X187936Y143642D01*
Y92563D01*
X187474Y92371D01*
X185579Y94266D01*
X185606Y94400D01*
X185453Y95167D01*
X185018Y95818D01*
X184368Y96253D01*
X183600Y96406D01*
X182833Y96253D01*
X182182Y95818D01*
X181747Y95167D01*
X181595Y94400D01*
X181747Y93633D01*
X182182Y92982D01*
X182833Y92547D01*
X183600Y92395D01*
X183734Y92421D01*
X187936Y88219D01*
Y72952D01*
X187436Y72770D01*
X186846Y73223D01*
X186009Y73570D01*
X185110Y73688D01*
X184426Y73598D01*
X179907Y78117D01*
Y110327D01*
X180174Y110593D01*
X183004D01*
X183500Y110494D01*
X184267Y110647D01*
X184918Y111082D01*
X185353Y111732D01*
X185505Y112500D01*
X185353Y113268D01*
X184918Y113918D01*
X184497Y114199D01*
X180907Y117790D01*
Y137004D01*
X181006Y137500D01*
X180853Y138268D01*
X180418Y138918D01*
X179768Y139353D01*
X179000Y139506D01*
X178233Y139353D01*
X177582Y138918D01*
X177147Y138268D01*
X176995Y137500D01*
X177093Y137004D01*
Y117000D01*
X177238Y116270D01*
X177652Y115652D01*
X178585Y114719D01*
X178463Y114134D01*
X178035Y113848D01*
X176652Y112464D01*
X176238Y111846D01*
X176093Y111116D01*
Y77328D01*
X176238Y76598D01*
X176652Y75979D01*
X181730Y70901D01*
X181640Y70217D01*
X181758Y69319D01*
X182105Y68482D01*
X182656Y67763D01*
X183375Y67212D01*
X184212Y66865D01*
X184949Y66768D01*
X185174Y66286D01*
X181996Y63108D01*
X181846Y63223D01*
X181009Y63570D01*
X180110Y63688D01*
X179212Y63570D01*
X178375Y63223D01*
X177656Y62671D01*
X177105Y61953D01*
X176758Y61116D01*
X176640Y60217D01*
X176758Y59319D01*
X177105Y58482D01*
X177656Y57763D01*
X178375Y57212D01*
X179212Y56865D01*
X180110Y56747D01*
X181009Y56865D01*
X181846Y57212D01*
X182564Y57763D01*
X183116Y58482D01*
X183463Y59319D01*
X183581Y60217D01*
X183490Y60911D01*
X190163Y67584D01*
X190445Y68007D01*
X190545Y68507D01*
Y69933D01*
X190779Y70030D01*
X191045Y70093D01*
X191425Y69839D01*
X191697Y69785D01*
X191758Y69319D01*
X192105Y68482D01*
X192656Y67763D01*
X193375Y67212D01*
X194212Y66865D01*
X195110Y66747D01*
X196009Y66865D01*
X196846Y67212D01*
X197564Y67763D01*
X198116Y68482D01*
X198463Y69319D01*
X198581Y70217D01*
X198463Y71116D01*
X198116Y71953D01*
X197564Y72671D01*
X196846Y73223D01*
X196009Y73570D01*
X195110Y73688D01*
X194212Y73570D01*
X193375Y73223D01*
X193026Y72955D01*
X192526Y73202D01*
Y88881D01*
X196466Y92821D01*
X196600Y92795D01*
X197368Y92947D01*
X198018Y93382D01*
X198453Y94033D01*
X198606Y94800D01*
X198453Y95568D01*
X198018Y96218D01*
X197368Y96653D01*
X196600Y96806D01*
X195833Y96653D01*
X195182Y96218D01*
X194747Y95568D01*
X194595Y94800D01*
X194621Y94666D01*
X192988Y93033D01*
X192526Y93224D01*
Y142281D01*
X200140Y149895D01*
X239284D01*
X243513Y145666D01*
X243247Y145267D01*
X243094Y144500D01*
X243247Y143733D01*
X243682Y143082D01*
X244333Y142647D01*
X245100Y142494D01*
X245867Y142647D01*
X246518Y143082D01*
X246953Y143733D01*
X247050Y144224D01*
X247593Y144388D01*
X248504Y143477D01*
X248927Y143195D01*
X249426Y143095D01*
X254506D01*
X254582Y142982D01*
X255233Y142547D01*
X256000Y142394D01*
X256768Y142547D01*
X257418Y142982D01*
X257853Y143632D01*
X258005Y144400D01*
X257853Y145168D01*
X257418Y145818D01*
X256768Y146253D01*
X256000Y146405D01*
X255233Y146253D01*
X254582Y145818D01*
X254506Y145705D01*
X249967D01*
X241567Y154104D01*
X241144Y154386D01*
X240645Y154486D01*
D02*
G37*
G36*
X73821Y143170D02*
Y140455D01*
X76536D01*
X76490Y140808D01*
X76162Y141598D01*
X75642Y142276D01*
X74964Y142796D01*
X74174Y143123D01*
X73821Y143170D01*
D02*
G37*
G36*
X72833D02*
X72479Y143123D01*
X71689Y142796D01*
X71011Y142276D01*
X70491Y141598D01*
X70164Y140808D01*
X70117Y140455D01*
X72833D01*
Y143170D01*
D02*
G37*
G36*
X78700Y140006D02*
X77933Y139853D01*
X77282Y139418D01*
X77011Y139012D01*
X76952Y138924D01*
X76490Y139113D01*
X76500Y139196D01*
X76536Y139467D01*
X73821D01*
Y136751D01*
X74174Y136798D01*
X74964Y137125D01*
X75642Y137645D01*
X76162Y138323D01*
X76299Y138652D01*
X76329Y138725D01*
X76810Y138579D01*
X76786Y138461D01*
X76695Y138000D01*
X76847Y137232D01*
X77282Y136582D01*
X77315Y136560D01*
Y133483D01*
X77088Y133466D01*
X75476Y133079D01*
X73944Y132444D01*
X72531Y131578D01*
X71270Y130501D01*
X70194Y129241D01*
X69327Y127828D01*
X68693Y126296D01*
X68306Y124684D01*
X68176Y123031D01*
X68306Y121379D01*
X68693Y119767D01*
X69327Y118236D01*
X70194Y116822D01*
X71270Y115562D01*
X72531Y114485D01*
X73944Y113619D01*
X75476Y112985D01*
X77088Y112598D01*
X78740Y112467D01*
X80393Y112598D01*
X82005Y112985D01*
X83536Y113619D01*
X84950Y114485D01*
X86210Y115562D01*
X87287Y116822D01*
X88153Y118236D01*
X88787Y119767D01*
X89174Y121379D01*
X89304Y123031D01*
X89174Y124684D01*
X88787Y126296D01*
X88153Y127828D01*
X87287Y129241D01*
X86210Y130501D01*
X84950Y131578D01*
X83536Y132444D01*
X82005Y133079D01*
X80393Y133466D01*
X80125Y133487D01*
Y136592D01*
X80553Y137232D01*
X80705Y138000D01*
X80553Y138768D01*
X80118Y139418D01*
X79467Y139853D01*
X78700Y140006D01*
D02*
G37*
G36*
X223624Y141201D02*
Y138486D01*
X226339D01*
X226293Y138840D01*
X225966Y139629D01*
X225445Y140307D01*
X224767Y140828D01*
X223977Y141155D01*
X223624Y141201D01*
D02*
G37*
G36*
X222636D02*
X222282Y141155D01*
X221493Y140828D01*
X220814Y140307D01*
X220294Y139629D01*
X219967Y138840D01*
X219920Y138486D01*
X222636D01*
Y141201D01*
D02*
G37*
G36*
X72833Y139467D02*
X70117D01*
X70164Y139113D01*
X70491Y138323D01*
X71011Y137645D01*
X71689Y137125D01*
X72479Y136798D01*
X72833Y136751D01*
Y139467D01*
D02*
G37*
G36*
X288400Y157806D02*
X287632Y157653D01*
X286982Y157218D01*
X286547Y156568D01*
X286395Y155800D01*
X286547Y155033D01*
X286982Y154382D01*
X287188Y154244D01*
Y144728D01*
X287280Y144264D01*
X287543Y143871D01*
X294548Y136865D01*
X294403Y136387D01*
X294233Y136353D01*
X293582Y135918D01*
X293444Y135712D01*
X281056D01*
X280918Y135918D01*
X280268Y136353D01*
X279500Y136505D01*
X278732Y136353D01*
X278082Y135918D01*
X277647Y135267D01*
X277495Y134500D01*
X277647Y133732D01*
X278082Y133082D01*
X278732Y132647D01*
X279500Y132494D01*
X280268Y132647D01*
X280918Y133082D01*
X281056Y133288D01*
X293444D01*
X293582Y133082D01*
X294233Y132647D01*
X295000Y132494D01*
X295767Y132647D01*
X296418Y133082D01*
X296853Y133732D01*
X296887Y133903D01*
X297365Y134048D01*
X310488Y120926D01*
Y87285D01*
X310212Y87069D01*
X309712Y87263D01*
Y114000D01*
X309620Y114464D01*
X309357Y114857D01*
X303874Y120340D01*
X304006Y121000D01*
X303853Y121767D01*
X303418Y122418D01*
X302767Y122853D01*
X302000Y123005D01*
X301233Y122853D01*
X300582Y122418D01*
X300147Y121767D01*
X299994Y121000D01*
X300147Y120232D01*
X300582Y119582D01*
X301233Y119147D01*
X301739Y119046D01*
X307288Y113498D01*
Y75556D01*
X307082Y75418D01*
X306647Y74768D01*
X306494Y74000D01*
X306647Y73233D01*
X307082Y72582D01*
X307733Y72147D01*
X308500Y71995D01*
X309267Y72147D01*
X309918Y72582D01*
X310353Y73233D01*
X310506Y74000D01*
X310353Y74768D01*
X309918Y75418D01*
X309712Y75556D01*
Y84135D01*
X310212Y84286D01*
X310282Y84182D01*
X310932Y83747D01*
X311700Y83595D01*
X312468Y83747D01*
X313118Y84182D01*
X313553Y84833D01*
X313705Y85600D01*
X313553Y86367D01*
X313118Y87018D01*
X312912Y87156D01*
Y121428D01*
X312820Y121892D01*
X312557Y122285D01*
X289612Y145230D01*
Y154244D01*
X289818Y154382D01*
X290253Y155033D01*
X290406Y155800D01*
X290253Y156568D01*
X289818Y157218D01*
X289167Y157653D01*
X288400Y157806D01*
D02*
G37*
G36*
X226339Y137498D02*
X223624D01*
Y134783D01*
X223977Y134829D01*
X224767Y135156D01*
X225445Y135677D01*
X225966Y136355D01*
X226293Y137145D01*
X226339Y137498D01*
D02*
G37*
G36*
X222636D02*
X219920D01*
X219967Y137145D01*
X220294Y136355D01*
X220814Y135677D01*
X221493Y135156D01*
X222282Y134829D01*
X222636Y134783D01*
Y137498D01*
D02*
G37*
G36*
X137900Y187505D02*
X137133Y187353D01*
X136482Y186918D01*
X136047Y186267D01*
X135895Y185500D01*
X136047Y184732D01*
X136482Y184082D01*
X137094Y183673D01*
Y132187D01*
X136947Y131967D01*
X136794Y131200D01*
X136947Y130432D01*
X137382Y129782D01*
X138032Y129347D01*
X138800Y129194D01*
X139567Y129347D01*
X140218Y129782D01*
X140653Y130432D01*
X140805Y131200D01*
X140653Y131967D01*
X140506Y132187D01*
Y184441D01*
X140376Y185094D01*
X140006Y185647D01*
X139844Y185810D01*
X139753Y186267D01*
X139318Y186918D01*
X138668Y187353D01*
X137900Y187505D01*
D02*
G37*
G36*
X284648Y129489D02*
Y126774D01*
X287363D01*
X287316Y127127D01*
X286989Y127917D01*
X286469Y128595D01*
X285791Y129115D01*
X285001Y129442D01*
X284648Y129489D01*
D02*
G37*
G36*
X283660D02*
X283306Y129442D01*
X282516Y129115D01*
X281838Y128595D01*
X281318Y127917D01*
X280991Y127127D01*
X280944Y126774D01*
X283660D01*
Y129489D01*
D02*
G37*
G36*
X287363Y125785D02*
X284648D01*
Y123070D01*
X285001Y123117D01*
X285791Y123444D01*
X286469Y123964D01*
X286989Y124642D01*
X287316Y125432D01*
X287363Y125785D01*
D02*
G37*
G36*
X283660D02*
X280944D01*
X280991Y125432D01*
X281318Y124642D01*
X281838Y123964D01*
X282516Y123444D01*
X283306Y123117D01*
X283660Y123070D01*
Y125785D01*
D02*
G37*
G36*
X347894Y129624D02*
Y119494D01*
X358024D01*
X357931Y120668D01*
X357541Y122295D01*
X356901Y123841D01*
X356026Y125267D01*
X354940Y126540D01*
X353667Y127626D01*
X352241Y128501D01*
X350695Y129141D01*
X349068Y129532D01*
X347894Y129624D01*
D02*
G37*
G36*
X346906D02*
X345732Y129532D01*
X344105Y129141D01*
X342559Y128501D01*
X341133Y127626D01*
X339860Y126540D01*
X338774Y125267D01*
X337899Y123841D01*
X337259Y122295D01*
X336869Y120668D01*
X336776Y119494D01*
X346906D01*
Y129624D01*
D02*
G37*
G36*
X38706Y129524D02*
X37532Y129431D01*
X35905Y129041D01*
X34359Y128401D01*
X32933Y127526D01*
X31660Y126440D01*
X30574Y125167D01*
X29699Y123741D01*
X29059Y122195D01*
X28668Y120568D01*
X28576Y119394D01*
X38706D01*
Y129524D01*
D02*
G37*
G36*
X257187Y122009D02*
Y119293D01*
X259902D01*
X259856Y119647D01*
X259529Y120436D01*
X259008Y121115D01*
X258330Y121635D01*
X257540Y121962D01*
X257187Y122009D01*
D02*
G37*
G36*
X256199D02*
X255845Y121962D01*
X255056Y121635D01*
X254378Y121115D01*
X253857Y120436D01*
X253530Y119647D01*
X253484Y119293D01*
X256199D01*
Y122009D01*
D02*
G37*
G36*
X259902Y118305D02*
X257187D01*
Y115590D01*
X257540Y115636D01*
X258330Y115963D01*
X259008Y116484D01*
X259529Y117162D01*
X259856Y117952D01*
X259902Y118305D01*
D02*
G37*
G36*
X256199D02*
X253484D01*
X253530Y117952D01*
X253857Y117162D01*
X254378Y116484D01*
X255056Y115963D01*
X255845Y115636D01*
X256199Y115590D01*
Y118305D01*
D02*
G37*
G36*
X113800Y139406D02*
X113032Y139253D01*
X112382Y138818D01*
X111947Y138168D01*
X111794Y137400D01*
X111947Y136633D01*
X112382Y135982D01*
X112582Y135848D01*
Y133470D01*
X112521Y133466D01*
X110909Y133079D01*
X109377Y132444D01*
X107964Y131578D01*
X106703Y130501D01*
X105627Y129241D01*
X104761Y127828D01*
X104126Y126296D01*
X103739Y124684D01*
X103609Y123031D01*
X103739Y121379D01*
X104126Y119767D01*
X104761Y118236D01*
X105627Y116822D01*
X106703Y115562D01*
X107964Y114485D01*
X109377Y113619D01*
X110909Y112985D01*
X112521Y112598D01*
X114173Y112467D01*
X115826Y112598D01*
X117438Y112985D01*
X118969Y113619D01*
X120383Y114485D01*
X121643Y115562D01*
X122720Y116822D01*
X123586Y118236D01*
X124220Y119767D01*
X124607Y121379D01*
X124737Y123031D01*
X124607Y124684D01*
X124220Y126296D01*
X123586Y127828D01*
X122720Y129241D01*
X121643Y130501D01*
X120383Y131578D01*
X118969Y132444D01*
X117438Y133079D01*
X115826Y133466D01*
X115392Y133500D01*
Y136242D01*
X115653Y136633D01*
X115805Y137400D01*
X115653Y138168D01*
X115218Y138818D01*
X114567Y139253D01*
X113800Y139406D01*
D02*
G37*
G36*
X358024Y118506D02*
X347894D01*
Y108376D01*
X349068Y108468D01*
X350695Y108859D01*
X352241Y109499D01*
X353667Y110374D01*
X354940Y111460D01*
X356026Y112733D01*
X356901Y114159D01*
X357541Y115705D01*
X357931Y117332D01*
X358024Y118506D01*
D02*
G37*
G36*
X346906D02*
X336776D01*
X336869Y117332D01*
X337259Y115705D01*
X337899Y114159D01*
X338774Y112733D01*
X339860Y111460D01*
X341133Y110374D01*
X342559Y109499D01*
X344105Y108859D01*
X345732Y108468D01*
X346906Y108376D01*
Y118506D01*
D02*
G37*
G36*
X38706Y118406D02*
X28576D01*
X28668Y117232D01*
X29059Y115605D01*
X29699Y114059D01*
X30574Y112633D01*
X31660Y111360D01*
X32933Y110274D01*
X34359Y109399D01*
X35905Y108759D01*
X37532Y108369D01*
X38706Y108276D01*
Y118406D01*
D02*
G37*
G36*
X147619Y89135D02*
Y86419D01*
X150335D01*
X150288Y86773D01*
X149961Y87562D01*
X149441Y88241D01*
X148762Y88761D01*
X147973Y89088D01*
X147619Y89135D01*
D02*
G37*
G36*
X146631D02*
X146278Y89088D01*
X145488Y88761D01*
X144810Y88241D01*
X144289Y87562D01*
X143962Y86773D01*
X143916Y86419D01*
X146631D01*
Y89135D01*
D02*
G37*
G36*
X125195D02*
X124841Y89088D01*
X124052Y88761D01*
X123374Y88241D01*
X122853Y87562D01*
X122526Y86773D01*
X122480Y86419D01*
X125195D01*
Y89135D01*
D02*
G37*
G36*
X104333Y88052D02*
Y85337D01*
X107048D01*
X107001Y85690D01*
X106674Y86480D01*
X106154Y87158D01*
X105476Y87678D01*
X104686Y88005D01*
X104333Y88052D01*
D02*
G37*
G36*
X103345D02*
X102991Y88005D01*
X102201Y87678D01*
X101523Y87158D01*
X101003Y86480D01*
X100676Y85690D01*
X100629Y85337D01*
X103345D01*
Y88052D01*
D02*
G37*
G36*
X150335Y85431D02*
X147619D01*
Y82716D01*
X147973Y82762D01*
X148762Y83089D01*
X149441Y83610D01*
X149961Y84288D01*
X150288Y85078D01*
X150335Y85431D01*
D02*
G37*
G36*
X146631D02*
X143916D01*
X143962Y85078D01*
X144289Y84288D01*
X144810Y83610D01*
X145488Y83089D01*
X146278Y82762D01*
X146631Y82716D01*
Y85431D01*
D02*
G37*
G36*
X125195D02*
X122480D01*
X122526Y85078D01*
X122853Y84288D01*
X123374Y83610D01*
X124052Y83089D01*
X124841Y82762D01*
X125195Y82716D01*
Y85431D01*
D02*
G37*
G36*
X107048Y84348D02*
X104333D01*
Y81633D01*
X104686Y81680D01*
X105476Y82007D01*
X106154Y82527D01*
X106674Y83205D01*
X107001Y83995D01*
X107048Y84348D01*
D02*
G37*
G36*
X103345D02*
X100629D01*
X100676Y83995D01*
X101003Y83205D01*
X101523Y82527D01*
X102201Y82007D01*
X102991Y81680D01*
X103345Y81633D01*
Y84348D01*
D02*
G37*
G36*
X301000Y117006D02*
X300233Y116853D01*
X299582Y116418D01*
X299147Y115768D01*
X298994Y115000D01*
X299147Y114233D01*
X299582Y113582D01*
X300233Y113147D01*
X301000Y112995D01*
X301243Y113043D01*
X303288Y110998D01*
Y82056D01*
X303082Y81918D01*
X302647Y81267D01*
X302495Y80500D01*
X302647Y79733D01*
X303082Y79082D01*
X303732Y78647D01*
X304500Y78495D01*
X305268Y78647D01*
X305918Y79082D01*
X306353Y79733D01*
X306505Y80500D01*
X306353Y81267D01*
X305918Y81918D01*
X305712Y82056D01*
Y111500D01*
X305620Y111964D01*
X305357Y112357D01*
X302957Y114757D01*
X303006Y115000D01*
X302853Y115768D01*
X302418Y116418D01*
X301767Y116853D01*
X301000Y117006D01*
D02*
G37*
G36*
X318112Y73583D02*
Y70868D01*
X320828D01*
X320781Y71222D01*
X320454Y72011D01*
X319934Y72689D01*
X319255Y73210D01*
X318466Y73537D01*
X318112Y73583D01*
D02*
G37*
G36*
X317124D02*
X316771Y73537D01*
X315981Y73210D01*
X315303Y72689D01*
X314782Y72011D01*
X314455Y71222D01*
X314409Y70868D01*
X317124D01*
Y73583D01*
D02*
G37*
G36*
X261715D02*
Y70868D01*
X264430D01*
X264383Y71222D01*
X264056Y72011D01*
X263536Y72689D01*
X262858Y73210D01*
X262068Y73537D01*
X261715Y73583D01*
D02*
G37*
G36*
X260726D02*
X260373Y73537D01*
X259583Y73210D01*
X258905Y72689D01*
X258385Y72011D01*
X258058Y71222D01*
X258011Y70868D01*
X260726D01*
Y73583D01*
D02*
G37*
G36*
X320828Y69880D02*
X318112D01*
Y67165D01*
X318466Y67211D01*
X319255Y67538D01*
X319934Y68059D01*
X320454Y68737D01*
X320781Y69526D01*
X320828Y69880D01*
D02*
G37*
G36*
X317124D02*
X314409D01*
X314455Y69526D01*
X314782Y68737D01*
X315303Y68059D01*
X315981Y67538D01*
X316771Y67211D01*
X317124Y67165D01*
Y69880D01*
D02*
G37*
G36*
X264430D02*
X261715D01*
Y67165D01*
X262068Y67211D01*
X262858Y67538D01*
X263536Y68059D01*
X264056Y68737D01*
X264383Y69526D01*
X264430Y69880D01*
D02*
G37*
G36*
X260726D02*
X258011D01*
X258058Y69526D01*
X258385Y68737D01*
X258905Y68059D01*
X259583Y67538D01*
X260373Y67211D01*
X260726Y67165D01*
Y69880D01*
D02*
G37*
G36*
X205110Y73688D02*
X204212Y73570D01*
X203375Y73223D01*
X202656Y72671D01*
X202105Y71953D01*
X201758Y71116D01*
X201640Y70217D01*
X201758Y69319D01*
X202105Y68482D01*
X202656Y67763D01*
X203375Y67212D01*
X204212Y66865D01*
X205110Y66747D01*
X206009Y66865D01*
X206846Y67212D01*
X207564Y67763D01*
X208116Y68482D01*
X208463Y69319D01*
X208581Y70217D01*
X208463Y71116D01*
X208116Y71953D01*
X207564Y72671D01*
X206846Y73223D01*
X206009Y73570D01*
X205110Y73688D01*
D02*
G37*
G36*
X261715Y60591D02*
Y57876D01*
X264430D01*
X264383Y58229D01*
X264056Y59019D01*
X263536Y59697D01*
X262858Y60218D01*
X262068Y60545D01*
X261715Y60591D01*
D02*
G37*
G36*
X260726D02*
X260373Y60545D01*
X259583Y60218D01*
X258905Y59697D01*
X258385Y59019D01*
X258058Y58229D01*
X258011Y57876D01*
X260726D01*
Y60591D01*
D02*
G37*
G36*
X200110Y63688D02*
X199212Y63570D01*
X198375Y63223D01*
X197656Y62671D01*
X197105Y61953D01*
X196758Y61116D01*
X196640Y60217D01*
X196758Y59319D01*
X197105Y58482D01*
X197656Y57763D01*
X198375Y57212D01*
X199212Y56865D01*
X200110Y56747D01*
X201009Y56865D01*
X201846Y57212D01*
X202564Y57763D01*
X203116Y58482D01*
X203463Y59319D01*
X203581Y60217D01*
X203463Y61116D01*
X203116Y61953D01*
X202564Y62671D01*
X201846Y63223D01*
X201009Y63570D01*
X200110Y63688D01*
D02*
G37*
G36*
X121065Y57540D02*
Y54825D01*
X123780D01*
X123734Y55178D01*
X123407Y55968D01*
X122886Y56646D01*
X122208Y57166D01*
X121418Y57494D01*
X121065Y57540D01*
D02*
G37*
G36*
X120077D02*
X119723Y57494D01*
X118934Y57166D01*
X118255Y56646D01*
X117735Y55968D01*
X117408Y55178D01*
X117361Y54825D01*
X120077D01*
Y57540D01*
D02*
G37*
G36*
X264430Y56888D02*
X261715D01*
Y54172D01*
X262068Y54219D01*
X262858Y54546D01*
X263536Y55067D01*
X264056Y55745D01*
X264383Y56534D01*
X264430Y56888D01*
D02*
G37*
G36*
X260726D02*
X258011D01*
X258058Y56534D01*
X258385Y55745D01*
X258905Y55067D01*
X259583Y54546D01*
X260373Y54219D01*
X260726Y54172D01*
Y56888D01*
D02*
G37*
G36*
X81006Y54686D02*
Y51970D01*
X83721D01*
X83675Y52324D01*
X83348Y53114D01*
X82827Y53792D01*
X82149Y54312D01*
X81359Y54639D01*
X81006Y54686D01*
D02*
G37*
G36*
X80018D02*
X79664Y54639D01*
X78875Y54312D01*
X78196Y53792D01*
X77676Y53114D01*
X77349Y52324D01*
X77302Y51970D01*
X80018D01*
Y54686D01*
D02*
G37*
G36*
X67915Y54095D02*
Y51380D01*
X70631D01*
X70584Y51733D01*
X70257Y52523D01*
X69737Y53201D01*
X69059Y53722D01*
X68269Y54049D01*
X67915Y54095D01*
D02*
G37*
G36*
X66927D02*
X66574Y54049D01*
X65784Y53722D01*
X65106Y53201D01*
X64586Y52523D01*
X64258Y51733D01*
X64212Y51380D01*
X66927D01*
Y54095D01*
D02*
G37*
G36*
X123780Y53837D02*
X121065D01*
Y51121D01*
X121418Y51168D01*
X122208Y51495D01*
X122886Y52015D01*
X123407Y52693D01*
X123734Y53483D01*
X123780Y53837D01*
D02*
G37*
G36*
X120077D02*
X117361D01*
X117408Y53483D01*
X117735Y52693D01*
X118255Y52015D01*
X118934Y51495D01*
X119723Y51168D01*
X120077Y51121D01*
Y53837D01*
D02*
G37*
G36*
X83721Y50982D02*
X81006D01*
Y48267D01*
X81359Y48314D01*
X82149Y48641D01*
X82827Y49161D01*
X83348Y49839D01*
X83675Y50629D01*
X83721Y50982D01*
D02*
G37*
G36*
X70631Y50392D02*
X67915D01*
Y47676D01*
X68269Y47723D01*
X69059Y48050D01*
X69737Y48570D01*
X70257Y49249D01*
X70584Y50038D01*
X70631Y50392D01*
D02*
G37*
G36*
X66927D02*
X64212D01*
X64258Y50038D01*
X64586Y49249D01*
X65106Y48570D01*
X65784Y48050D01*
X66574Y47723D01*
X66927Y47676D01*
Y50392D01*
D02*
G37*
G36*
X218122Y52775D02*
X216686Y52586D01*
X215347Y52031D01*
X214198Y51149D01*
X213316Y50000D01*
X212762Y48662D01*
X212573Y47225D01*
X212762Y45789D01*
X213316Y44451D01*
X214198Y43301D01*
X215347Y42419D01*
X216686Y41865D01*
X218122Y41676D01*
X219558Y41865D01*
X220897Y42419D01*
X222046Y43301D01*
X222928Y44451D01*
X223482Y45789D01*
X223672Y47225D01*
X223482Y48662D01*
X222928Y50000D01*
X222046Y51149D01*
X220897Y52031D01*
X219558Y52586D01*
X218122Y52775D01*
D02*
G37*
G36*
X157138D02*
X155701Y52586D01*
X154363Y52031D01*
X153214Y51149D01*
X152332Y50000D01*
X151777Y48662D01*
X151588Y47225D01*
X151777Y45789D01*
X152332Y44451D01*
X153214Y43301D01*
X154363Y42419D01*
X155701Y41865D01*
X157138Y41676D01*
X158574Y41865D01*
X159913Y42419D01*
X161062Y43301D01*
X161944Y44451D01*
X162498Y45789D01*
X162687Y47225D01*
X162498Y48662D01*
X161944Y50000D01*
X161062Y51149D01*
X159913Y52031D01*
X158574Y52586D01*
X157138Y52775D01*
D02*
G37*
G36*
X237000Y131006D02*
X236232Y130853D01*
X235582Y130418D01*
X235147Y129768D01*
X234995Y129000D01*
X235147Y128233D01*
X235582Y127582D01*
X235695Y127506D01*
Y44500D01*
X235795Y44001D01*
X236077Y43578D01*
X238578Y41078D01*
X239001Y40795D01*
X239500Y40695D01*
X243006D01*
X243082Y40582D01*
X243733Y40147D01*
X244500Y39994D01*
X245268Y40147D01*
X245918Y40582D01*
X246353Y41232D01*
X246505Y42000D01*
X246353Y42768D01*
X245918Y43418D01*
X245268Y43853D01*
X244500Y44006D01*
X243733Y43853D01*
X243082Y43418D01*
X243006Y43305D01*
X240040D01*
X238305Y45040D01*
Y127506D01*
X238418Y127582D01*
X238853Y128233D01*
X239005Y129000D01*
X238853Y129768D01*
X238418Y130418D01*
X237768Y130853D01*
X237000Y131006D01*
D02*
G37*
G36*
X44000Y196505D02*
X43233Y196353D01*
X42582Y195918D01*
X42147Y195267D01*
X41995Y194500D01*
X42147Y193733D01*
X42495Y193212D01*
Y182123D01*
X36337Y175966D01*
X36011Y175478D01*
X35896Y174902D01*
Y154167D01*
X24526Y142797D01*
X24200Y142308D01*
X24085Y141732D01*
Y114173D01*
X24200Y113597D01*
X24526Y113109D01*
X37995Y99640D01*
Y39788D01*
X37647Y39268D01*
X37495Y38500D01*
X37647Y37732D01*
X38082Y37082D01*
X38732Y36647D01*
X39500Y36494D01*
X40268Y36647D01*
X40918Y37082D01*
X41353Y37732D01*
X41506Y38500D01*
X41353Y39268D01*
X41005Y39788D01*
Y100264D01*
X40891Y100840D01*
X40564Y101328D01*
X27096Y114797D01*
Y141109D01*
X38466Y152479D01*
X38466Y152479D01*
X38792Y152967D01*
X38907Y153543D01*
Y174278D01*
X45064Y180436D01*
X45391Y180924D01*
X45505Y181500D01*
Y193212D01*
X45853Y193733D01*
X46005Y194500D01*
X45853Y195267D01*
X45418Y195918D01*
X44767Y196353D01*
X44000Y196505D01*
D02*
G37*
G36*
X53545Y32540D02*
Y29825D01*
X56261D01*
X56214Y30178D01*
X55887Y30968D01*
X55367Y31646D01*
X54688Y32166D01*
X53899Y32494D01*
X53545Y32540D01*
D02*
G37*
G36*
X52557D02*
X52204Y32494D01*
X51414Y32166D01*
X50736Y31646D01*
X50215Y30968D01*
X49888Y30178D01*
X49842Y29825D01*
X52557D01*
Y32540D01*
D02*
G37*
G36*
X210130Y42338D02*
X208741Y42201D01*
X207405Y41796D01*
X206174Y41138D01*
X205095Y40253D01*
X204209Y39173D01*
X203551Y37942D01*
X203146Y36606D01*
X203009Y35217D01*
X203146Y33828D01*
X203551Y32492D01*
X204209Y31261D01*
X205095Y30182D01*
X206174Y29296D01*
X207405Y28638D01*
X208741Y28233D01*
X210130Y28096D01*
X211519Y28233D01*
X212855Y28638D01*
X214086Y29296D01*
X215165Y30182D01*
X216051Y31261D01*
X216709Y32492D01*
X217114Y33828D01*
X217251Y35217D01*
X217114Y36606D01*
X216709Y37942D01*
X216051Y39173D01*
X215165Y40253D01*
X214086Y41138D01*
X212855Y41796D01*
X211519Y42201D01*
X210130Y42338D01*
D02*
G37*
G36*
X165130D02*
X163741Y42201D01*
X162405Y41796D01*
X161174Y41138D01*
X160095Y40253D01*
X159209Y39173D01*
X158551Y37942D01*
X158146Y36606D01*
X158009Y35217D01*
X158146Y33828D01*
X158551Y32492D01*
X159209Y31261D01*
X160095Y30182D01*
X161174Y29296D01*
X162405Y28638D01*
X163741Y28233D01*
X165130Y28096D01*
X166519Y28233D01*
X167855Y28638D01*
X169086Y29296D01*
X170165Y30182D01*
X171051Y31261D01*
X171709Y32492D01*
X172114Y33828D01*
X172251Y35217D01*
X172114Y36606D01*
X171709Y37942D01*
X171051Y39173D01*
X170165Y40253D01*
X169086Y41138D01*
X167855Y41796D01*
X166519Y42201D01*
X165130Y42338D01*
D02*
G37*
G36*
X56261Y28837D02*
X53545D01*
Y26121D01*
X53899Y26168D01*
X54688Y26495D01*
X55367Y27015D01*
X55887Y27694D01*
X56214Y28483D01*
X56261Y28837D01*
D02*
G37*
G36*
X52557D02*
X49842D01*
X49888Y28483D01*
X50215Y27694D01*
X50736Y27015D01*
X51414Y26495D01*
X52204Y26168D01*
X52557Y26121D01*
Y28837D01*
D02*
G37*
G36*
X98500Y55506D02*
X97733Y55353D01*
X97082Y54918D01*
X96647Y54268D01*
X96495Y53500D01*
X96647Y52732D01*
X96995Y52213D01*
Y42623D01*
X83346Y28975D01*
X82732Y28853D01*
X82082Y28418D01*
X81647Y27768D01*
X81494Y27000D01*
X81647Y26232D01*
X82082Y25582D01*
X82732Y25147D01*
X83500Y24994D01*
X84267Y25147D01*
X84918Y25582D01*
X85353Y26232D01*
X85475Y26846D01*
X99564Y40936D01*
X99891Y41424D01*
X100005Y42000D01*
Y52213D01*
X100353Y52732D01*
X100505Y53500D01*
X100353Y54268D01*
X99918Y54918D01*
X99268Y55353D01*
X98500Y55506D01*
D02*
G37*
G36*
X98919Y27324D02*
Y24608D01*
X101635D01*
X101588Y24962D01*
X101261Y25751D01*
X100741Y26430D01*
X100062Y26950D01*
X99273Y27277D01*
X98919Y27324D01*
D02*
G37*
G36*
X97931D02*
X97578Y27277D01*
X96788Y26950D01*
X96110Y26430D01*
X95589Y25751D01*
X95262Y24962D01*
X95216Y24608D01*
X97931D01*
Y27324D01*
D02*
G37*
G36*
X101635Y23620D02*
X98919D01*
Y20905D01*
X99273Y20951D01*
X100062Y21278D01*
X100741Y21799D01*
X101261Y22477D01*
X101588Y23267D01*
X101635Y23620D01*
D02*
G37*
G36*
X97931D02*
X95216D01*
X95262Y23267D01*
X95589Y22477D01*
X96110Y21799D01*
X96788Y21278D01*
X97578Y20951D01*
X97931Y20905D01*
Y23620D01*
D02*
G37*
G36*
X61222Y21123D02*
Y18407D01*
X63938D01*
X63891Y18761D01*
X63564Y19551D01*
X63044Y20229D01*
X62366Y20749D01*
X61576Y21076D01*
X61222Y21123D01*
D02*
G37*
G36*
X60234D02*
X59881Y21076D01*
X59091Y20749D01*
X58413Y20229D01*
X57893Y19551D01*
X57565Y18761D01*
X57519Y18407D01*
X60234D01*
Y21123D01*
D02*
G37*
G36*
X63938Y17419D02*
X61222D01*
Y14704D01*
X61576Y14751D01*
X62366Y15078D01*
X63044Y15598D01*
X63564Y16276D01*
X63891Y17066D01*
X63938Y17419D01*
D02*
G37*
G36*
X60234D02*
X57519D01*
X57565Y17066D01*
X57893Y16276D01*
X58413Y15598D01*
X59091Y15078D01*
X59881Y14751D01*
X60234Y14704D01*
Y17419D01*
D02*
G37*
G36*
X102033Y20984D02*
X101314Y20890D01*
X100643Y20612D01*
X100067Y20170D01*
X99626Y19595D01*
X99348Y18924D01*
X99253Y18205D01*
Y17417D01*
X99348Y16698D01*
X99626Y16027D01*
X100067Y15452D01*
X100643Y15010D01*
X101314Y14732D01*
X102033Y14638D01*
X102752Y14732D01*
X103423Y15010D01*
X103999Y15452D01*
X104440Y16027D01*
X104718Y16698D01*
X104813Y17417D01*
Y18205D01*
X104718Y18924D01*
X104440Y19595D01*
X103999Y20170D01*
X103423Y20612D01*
X102752Y20890D01*
X102033Y20984D01*
D02*
G37*
G36*
X84513D02*
X83794Y20890D01*
X83124Y20612D01*
X82548Y20170D01*
X82106Y19595D01*
X81828Y18924D01*
X81734Y18205D01*
Y17417D01*
X81828Y16698D01*
X82106Y16027D01*
X82548Y15452D01*
X83124Y15010D01*
X83794Y14732D01*
X84513Y14638D01*
X85233Y14732D01*
X85903Y15010D01*
X86479Y15452D01*
X86921Y16027D01*
X87198Y16698D01*
X87293Y17417D01*
Y18205D01*
X87198Y18924D01*
X86921Y19595D01*
X86479Y20170D01*
X85903Y20612D01*
X85233Y20890D01*
X84513Y20984D01*
D02*
G37*
G36*
X190110Y63688D02*
X189212Y63570D01*
X188375Y63223D01*
X187656Y62671D01*
X187105Y61953D01*
X186758Y61116D01*
X186640Y60217D01*
X186758Y59319D01*
X187105Y58482D01*
X187656Y57763D01*
X188204Y57343D01*
Y45279D01*
X162463Y19538D01*
X161547Y19659D01*
X160581Y19532D01*
X159681Y19159D01*
X158908Y18565D01*
X158315Y17792D01*
X157942Y16892D01*
X157815Y15926D01*
X157942Y14960D01*
X158315Y14060D01*
X158908Y13287D01*
X159681Y12693D01*
X160581Y12320D01*
X161547Y12193D01*
X162513Y12320D01*
X163414Y12693D01*
X164187Y13287D01*
X164780Y14060D01*
X165153Y14960D01*
X165280Y15926D01*
X165159Y16842D01*
X187742Y39424D01*
X188204Y39233D01*
Y29390D01*
X188349Y28660D01*
X188762Y28041D01*
X195652Y21152D01*
X196270Y20738D01*
X197000Y20593D01*
X206349D01*
X210100Y16842D01*
X209980Y15926D01*
X210107Y14960D01*
X210480Y14060D01*
X211073Y13287D01*
X211846Y12693D01*
X212747Y12320D01*
X213713Y12193D01*
X214679Y12320D01*
X215579Y12693D01*
X216352Y13287D01*
X216945Y14060D01*
X217318Y14960D01*
X217445Y15926D01*
X217318Y16892D01*
X216945Y17792D01*
X216352Y18565D01*
X215579Y19159D01*
X214679Y19532D01*
X213713Y19659D01*
X212797Y19538D01*
X208487Y23848D01*
X207868Y24262D01*
X207139Y24407D01*
X197790D01*
X192017Y30180D01*
Y44489D01*
Y57343D01*
X192564Y57763D01*
X193116Y58482D01*
X193463Y59319D01*
X193581Y60217D01*
X193463Y61116D01*
X193116Y61953D01*
X192564Y62671D01*
X191846Y63223D01*
X191008Y63570D01*
X190110Y63688D01*
D02*
G37*
G36*
X203713Y19659D02*
X202747Y19532D01*
X201846Y19159D01*
X201073Y18565D01*
X200480Y17792D01*
X200107Y16892D01*
X199980Y15926D01*
X200107Y14960D01*
X200480Y14060D01*
X201073Y13287D01*
X201846Y12693D01*
X202747Y12320D01*
X203713Y12193D01*
X204679Y12320D01*
X205579Y12693D01*
X206352Y13287D01*
X206945Y14060D01*
X207318Y14960D01*
X207445Y15926D01*
X207318Y16892D01*
X206945Y17792D01*
X206352Y18565D01*
X205579Y19159D01*
X204679Y19532D01*
X203713Y19659D01*
D02*
G37*
G36*
X171547D02*
X170581Y19532D01*
X169681Y19159D01*
X168908Y18565D01*
X168315Y17792D01*
X167942Y16892D01*
X167815Y15926D01*
X167942Y14960D01*
X168315Y14060D01*
X168908Y13287D01*
X169681Y12693D01*
X170581Y12320D01*
X171547Y12193D01*
X172513Y12320D01*
X173414Y12693D01*
X174187Y13287D01*
X174780Y14060D01*
X175153Y14960D01*
X175280Y15926D01*
X175153Y16892D01*
X174780Y17792D01*
X174187Y18565D01*
X173414Y19159D01*
X172513Y19532D01*
X171547Y19659D01*
D02*
G37*
G36*
X115814Y10985D02*
X115460Y10938D01*
X114671Y10611D01*
X113993Y10091D01*
X113472Y9413D01*
X113145Y8623D01*
X113119Y8428D01*
X112606Y8360D01*
X112375Y8917D01*
X111886Y9554D01*
X111249Y10043D01*
X110507Y10351D01*
X109710Y10456D01*
X108914Y10351D01*
X108171Y10043D01*
X107534Y9554D01*
X107045Y8917D01*
X106738Y8174D01*
X106633Y7378D01*
Y4622D01*
X106738Y3825D01*
X107045Y3083D01*
X107534Y2446D01*
X108171Y1957D01*
X108914Y1649D01*
X109710Y1544D01*
X110507Y1649D01*
X111249Y1957D01*
X111886Y2446D01*
X112375Y3083D01*
X112683Y3825D01*
X112788Y4622D01*
Y6484D01*
X113288Y6583D01*
X113472Y6138D01*
X113993Y5460D01*
X114671Y4940D01*
X115460Y4613D01*
X115814Y4566D01*
Y7776D01*
Y10985D01*
D02*
G37*
G36*
X116802D02*
Y8270D01*
X119517D01*
X119471Y8623D01*
X119144Y9413D01*
X118623Y10091D01*
X117945Y10611D01*
X117155Y10938D01*
X116802Y10985D01*
D02*
G37*
G36*
X128248Y10082D02*
X127403Y9914D01*
X126687Y9435D01*
X126208Y8719D01*
X126040Y7874D01*
X126208Y7029D01*
X126687Y6313D01*
X127403Y5834D01*
X128248Y5666D01*
X129093Y5834D01*
X129809Y6313D01*
X130288Y7029D01*
X130456Y7874D01*
X130288Y8719D01*
X129809Y9435D01*
X129093Y9914D01*
X128248Y10082D01*
D02*
G37*
G36*
X53948D02*
X53103Y9914D01*
X52387Y9435D01*
X51908Y8719D01*
X51740Y7874D01*
X51908Y7029D01*
X52387Y6313D01*
X53103Y5834D01*
X53948Y5666D01*
X54793Y5834D01*
X55509Y6313D01*
X55988Y7029D01*
X56156Y7874D01*
X55988Y8719D01*
X55509Y9435D01*
X54793Y9914D01*
X53948Y10082D01*
D02*
G37*
G36*
X119517Y7282D02*
X116802D01*
Y4566D01*
X117155Y4613D01*
X117945Y4940D01*
X118623Y5460D01*
X119144Y6138D01*
X119471Y6928D01*
X119517Y7282D01*
D02*
G37*
G36*
X76836Y10456D02*
X76040Y10351D01*
X75297Y10043D01*
X74660Y9554D01*
X74171Y8917D01*
X73864Y8174D01*
X73759Y7378D01*
Y4622D01*
X73864Y3825D01*
X74171Y3083D01*
X74660Y2446D01*
X75297Y1957D01*
X76040Y1649D01*
X76836Y1544D01*
X77633Y1649D01*
X78375Y1957D01*
X79012Y2446D01*
X79501Y3083D01*
X79809Y3825D01*
X79914Y4622D01*
Y7378D01*
X79809Y8174D01*
X79501Y8917D01*
X79012Y9554D01*
X78375Y10043D01*
X77633Y10351D01*
X76836Y10456D01*
D02*
G37*
%LPD*%
D12*
X126400Y110600D02*
X143405Y127605D01*
X61644Y110600D02*
X126400D01*
X56276Y115969D02*
X61644Y110600D01*
X143405Y127605D02*
Y189200D01*
X249426Y144400D02*
X256000D01*
X183600Y94400D02*
X189240Y88760D01*
Y143642D01*
Y68507D02*
Y88760D01*
X191221Y89421D02*
Y142821D01*
Y71747D02*
Y89421D01*
X196600Y94800D01*
X244837Y145726D02*
Y146187D01*
X199600Y151200D02*
X239825D01*
X189240Y143642D02*
X198779Y153181D01*
X191924Y71044D02*
X194283D01*
X240645Y153181D02*
X249426Y144400D01*
X198779Y153181D02*
X240645D01*
X191221Y142821D02*
X199600Y151200D01*
X180951Y60217D02*
X189240Y68507D01*
X239825Y151200D02*
X244837Y146187D01*
X191221Y71747D02*
X191924Y71044D01*
X194283D02*
X195110Y70217D01*
X180110Y60217D02*
X180951D01*
X247864Y154236D02*
Y160764D01*
Y154236D02*
X252000Y150100D01*
X170238Y113914D02*
Y156647D01*
X170480Y60587D02*
Y64049D01*
X169557Y157328D02*
Y157700D01*
Y157328D02*
X170238Y156647D01*
X168310Y66219D02*
X170480Y64049D01*
X168310Y111986D02*
X170238Y113914D01*
X170110Y60217D02*
X170480Y60587D01*
X168310Y66219D02*
Y111986D01*
X172900Y157328D02*
Y157700D01*
X175110Y69497D02*
Y70217D01*
X172219Y156647D02*
X172900Y157328D01*
X170291Y67040D02*
Y111166D01*
X172219Y113094D01*
X171961Y66348D02*
X175110Y69497D01*
X170291Y67040D02*
X170983Y66348D01*
X172219Y113094D02*
Y156647D01*
X170983Y66348D02*
X171961D01*
X287500Y175500D02*
X293000Y170000D01*
Y148500D02*
Y170000D01*
X273700Y209300D02*
X274500Y208500D01*
X268800Y209300D02*
X273700D01*
X251300Y177700D02*
Y210800D01*
Y177700D02*
X260500Y168500D01*
X162700Y198900D02*
Y215428D01*
X164100Y216828D01*
Y217200D01*
X281000Y213000D02*
X281250Y212750D01*
Y189250D02*
Y212750D01*
Y189250D02*
X281500Y189000D01*
X316500Y181000D02*
Y198000D01*
X313500Y201000D02*
X316500Y198000D01*
X279128Y174500D02*
X283128Y170500D01*
X287000D01*
X263000Y174500D02*
X279128D01*
X260500Y162500D02*
Y168500D01*
X147638Y126238D02*
Y194882D01*
X129450Y108050D02*
X147638Y126238D01*
X57469Y108050D02*
X129450D01*
X134500Y98100D02*
X156800Y120400D01*
X134500Y69500D02*
Y98100D01*
X54823Y179961D02*
Y182500D01*
X56276Y115969D02*
Y178508D01*
X54823Y179961D02*
X56276Y178508D01*
X245500Y178713D02*
Y192500D01*
Y178713D02*
X252953Y171260D01*
X53600Y111919D02*
Y177400D01*
Y111919D02*
X57469Y108050D01*
X183071Y189075D02*
X183563D01*
X187992Y193504D01*
Y199016D01*
X352756Y192520D02*
X361260Y184016D01*
X370472D01*
X352756Y192520D02*
Y215354D01*
X357087Y198425D02*
X361496Y194016D01*
X370472D01*
X357087Y198425D02*
Y217717D01*
X163500Y169500D02*
Y181102D01*
X154250Y218750D02*
X154500Y219000D01*
X154250Y202750D02*
Y218750D01*
X154000Y202500D02*
X154250Y202750D01*
X239500Y42000D02*
X244500D01*
X237000Y44500D02*
X239500Y42000D01*
X237000Y44500D02*
Y129000D01*
D73*
X120571Y54331D02*
X125689Y59449D01*
Y85925D01*
X198130Y199114D02*
X198278Y198967D01*
X150500Y125300D02*
Y152500D01*
X130600Y105400D02*
X150500Y125300D01*
X130600Y28200D02*
Y105400D01*
X151018Y152581D02*
Y206982D01*
Y152581D02*
X151035Y152563D01*
X151000Y207000D02*
X151018Y206982D01*
X198278Y187943D02*
X198425Y187795D01*
X25591Y114173D02*
Y141732D01*
Y114173D02*
X39500Y100264D01*
X25591Y141732D02*
X37402Y153543D01*
X39500Y38500D02*
Y100264D01*
X37402Y153543D02*
Y174902D01*
X44000Y181500D01*
X339500Y174500D02*
X344000Y170000D01*
Y160000D02*
Y170000D01*
X313500Y180000D02*
Y188500D01*
X310500Y177000D02*
X313500Y180000D01*
X44000Y181500D02*
Y194500D01*
X98500Y42000D02*
Y53500D01*
X83500Y27000D02*
X98500Y42000D01*
D74*
X55700Y50900D02*
X67407D01*
X67421Y50886D01*
X53051Y48251D02*
X55700Y50900D01*
X53051Y29331D02*
Y48251D01*
X178000Y77328D02*
X185110Y70217D01*
X178000Y77328D02*
Y111116D01*
X363000Y171488D02*
Y179000D01*
Y171488D02*
X370472Y164016D01*
X238972Y193473D02*
X244704Y199204D01*
X203772Y193473D02*
X238972D01*
X50000Y109500D02*
X55000Y104500D01*
X50000Y109500D02*
Y200300D01*
X47100Y203200D02*
X50000Y200300D01*
X47100Y203200D02*
Y212400D01*
X55000Y90900D02*
Y104500D01*
Y82500D02*
Y90900D01*
Y82500D02*
X73500Y64000D01*
X198278Y198967D02*
X203772Y193473D01*
X198278Y187943D02*
Y198967D01*
X190110Y29390D02*
Y44489D01*
Y29390D02*
X197000Y22500D01*
X207139D01*
X213713Y15926D01*
X161547D02*
X190110Y44489D01*
Y60217D01*
X12795Y101378D02*
X30512D01*
X30709Y101575D01*
X73500Y51500D02*
Y64000D01*
Y51500D02*
X83000Y42000D01*
X178000Y111116D02*
X179384Y112500D01*
X183500D01*
X179000Y117000D02*
Y137500D01*
Y117000D02*
X183500Y112500D01*
D75*
X279500Y134500D02*
X295000D01*
X288400Y144728D02*
X311700Y121428D01*
X288400Y144728D02*
Y155800D01*
X311700Y85600D02*
Y121428D01*
X302000Y120500D02*
X308500Y114000D01*
X302000Y120500D02*
Y121000D01*
X304500Y80500D02*
Y111500D01*
X301000Y115000D02*
X304500Y111500D01*
X308500Y74000D02*
Y114000D01*
D77*
X274500Y194000D02*
Y208500D01*
X318147Y145000D02*
X318500D01*
X316147Y143000D02*
X318147Y145000D01*
X298500Y143000D02*
X316147D01*
D80*
X78700Y138000D02*
X78720Y137980D01*
Y123052D02*
Y137980D01*
Y123052D02*
X78740Y123031D01*
X113800Y137400D02*
X113987Y137213D01*
Y123218D02*
Y137213D01*
Y123218D02*
X114173Y123031D01*
X118300Y158200D02*
Y158519D01*
X116484Y160335D02*
X118300Y158519D01*
X116484Y160335D02*
Y169933D01*
X114173Y172244D02*
X116484Y169933D01*
X75965Y159565D02*
Y169469D01*
X78740Y172244D01*
X73600Y157200D02*
X75965Y159565D01*
D84*
X53948Y7874D02*
D03*
X128248D02*
D03*
D85*
X370472Y154016D02*
D03*
Y164016D02*
D03*
Y174016D02*
D03*
Y184016D02*
D03*
Y194016D02*
D03*
D86*
Y204016D02*
D03*
D87*
X165130Y35217D02*
D03*
X210130D02*
D03*
D88*
X218122Y47225D02*
D03*
X157138D02*
D03*
D89*
X203713Y15926D02*
D03*
X213713D02*
D03*
X171547D02*
D03*
X161547D02*
D03*
X198130Y199114D02*
D03*
X187992Y199016D02*
D03*
X178150Y199114D02*
D03*
X208261Y199021D02*
D03*
D90*
X205110Y70217D02*
D03*
X200110Y60217D02*
D03*
X190110D02*
D03*
X185110Y70217D02*
D03*
X180110Y60217D02*
D03*
X175110Y70217D02*
D03*
X195110D02*
D03*
D91*
X170110Y60217D02*
D03*
D92*
X347400Y119000D02*
D03*
X39200Y118900D02*
D03*
D93*
X84513Y17811D02*
D03*
X102033D02*
D03*
D94*
X109710Y6000D02*
D03*
X76836D02*
D03*
D95*
X143405Y189200D02*
D03*
X183600Y94400D02*
D03*
X196600Y94800D02*
D03*
X147125Y85925D02*
D03*
X256000Y144400D02*
D03*
X245100Y144500D02*
D03*
X247864Y160764D02*
D03*
X252000Y150100D02*
D03*
X169557Y157700D02*
D03*
X172900D02*
D03*
X295000Y134500D02*
D03*
X288400Y155800D02*
D03*
X293000Y148500D02*
D03*
X268800Y209300D02*
D03*
X251300Y210800D02*
D03*
X164100Y217200D02*
D03*
X162700Y198900D02*
D03*
X363000Y179000D02*
D03*
X281500Y189000D02*
D03*
X281000Y213000D02*
D03*
X313500Y201000D02*
D03*
X244704Y199204D02*
D03*
X274500Y194000D02*
D03*
X287000Y170500D02*
D03*
X263000Y174500D02*
D03*
X260500Y162500D02*
D03*
X130600Y28200D02*
D03*
X78700Y138000D02*
D03*
X113800Y137400D02*
D03*
X118300Y158200D02*
D03*
X73600Y157200D02*
D03*
X156800Y120400D02*
D03*
X137900Y185500D02*
D03*
X138800Y131200D02*
D03*
X54823Y182500D02*
D03*
X163500Y181102D02*
D03*
X154535Y202563D02*
D03*
X53600Y177400D02*
D03*
X70079Y217520D02*
D03*
X73327Y139961D02*
D03*
X151035Y152563D02*
D03*
X47100Y212400D02*
D03*
X252953Y171260D02*
D03*
X21654Y219488D02*
D03*
X147638Y194882D02*
D03*
X311700Y85600D02*
D03*
X298500Y143000D02*
D03*
X279500Y134500D02*
D03*
X29724Y188091D02*
D03*
X55000Y90900D02*
D03*
X67421Y50886D02*
D03*
X80512Y51476D02*
D03*
X53051Y29331D02*
D03*
X98425Y24114D02*
D03*
X183071Y189075D02*
D03*
X198425Y187795D02*
D03*
X219193Y199311D02*
D03*
X284154Y126279D02*
D03*
X256693Y118799D02*
D03*
X267421Y196555D02*
D03*
X103839Y84842D02*
D03*
X223130Y137992D02*
D03*
X296949Y154232D02*
D03*
X344390Y184843D02*
D03*
X344291Y196949D02*
D03*
X370276Y212008D02*
D03*
X317618Y70374D02*
D03*
X261221D02*
D03*
Y57382D02*
D03*
X116308Y7776D02*
D03*
X120571Y54331D02*
D03*
X125689Y85925D02*
D03*
X92421Y217028D02*
D03*
X60728Y17913D02*
D03*
X357087Y217717D02*
D03*
X352756Y215354D02*
D03*
X12795Y101378D02*
D03*
X30709Y101575D02*
D03*
X344000Y160000D02*
D03*
X302000Y121000D02*
D03*
X301000Y115000D02*
D03*
X83000Y42000D02*
D03*
X151000Y207000D02*
D03*
X318500Y145000D02*
D03*
X308500Y74000D02*
D03*
X304500Y80500D02*
D03*
X313500Y188500D02*
D03*
X310500Y177000D02*
D03*
X316500Y181000D02*
D03*
X339500Y174500D02*
D03*
X154500Y219000D02*
D03*
X163500Y169500D02*
D03*
X245500Y192500D02*
D03*
X134500Y69500D02*
D03*
X244500Y42000D02*
D03*
X237000Y129000D02*
D03*
X179000Y137500D02*
D03*
X183500Y112500D02*
D03*
X287500Y175500D02*
D03*
X44000Y194500D02*
D03*
X39500Y38500D02*
D03*
X98500Y53500D02*
D03*
X83500Y27000D02*
D03*
D96*
X114173Y172244D02*
D03*
X78740D02*
D03*
X114173Y123031D02*
D03*
X78740D02*
D03*
D97*
X137900Y185341D02*
Y185500D01*
Y185341D02*
X138800Y184441D01*
Y131200D02*
Y184441D01*
M02*
