G04*
G04 #@! TF.GenerationSoftware,Altium Limited,Altium Designer,19.1.5 (86)*
G04*
G04 Layer_Color=16711935*
%FSLAX25Y25*%
%MOIN*%
G70*
G01*
G75*
%ADD15C,0.00394*%
G36*
X91000Y67204D02*
X90996D01*
X90979D01*
X90954D01*
X90921Y67208D01*
X90883Y67212D01*
X90842Y67221D01*
X90800Y67229D01*
X90755Y67246D01*
X90750D01*
X90746Y67250D01*
X90721Y67258D01*
X90684Y67275D01*
X90634Y67300D01*
X90576Y67333D01*
X90509Y67375D01*
X90443Y67420D01*
X90372Y67479D01*
X90368D01*
X90364Y67487D01*
X90339Y67508D01*
X90301Y67545D01*
X90247Y67599D01*
X90185Y67662D01*
X90110Y67741D01*
X90027Y67836D01*
X89939Y67940D01*
X89935Y67945D01*
X89923Y67961D01*
X89902Y67986D01*
X89877Y68015D01*
X89843Y68053D01*
X89806Y68098D01*
X89764Y68144D01*
X89719Y68198D01*
X89619Y68302D01*
X89519Y68406D01*
X89469Y68456D01*
X89419Y68502D01*
X89373Y68543D01*
X89328Y68577D01*
X89324D01*
X89319Y68585D01*
X89307Y68593D01*
X89290Y68602D01*
X89245Y68631D01*
X89190Y68664D01*
X89124Y68693D01*
X89053Y68722D01*
X88974Y68739D01*
X88899Y68747D01*
X88895D01*
X88891D01*
X88866Y68743D01*
X88824Y68739D01*
X88779Y68727D01*
X88720Y68710D01*
X88662Y68681D01*
X88604Y68643D01*
X88546Y68593D01*
X88537Y68585D01*
X88521Y68564D01*
X88500Y68535D01*
X88471Y68489D01*
X88446Y68431D01*
X88421Y68365D01*
X88404Y68286D01*
X88400Y68198D01*
Y68173D01*
X88404Y68157D01*
X88408Y68107D01*
X88421Y68049D01*
X88437Y67986D01*
X88467Y67915D01*
X88504Y67849D01*
X88554Y67786D01*
X88562Y67778D01*
X88583Y67761D01*
X88616Y67737D01*
X88666Y67712D01*
X88724Y67682D01*
X88799Y67657D01*
X88883Y67641D01*
X88978Y67633D01*
X88941Y67271D01*
X88937D01*
X88924Y67275D01*
X88903D01*
X88874Y67279D01*
X88841Y67287D01*
X88803Y67295D01*
X88758Y67308D01*
X88712Y67321D01*
X88612Y67354D01*
X88512Y67404D01*
X88462Y67433D01*
X88412Y67470D01*
X88367Y67508D01*
X88325Y67549D01*
X88321Y67553D01*
X88317Y67562D01*
X88304Y67574D01*
X88292Y67595D01*
X88275Y67620D01*
X88259Y67649D01*
X88238Y67682D01*
X88217Y67724D01*
X88196Y67770D01*
X88175Y67820D01*
X88159Y67874D01*
X88142Y67932D01*
X88130Y67994D01*
X88117Y68061D01*
X88113Y68132D01*
X88109Y68207D01*
Y68248D01*
X88113Y68277D01*
X88117Y68311D01*
X88121Y68352D01*
X88130Y68398D01*
X88138Y68444D01*
X88167Y68552D01*
X88209Y68660D01*
X88234Y68714D01*
X88263Y68768D01*
X88300Y68818D01*
X88342Y68864D01*
X88346Y68868D01*
X88350Y68876D01*
X88367Y68885D01*
X88383Y68901D01*
X88404Y68922D01*
X88433Y68943D01*
X88462Y68964D01*
X88500Y68989D01*
X88579Y69030D01*
X88679Y69072D01*
X88729Y69089D01*
X88787Y69097D01*
X88845Y69105D01*
X88907Y69109D01*
X88916D01*
X88937D01*
X88970Y69105D01*
X89016Y69101D01*
X89066Y69093D01*
X89124Y69076D01*
X89186Y69059D01*
X89249Y69034D01*
X89257Y69030D01*
X89278Y69022D01*
X89311Y69005D01*
X89357Y68980D01*
X89407Y68947D01*
X89469Y68905D01*
X89531Y68856D01*
X89602Y68797D01*
X89611Y68789D01*
X89635Y68768D01*
X89656Y68747D01*
X89677Y68727D01*
X89702Y68702D01*
X89735Y68668D01*
X89769Y68635D01*
X89806Y68593D01*
X89848Y68552D01*
X89893Y68502D01*
X89939Y68448D01*
X89993Y68390D01*
X90047Y68323D01*
X90106Y68256D01*
X90110Y68252D01*
X90118Y68244D01*
X90131Y68227D01*
X90147Y68207D01*
X90172Y68182D01*
X90197Y68152D01*
X90251Y68086D01*
X90314Y68015D01*
X90376Y67949D01*
X90430Y67890D01*
X90451Y67865D01*
X90472Y67845D01*
X90476Y67840D01*
X90488Y67828D01*
X90505Y67811D01*
X90530Y67791D01*
X90559Y67770D01*
X90588Y67745D01*
X90659Y67695D01*
Y69113D01*
X91000D01*
Y67204D01*
D02*
G37*
G36*
X89893Y66759D02*
X89935D01*
X89985Y66755D01*
X90035Y66751D01*
X90147Y66738D01*
X90264Y66721D01*
X90376Y66697D01*
X90430Y66680D01*
X90480Y66663D01*
X90484D01*
X90492Y66659D01*
X90505Y66651D01*
X90522Y66642D01*
X90567Y66617D01*
X90626Y66580D01*
X90692Y66530D01*
X90759Y66472D01*
X90829Y66397D01*
X90892Y66305D01*
Y66301D01*
X90900Y66293D01*
X90904Y66281D01*
X90917Y66260D01*
X90929Y66235D01*
X90942Y66201D01*
X90954Y66168D01*
X90971Y66127D01*
X90987Y66081D01*
X91000Y66031D01*
X91013Y65977D01*
X91025Y65914D01*
X91033Y65852D01*
X91042Y65785D01*
X91050Y65636D01*
Y65598D01*
X91046Y65569D01*
Y65536D01*
X91042Y65494D01*
X91037Y65448D01*
X91033Y65403D01*
X91017Y65299D01*
X90992Y65186D01*
X90958Y65078D01*
X90913Y64974D01*
Y64970D01*
X90904Y64962D01*
X90896Y64949D01*
X90888Y64933D01*
X90854Y64887D01*
X90809Y64833D01*
X90750Y64770D01*
X90684Y64712D01*
X90601Y64654D01*
X90509Y64608D01*
X90505D01*
X90497Y64604D01*
X90480Y64600D01*
X90459Y64591D01*
X90434Y64583D01*
X90401Y64575D01*
X90364Y64562D01*
X90318Y64554D01*
X90268Y64546D01*
X90214Y64533D01*
X90156Y64525D01*
X90093Y64517D01*
X90022Y64508D01*
X89947Y64504D01*
X89868Y64500D01*
X89785D01*
X88121D01*
Y64883D01*
X89785D01*
X89789D01*
X89802D01*
X89823D01*
X89848D01*
X89877Y64887D01*
X89914D01*
X89993Y64891D01*
X90085Y64899D01*
X90176Y64912D01*
X90264Y64929D01*
X90301Y64937D01*
X90339Y64949D01*
X90347Y64953D01*
X90368Y64962D01*
X90397Y64983D01*
X90438Y65008D01*
X90480Y65037D01*
X90526Y65078D01*
X90571Y65128D01*
X90609Y65186D01*
X90613Y65195D01*
X90626Y65215D01*
X90638Y65253D01*
X90655Y65303D01*
X90675Y65361D01*
X90688Y65436D01*
X90701Y65515D01*
X90705Y65602D01*
Y65644D01*
X90701Y65669D01*
Y65706D01*
X90696Y65744D01*
X90680Y65835D01*
X90659Y65935D01*
X90626Y66031D01*
X90580Y66122D01*
X90551Y66164D01*
X90517Y66201D01*
X90513Y66206D01*
X90509Y66210D01*
X90497Y66218D01*
X90480Y66231D01*
X90455Y66243D01*
X90430Y66260D01*
X90393Y66276D01*
X90355Y66293D01*
X90309Y66310D01*
X90255Y66322D01*
X90193Y66339D01*
X90126Y66351D01*
X90052Y66364D01*
X89973Y66372D01*
X89881Y66380D01*
X89785D01*
X88121D01*
Y66763D01*
X89785D01*
X89789D01*
X89806D01*
X89827D01*
X89856D01*
X89893Y66759D01*
D02*
G37*
G36*
X46346Y3424D02*
X46383Y3420D01*
X46429Y3416D01*
X46475Y3412D01*
X46529Y3399D01*
X46641Y3375D01*
X46766Y3337D01*
X46828Y3312D01*
X46887Y3283D01*
X46945Y3246D01*
X47003Y3208D01*
X47007Y3204D01*
X47016Y3200D01*
X47032Y3187D01*
X47053Y3167D01*
X47074Y3146D01*
X47103Y3117D01*
X47132Y3083D01*
X47165Y3050D01*
X47199Y3008D01*
X47232Y2959D01*
X47269Y2909D01*
X47303Y2855D01*
X47332Y2792D01*
X47365Y2730D01*
X47390Y2663D01*
X47415Y2588D01*
X47041Y2501D01*
Y2505D01*
X47036Y2513D01*
X47028Y2530D01*
X47020Y2551D01*
X47011Y2576D01*
X46999Y2609D01*
X46966Y2676D01*
X46924Y2751D01*
X46874Y2825D01*
X46812Y2896D01*
X46745Y2959D01*
X46737Y2967D01*
X46712Y2984D01*
X46670Y3004D01*
X46616Y3033D01*
X46545Y3058D01*
X46466Y3083D01*
X46371Y3100D01*
X46267Y3104D01*
X46233D01*
X46213Y3100D01*
X46184D01*
X46150Y3096D01*
X46071Y3083D01*
X45984Y3067D01*
X45892Y3038D01*
X45797Y2996D01*
X45709Y2942D01*
X45705D01*
X45701Y2934D01*
X45672Y2913D01*
X45634Y2880D01*
X45589Y2830D01*
X45535Y2767D01*
X45485Y2696D01*
X45439Y2609D01*
X45397Y2513D01*
Y2509D01*
X45393Y2501D01*
X45389Y2489D01*
X45385Y2468D01*
X45377Y2443D01*
X45368Y2414D01*
X45356Y2343D01*
X45339Y2260D01*
X45322Y2168D01*
X45314Y2068D01*
X45310Y1960D01*
Y1956D01*
Y1943D01*
Y1923D01*
Y1898D01*
X45314Y1869D01*
Y1831D01*
X45318Y1790D01*
X45322Y1744D01*
X45335Y1644D01*
X45356Y1536D01*
X45381Y1428D01*
X45414Y1319D01*
Y1315D01*
X45418Y1307D01*
X45426Y1295D01*
X45435Y1274D01*
X45460Y1224D01*
X45497Y1166D01*
X45543Y1099D01*
X45601Y1028D01*
X45668Y966D01*
X45747Y908D01*
X45751D01*
X45759Y903D01*
X45772Y895D01*
X45788Y887D01*
X45809Y879D01*
X45834Y866D01*
X45892Y841D01*
X45967Y816D01*
X46050Y795D01*
X46142Y779D01*
X46238Y775D01*
X46267D01*
X46292Y779D01*
X46321D01*
X46350Y783D01*
X46425Y800D01*
X46512Y820D01*
X46600Y854D01*
X46691Y899D01*
X46737Y924D01*
X46778Y958D01*
X46783Y962D01*
X46787Y966D01*
X46799Y978D01*
X46816Y991D01*
X46832Y1012D01*
X46853Y1037D01*
X46878Y1062D01*
X46899Y1095D01*
X46924Y1132D01*
X46953Y1174D01*
X46978Y1216D01*
X47003Y1265D01*
X47024Y1319D01*
X47045Y1378D01*
X47065Y1440D01*
X47082Y1507D01*
X47465Y1411D01*
Y1407D01*
X47461Y1390D01*
X47452Y1365D01*
X47440Y1332D01*
X47427Y1295D01*
X47411Y1249D01*
X47390Y1199D01*
X47365Y1145D01*
X47307Y1028D01*
X47232Y912D01*
X47186Y854D01*
X47140Y795D01*
X47090Y745D01*
X47032Y696D01*
X47028Y691D01*
X47020Y683D01*
X46999Y675D01*
X46978Y658D01*
X46945Y637D01*
X46911Y617D01*
X46866Y596D01*
X46820Y575D01*
X46766Y550D01*
X46708Y529D01*
X46645Y508D01*
X46579Y488D01*
X46508Y471D01*
X46433Y463D01*
X46354Y454D01*
X46271Y450D01*
X46225D01*
X46192Y454D01*
X46154D01*
X46109Y458D01*
X46059Y467D01*
X46000Y475D01*
X45880Y496D01*
X45755Y529D01*
X45630Y575D01*
X45572Y604D01*
X45514Y637D01*
X45510Y641D01*
X45501Y646D01*
X45485Y658D01*
X45468Y675D01*
X45443Y691D01*
X45414Y716D01*
X45381Y745D01*
X45347Y779D01*
X45314Y816D01*
X45277Y854D01*
X45202Y949D01*
X45131Y1062D01*
X45069Y1186D01*
Y1191D01*
X45060Y1203D01*
X45056Y1224D01*
X45044Y1249D01*
X45035Y1282D01*
X45023Y1324D01*
X45006Y1369D01*
X44994Y1419D01*
X44981Y1473D01*
X44965Y1536D01*
X44944Y1665D01*
X44927Y1810D01*
X44919Y1960D01*
Y1964D01*
Y1981D01*
Y2006D01*
X44923Y2035D01*
Y2077D01*
X44927Y2118D01*
X44931Y2172D01*
X44940Y2226D01*
X44960Y2347D01*
X44990Y2480D01*
X45031Y2613D01*
X45090Y2742D01*
X45094Y2746D01*
X45098Y2759D01*
X45106Y2775D01*
X45123Y2796D01*
X45139Y2825D01*
X45160Y2859D01*
X45214Y2934D01*
X45285Y3017D01*
X45368Y3100D01*
X45464Y3183D01*
X45576Y3254D01*
X45580Y3258D01*
X45593Y3262D01*
X45610Y3271D01*
X45630Y3283D01*
X45663Y3295D01*
X45697Y3308D01*
X45738Y3325D01*
X45784Y3341D01*
X45834Y3358D01*
X45888Y3375D01*
X46005Y3399D01*
X46138Y3420D01*
X46275Y3429D01*
X46317D01*
X46346Y3424D01*
D02*
G37*
G36*
X58743D02*
X58776D01*
X58855Y3416D01*
X58942Y3404D01*
X59034Y3383D01*
X59134Y3358D01*
X59229Y3325D01*
X59233D01*
X59242Y3320D01*
X59254Y3316D01*
X59271Y3308D01*
X59317Y3283D01*
X59375Y3254D01*
X59437Y3212D01*
X59504Y3162D01*
X59566Y3108D01*
X59624Y3042D01*
X59633Y3033D01*
X59649Y3008D01*
X59674Y2971D01*
X59708Y2917D01*
X59741Y2850D01*
X59778Y2767D01*
X59816Y2676D01*
X59845Y2572D01*
X59500Y2480D01*
Y2484D01*
X59496Y2489D01*
X59491Y2501D01*
X59487Y2518D01*
X59475Y2555D01*
X59458Y2605D01*
X59433Y2663D01*
X59404Y2717D01*
X59375Y2775D01*
X59338Y2825D01*
X59333Y2830D01*
X59321Y2846D01*
X59296Y2867D01*
X59267Y2896D01*
X59229Y2929D01*
X59179Y2963D01*
X59125Y2996D01*
X59063Y3025D01*
X59055Y3029D01*
X59034Y3038D01*
X58996Y3050D01*
X58946Y3067D01*
X58888Y3079D01*
X58822Y3092D01*
X58747Y3100D01*
X58668Y3104D01*
X58622D01*
X58601Y3100D01*
X58576D01*
X58514Y3096D01*
X58443Y3083D01*
X58364Y3071D01*
X58289Y3050D01*
X58214Y3021D01*
X58206Y3017D01*
X58181Y3008D01*
X58148Y2988D01*
X58106Y2967D01*
X58056Y2934D01*
X58002Y2900D01*
X57952Y2859D01*
X57906Y2813D01*
X57902Y2809D01*
X57886Y2792D01*
X57865Y2763D01*
X57840Y2730D01*
X57811Y2688D01*
X57782Y2638D01*
X57753Y2584D01*
X57723Y2526D01*
Y2522D01*
X57719Y2513D01*
X57715Y2501D01*
X57707Y2480D01*
X57698Y2455D01*
X57690Y2426D01*
X57678Y2393D01*
X57669Y2355D01*
X57648Y2268D01*
X57632Y2168D01*
X57619Y2064D01*
X57615Y1948D01*
Y1943D01*
Y1931D01*
Y1910D01*
X57619Y1885D01*
Y1852D01*
X57624Y1810D01*
X57628Y1769D01*
X57632Y1723D01*
X57648Y1619D01*
X57669Y1511D01*
X57703Y1403D01*
X57744Y1299D01*
Y1295D01*
X57753Y1286D01*
X57757Y1274D01*
X57769Y1257D01*
X57798Y1211D01*
X57844Y1153D01*
X57898Y1091D01*
X57965Y1028D01*
X58044Y970D01*
X58131Y916D01*
X58135D01*
X58144Y912D01*
X58156Y903D01*
X58177Y895D01*
X58198Y887D01*
X58227Y879D01*
X58293Y854D01*
X58376Y833D01*
X58468Y812D01*
X58568Y795D01*
X58672Y791D01*
X58714D01*
X58738Y795D01*
X58763D01*
X58826Y804D01*
X58901Y812D01*
X58980Y829D01*
X59067Y854D01*
X59154Y883D01*
X59159D01*
X59167Y887D01*
X59175Y891D01*
X59192Y899D01*
X59238Y920D01*
X59288Y945D01*
X59346Y974D01*
X59408Y1008D01*
X59466Y1045D01*
X59516Y1087D01*
Y1627D01*
X58668D01*
Y1969D01*
X59891D01*
Y899D01*
X59887Y895D01*
X59878Y891D01*
X59862Y879D01*
X59841Y862D01*
X59816Y845D01*
X59787Y824D01*
X59749Y800D01*
X59712Y775D01*
X59624Y721D01*
X59525Y662D01*
X59421Y608D01*
X59308Y562D01*
X59304D01*
X59296Y558D01*
X59279Y554D01*
X59258Y546D01*
X59229Y537D01*
X59196Y525D01*
X59159Y517D01*
X59121Y508D01*
X59030Y488D01*
X58926Y467D01*
X58813Y454D01*
X58697Y450D01*
X58655D01*
X58626Y454D01*
X58589D01*
X58543Y458D01*
X58493Y467D01*
X58439Y471D01*
X58318Y496D01*
X58189Y525D01*
X58056Y571D01*
X57990Y596D01*
X57923Y629D01*
X57919Y633D01*
X57906Y637D01*
X57890Y650D01*
X57865Y662D01*
X57836Y683D01*
X57807Y704D01*
X57727Y762D01*
X57644Y837D01*
X57557Y929D01*
X57474Y1032D01*
X57399Y1153D01*
Y1157D01*
X57391Y1170D01*
X57382Y1186D01*
X57370Y1216D01*
X57357Y1245D01*
X57345Y1286D01*
X57328Y1328D01*
X57311Y1378D01*
X57295Y1432D01*
X57278Y1494D01*
X57266Y1557D01*
X57253Y1623D01*
X57232Y1769D01*
X57224Y1923D01*
Y1927D01*
Y1943D01*
Y1964D01*
X57228Y1993D01*
Y2031D01*
X57232Y2077D01*
X57241Y2122D01*
X57245Y2176D01*
X57257Y2235D01*
X57266Y2297D01*
X57299Y2430D01*
X57341Y2568D01*
X57399Y2705D01*
X57403Y2709D01*
X57407Y2721D01*
X57415Y2738D01*
X57432Y2763D01*
X57449Y2796D01*
X57470Y2830D01*
X57528Y2909D01*
X57599Y3000D01*
X57686Y3087D01*
X57786Y3175D01*
X57844Y3212D01*
X57902Y3250D01*
X57906Y3254D01*
X57919Y3258D01*
X57936Y3266D01*
X57960Y3279D01*
X57994Y3291D01*
X58031Y3308D01*
X58073Y3325D01*
X58123Y3341D01*
X58177Y3358D01*
X58235Y3370D01*
X58297Y3387D01*
X58364Y3399D01*
X58510Y3420D01*
X58584Y3429D01*
X58718D01*
X58743Y3424D01*
D02*
G37*
G36*
X62541Y3038D02*
X60839D01*
Y2160D01*
X62432D01*
Y1819D01*
X60839D01*
Y841D01*
X62607D01*
Y500D01*
X60457D01*
Y3379D01*
X62541D01*
Y3038D01*
D02*
G37*
G36*
X55602Y3375D02*
X55685Y3370D01*
X55768Y3362D01*
X55851Y3350D01*
X55922Y3337D01*
X55926D01*
X55935Y3333D01*
X55947D01*
X55964Y3325D01*
X56010Y3312D01*
X56068Y3291D01*
X56134Y3262D01*
X56205Y3225D01*
X56276Y3183D01*
X56342Y3129D01*
X56346Y3125D01*
X56351Y3121D01*
X56363Y3108D01*
X56380Y3096D01*
X56421Y3054D01*
X56471Y2996D01*
X56525Y2925D01*
X56584Y2842D01*
X56638Y2746D01*
X56683Y2638D01*
Y2634D01*
X56687Y2626D01*
X56696Y2609D01*
X56700Y2584D01*
X56713Y2555D01*
X56721Y2522D01*
X56729Y2484D01*
X56742Y2439D01*
X56754Y2393D01*
X56762Y2339D01*
X56783Y2222D01*
X56796Y2093D01*
X56800Y1952D01*
Y1948D01*
Y1939D01*
Y1919D01*
Y1898D01*
X56796Y1869D01*
Y1835D01*
X56792Y1756D01*
X56779Y1665D01*
X56767Y1569D01*
X56746Y1469D01*
X56721Y1369D01*
Y1365D01*
X56717Y1357D01*
X56713Y1345D01*
X56708Y1328D01*
X56692Y1282D01*
X56667Y1224D01*
X56642Y1157D01*
X56608Y1091D01*
X56567Y1020D01*
X56525Y953D01*
X56521Y945D01*
X56504Y924D01*
X56480Y895D01*
X56446Y858D01*
X56409Y816D01*
X56363Y775D01*
X56317Y729D01*
X56263Y691D01*
X56255Y687D01*
X56238Y675D01*
X56209Y658D01*
X56168Y637D01*
X56118Y612D01*
X56059Y592D01*
X55993Y567D01*
X55918Y546D01*
X55910D01*
X55897Y542D01*
X55885Y537D01*
X55843Y533D01*
X55785Y525D01*
X55718Y517D01*
X55639Y508D01*
X55552Y504D01*
X55456Y500D01*
X54420D01*
Y3379D01*
X55527D01*
X55602Y3375D01*
D02*
G37*
G36*
X53825Y3038D02*
X52124D01*
Y2160D01*
X53717D01*
Y1819D01*
X52124D01*
Y841D01*
X53892D01*
Y500D01*
X51741D01*
Y3379D01*
X53825D01*
Y3038D01*
D02*
G37*
G36*
X49079Y3375D02*
X49112D01*
X49187Y3366D01*
X49270Y3358D01*
X49358Y3341D01*
X49445Y3320D01*
X49524Y3291D01*
X49528D01*
X49532Y3287D01*
X49557Y3275D01*
X49595Y3254D01*
X49636Y3225D01*
X49686Y3187D01*
X49740Y3142D01*
X49790Y3083D01*
X49836Y3021D01*
X49840Y3013D01*
X49853Y2988D01*
X49874Y2954D01*
X49894Y2905D01*
X49915Y2846D01*
X49936Y2784D01*
X49948Y2713D01*
X49953Y2642D01*
Y2634D01*
Y2613D01*
X49948Y2576D01*
X49940Y2530D01*
X49928Y2476D01*
X49907Y2418D01*
X49882Y2359D01*
X49848Y2297D01*
X49844Y2289D01*
X49832Y2272D01*
X49807Y2239D01*
X49774Y2206D01*
X49732Y2164D01*
X49682Y2118D01*
X49620Y2077D01*
X49549Y2035D01*
X49553D01*
X49562Y2031D01*
X49574Y2027D01*
X49591Y2018D01*
X49641Y2002D01*
X49699Y1973D01*
X49761Y1935D01*
X49832Y1889D01*
X49894Y1835D01*
X49953Y1769D01*
X49957Y1760D01*
X49973Y1736D01*
X49998Y1698D01*
X50023Y1648D01*
X50048Y1582D01*
X50073Y1511D01*
X50090Y1428D01*
X50094Y1336D01*
Y1332D01*
Y1328D01*
Y1303D01*
X50090Y1261D01*
X50081Y1211D01*
X50073Y1153D01*
X50056Y1091D01*
X50036Y1024D01*
X50007Y958D01*
X50002Y949D01*
X49990Y929D01*
X49973Y899D01*
X49948Y858D01*
X49915Y816D01*
X49882Y770D01*
X49840Y725D01*
X49794Y687D01*
X49790Y683D01*
X49774Y671D01*
X49744Y654D01*
X49707Y637D01*
X49661Y612D01*
X49607Y587D01*
X49549Y567D01*
X49478Y546D01*
X49470D01*
X49445Y537D01*
X49403Y533D01*
X49349Y525D01*
X49283Y517D01*
X49204Y508D01*
X49116Y504D01*
X49016Y500D01*
X47918D01*
Y3379D01*
X49050D01*
X49079Y3375D01*
D02*
G37*
G36*
X43592D02*
X43663Y3370D01*
X43738Y3366D01*
X43808Y3358D01*
X43871Y3350D01*
X43879D01*
X43908Y3341D01*
X43946Y3333D01*
X43995Y3320D01*
X44050Y3300D01*
X44108Y3275D01*
X44170Y3246D01*
X44224Y3212D01*
X44232Y3208D01*
X44249Y3196D01*
X44274Y3171D01*
X44307Y3142D01*
X44345Y3104D01*
X44382Y3054D01*
X44424Y3000D01*
X44457Y2938D01*
X44461Y2929D01*
X44470Y2909D01*
X44486Y2871D01*
X44503Y2821D01*
X44515Y2763D01*
X44532Y2696D01*
X44540Y2622D01*
X44545Y2543D01*
Y2538D01*
Y2526D01*
Y2509D01*
X44540Y2480D01*
X44536Y2451D01*
X44532Y2414D01*
X44524Y2372D01*
X44515Y2326D01*
X44486Y2231D01*
X44470Y2181D01*
X44445Y2127D01*
X44416Y2073D01*
X44386Y2023D01*
X44349Y1973D01*
X44307Y1923D01*
X44303Y1919D01*
X44295Y1910D01*
X44282Y1898D01*
X44262Y1885D01*
X44237Y1864D01*
X44203Y1844D01*
X44162Y1819D01*
X44116Y1798D01*
X44062Y1773D01*
X43999Y1748D01*
X43933Y1727D01*
X43854Y1711D01*
X43771Y1694D01*
X43679Y1681D01*
X43575Y1673D01*
X43467Y1669D01*
X42731D01*
Y500D01*
X42348D01*
Y3379D01*
X43529D01*
X43592Y3375D01*
D02*
G37*
%LPC*%
G36*
X55469Y3038D02*
X54803D01*
Y841D01*
X55485D01*
X55514Y845D01*
X55577Y849D01*
X55648Y854D01*
X55722Y862D01*
X55797Y874D01*
X55860Y891D01*
X55868Y895D01*
X55889Y899D01*
X55918Y912D01*
X55955Y929D01*
X55997Y953D01*
X56039Y978D01*
X56080Y1008D01*
X56122Y1041D01*
X56126Y1049D01*
X56143Y1066D01*
X56168Y1095D01*
X56197Y1137D01*
X56230Y1191D01*
X56267Y1253D01*
X56301Y1324D01*
X56330Y1403D01*
Y1407D01*
X56334Y1415D01*
X56338Y1428D01*
X56342Y1444D01*
X56346Y1465D01*
X56355Y1494D01*
X56363Y1523D01*
X56371Y1557D01*
X56384Y1640D01*
X56396Y1736D01*
X56405Y1844D01*
X56409Y1960D01*
Y1964D01*
Y1981D01*
Y2002D01*
X56405Y2035D01*
Y2073D01*
X56401Y2114D01*
X56396Y2164D01*
X56392Y2214D01*
X56371Y2326D01*
X56346Y2443D01*
X56309Y2551D01*
X56284Y2605D01*
X56259Y2651D01*
Y2655D01*
X56251Y2663D01*
X56242Y2676D01*
X56234Y2692D01*
X56201Y2734D01*
X56159Y2784D01*
X56105Y2838D01*
X56043Y2892D01*
X55972Y2938D01*
X55897Y2975D01*
X55889Y2979D01*
X55868Y2984D01*
X55831Y2996D01*
X55777Y3008D01*
X55710Y3017D01*
X55627Y3029D01*
X55577Y3033D01*
X55523D01*
X55469Y3038D01*
D02*
G37*
G36*
X48983D02*
X48301D01*
Y2172D01*
X49008D01*
X49062Y2176D01*
X49121Y2181D01*
X49179Y2185D01*
X49237Y2193D01*
X49283Y2201D01*
X49291Y2206D01*
X49308Y2210D01*
X49333Y2222D01*
X49366Y2239D01*
X49399Y2255D01*
X49437Y2280D01*
X49474Y2314D01*
X49503Y2347D01*
X49507Y2351D01*
X49516Y2364D01*
X49528Y2389D01*
X49541Y2418D01*
X49553Y2451D01*
X49566Y2493D01*
X49574Y2543D01*
X49578Y2597D01*
Y2605D01*
Y2622D01*
X49574Y2647D01*
X49570Y2680D01*
X49562Y2721D01*
X49549Y2763D01*
X49532Y2805D01*
X49507Y2846D01*
X49503Y2850D01*
X49495Y2863D01*
X49478Y2884D01*
X49457Y2905D01*
X49428Y2929D01*
X49395Y2954D01*
X49354Y2979D01*
X49308Y2996D01*
X49304D01*
X49283Y3004D01*
X49254Y3008D01*
X49208Y3017D01*
X49145Y3025D01*
X49075Y3029D01*
X48983Y3038D01*
D02*
G37*
G36*
X49058Y1831D02*
X48301D01*
Y841D01*
X49121D01*
X49208Y845D01*
X49245Y849D01*
X49279Y854D01*
X49283D01*
X49299Y858D01*
X49324Y862D01*
X49354Y870D01*
X49424Y895D01*
X49495Y929D01*
X49499Y933D01*
X49512Y941D01*
X49528Y953D01*
X49549Y970D01*
X49570Y995D01*
X49599Y1020D01*
X49620Y1053D01*
X49645Y1091D01*
X49649Y1095D01*
X49653Y1107D01*
X49661Y1132D01*
X49674Y1161D01*
X49686Y1195D01*
X49695Y1236D01*
X49699Y1286D01*
X49703Y1336D01*
Y1345D01*
Y1361D01*
X49699Y1394D01*
X49690Y1432D01*
X49682Y1473D01*
X49665Y1519D01*
X49645Y1565D01*
X49616Y1611D01*
X49611Y1615D01*
X49599Y1632D01*
X49582Y1652D01*
X49557Y1677D01*
X49524Y1706D01*
X49482Y1736D01*
X49437Y1760D01*
X49383Y1781D01*
X49374Y1785D01*
X49358Y1790D01*
X49320Y1798D01*
X49274Y1806D01*
X49216Y1815D01*
X49145Y1823D01*
X49058Y1831D01*
D02*
G37*
G36*
X43554Y3038D02*
X42731D01*
Y2010D01*
X43505D01*
X43534Y2014D01*
X43563D01*
X43596Y2018D01*
X43675Y2027D01*
X43762Y2043D01*
X43850Y2068D01*
X43929Y2102D01*
X43966Y2122D01*
X43995Y2147D01*
X44004Y2156D01*
X44020Y2172D01*
X44045Y2206D01*
X44074Y2247D01*
X44104Y2301D01*
X44129Y2368D01*
X44145Y2443D01*
X44153Y2530D01*
Y2534D01*
Y2538D01*
Y2559D01*
X44149Y2597D01*
X44141Y2638D01*
X44133Y2684D01*
X44116Y2738D01*
X44091Y2788D01*
X44062Y2838D01*
X44058Y2842D01*
X44045Y2859D01*
X44025Y2880D01*
X43999Y2909D01*
X43962Y2938D01*
X43920Y2963D01*
X43875Y2988D01*
X43821Y3008D01*
X43817D01*
X43800Y3013D01*
X43775Y3017D01*
X43742Y3025D01*
X43692Y3029D01*
X43629Y3033D01*
X43554Y3038D01*
D02*
G37*
%LPD*%
D15*
X379914Y211409D02*
X379881Y212425D01*
X379772Y213436D01*
X379586Y214436D01*
X379325Y215419D01*
X378991Y216379D01*
X378586Y217311D01*
X378110Y218210D01*
X377569Y219071D01*
X376964Y219888D01*
X376299Y220657D01*
X375577Y221373D01*
X374804Y222033D01*
X373983Y222633D01*
X373119Y223169D01*
X372217Y223638D01*
X371282Y224038D01*
X370320Y224365D01*
X369335Y224620D01*
X368334Y224799D01*
X367323Y224902D01*
X366142Y197D02*
X367162Y234D01*
X368177Y348D01*
X369181Y536D01*
X370168Y797D01*
X371133Y1132D01*
X372070Y1536D01*
X372975Y2010D01*
X373843Y2548D01*
X374668Y3150D01*
X375446Y3811D01*
X376174Y4528D01*
X376846Y5297D01*
X377459Y6113D01*
X378010Y6973D01*
X378497Y7871D01*
X378915Y8802D01*
X379263Y9762D01*
X379539Y10746D01*
X379741Y11746D01*
X379869Y12760D01*
X379921Y13780D01*
X10039Y13386D02*
X10115Y12413D01*
X10259Y11447D01*
X10469Y10494D01*
X10745Y9558D01*
X11085Y8643D01*
X11489Y7754D01*
X11953Y6896D01*
X12476Y6072D01*
X13055Y5286D01*
X13687Y4542D01*
X14370Y3844D01*
X15099Y3196D01*
X15872Y2599D01*
X16684Y2058D01*
X17532Y1575D01*
X18412Y1152D01*
X19319Y791D01*
X20248Y494D01*
X21197Y262D01*
X22159Y98D01*
X23130Y0D01*
X23500Y224800D02*
X22488Y224724D01*
X21483Y224575D01*
X20492Y224354D01*
X19520Y224063D01*
X18570Y223702D01*
X17650Y223274D01*
X16762Y222781D01*
X15912Y222226D01*
X15104Y221610D01*
X14343Y220939D01*
X13632Y220214D01*
X12974Y219440D01*
X12374Y218621D01*
X11835Y217761D01*
X11359Y216864D01*
X10948Y215936D01*
X10605Y214980D01*
X10332Y214002D01*
X10130Y213007D01*
X10000Y212000D01*
X23500Y224800D02*
X367323Y224902D01*
X379914Y211409D02*
X379921Y13780D01*
X23130Y0D02*
X366142Y197D01*
X10000Y212000D02*
X10039Y13386D01*
X71620Y291D02*
X114927D01*
M02*
