M48
;Layer_Color=9474304
;FILE_FORMAT=2:4
INCH,TZ
;TYPE=PLATED
T1F00S00C0.0118
T4F00S00C0.0350
T5F00S00C0.0354
T6F00S00C0.0402
T7F00S00C0.0642
T8F00S00C0.1378
;TYPE=NON_PLATED
T9F00S00C0.0295
T10F00S00C0.1280
%
T01
X3950Y3850
X5305Y2933
X6073Y1791
X8350Y2700
X8300Y4200
X8051Y5148
X6742Y5089
X9850Y5350
X12057Y5433
X13060Y2820
X11631Y778
X9843Y2411
X24450Y4200
X37028Y21201
X36300Y17900
X34439Y18484
X34429Y19695
X33950Y17450
X34400Y16000
X31850Y14500
X29850Y14300
X29300Y14850
X29695Y15423
X28840Y15580
X28700Y17050
X28750Y17550
X28150Y18900
X27450Y19400
X26742Y19656
X26880Y20930
X25130Y21080
X24470Y19920
X24550Y19250
X25295Y17126
X26300Y17450
X26050Y16250
X24786Y16076
X25200Y15010
X25600Y14440
X24510Y14450
X23700Y12900
X22313Y13799
X25669Y11880
X28415Y12628
X27950Y13450
X29500
X30200Y12100
X30100Y11500
X30450Y8050
X30850Y7400
X31762Y7037
X31170Y8560
X26122Y7037
Y5738
X31050Y17700
X31650Y18100
X31350Y18850
Y20100
X21919Y19931
X19843Y18780
X18307Y18907
X16350Y18110
Y16950
X16956Y15770
X17290
X17900Y13750
X18350Y11250
X18360Y9440
X19660Y9480
X14713Y8593
X12569
X10384Y8484
X13450Y6950
X13880Y13120
X15680Y12040
X15104Y15256
X11830Y15820
X11380Y13740
X7870Y13800
X7333Y13996
X7360Y15720
X13790Y18550
X14341Y18920
X14764Y19488
X15454Y20256
X15100Y20700
X16270Y19890
X4400Y19450
X2972Y18809
X5482Y18250
X5360Y17740
X4710Y21240
X3071Y10157
X1280Y10138
X5500Y9090
X2165Y21949
X7008Y21752
X9242Y21703
X15450Y21900
X16410Y21720
X28100Y21300
X35276Y21535
X35709Y21772
T04
X17011Y6022
X18011
X19011
X20011
X20511Y7022
X19511
X18511
X17511
T05
X37047Y15402
Y16402
Y17402
Y18402
Y19402
Y20402
T06
X16155Y1593
X17155
X20371
X21371
X20826Y19902
X19813Y19911
X18799Y19902
X17815Y19911
T07
X15714Y4723
X21812
T08
X34740Y11900
X3920Y11890
T09
X5395Y787
X12825
T10
X16513Y3522
X21013
M30
