G04*
G04 #@! TF.GenerationSoftware,Altium Limited,Altium Designer,19.1.5 (86)*
G04*
G04 Layer_Color=8388736*
%FSLAX25Y25*%
%MOIN*%
G70*
G01*
G75*
%ADD17R,0.05592X0.05198*%
%ADD18R,0.04608X0.05395*%
%ADD19R,0.03230X0.06773*%
%ADD20R,0.03230X0.03230*%
G04:AMPARAMS|DCode=21|XSize=36.24mil|YSize=57.89mil|CornerRadius=2.35mil|HoleSize=0mil|Usage=FLASHONLY|Rotation=180.000|XOffset=0mil|YOffset=0mil|HoleType=Round|Shape=RoundedRectangle|*
%AMROUNDEDRECTD21*
21,1,0.03624,0.05319,0,0,180.0*
21,1,0.03154,0.05789,0,0,180.0*
1,1,0.00470,-0.01577,0.02659*
1,1,0.00470,0.01577,0.02659*
1,1,0.00470,0.01577,-0.02659*
1,1,0.00470,-0.01577,-0.02659*
%
%ADD21ROUNDEDRECTD21*%
G04:AMPARAMS|DCode=22|XSize=124.82mil|YSize=57.89mil|CornerRadius=2.4mil|HoleSize=0mil|Usage=FLASHONLY|Rotation=180.000|XOffset=0mil|YOffset=0mil|HoleType=Round|Shape=RoundedRectangle|*
%AMROUNDEDRECTD22*
21,1,0.12482,0.05309,0,0,180.0*
21,1,0.12002,0.05789,0,0,180.0*
1,1,0.00480,-0.06001,0.02655*
1,1,0.00480,0.06001,0.02655*
1,1,0.00480,0.06001,-0.02655*
1,1,0.00480,-0.06001,-0.02655*
%
%ADD22ROUNDEDRECTD22*%
%ADD23R,0.04608X0.04017*%
%ADD24R,0.10093X0.10093*%
G04:AMPARAMS|DCode=25|XSize=36.36mil|YSize=12.74mil|CornerRadius=1.61mil|HoleSize=0mil|Usage=FLASHONLY|Rotation=90.000|XOffset=0mil|YOffset=0mil|HoleType=Round|Shape=RoundedRectangle|*
%AMROUNDEDRECTD25*
21,1,0.03636,0.00952,0,0,90.0*
21,1,0.03314,0.01274,0,0,90.0*
1,1,0.00322,0.00476,0.01657*
1,1,0.00322,0.00476,-0.01657*
1,1,0.00322,-0.00476,-0.01657*
1,1,0.00322,-0.00476,0.01657*
%
%ADD25ROUNDEDRECTD25*%
G04:AMPARAMS|DCode=26|XSize=36.36mil|YSize=12.74mil|CornerRadius=1.61mil|HoleSize=0mil|Usage=FLASHONLY|Rotation=180.000|XOffset=0mil|YOffset=0mil|HoleType=Round|Shape=RoundedRectangle|*
%AMROUNDEDRECTD26*
21,1,0.03636,0.00952,0,0,180.0*
21,1,0.03314,0.01274,0,0,180.0*
1,1,0.00322,-0.01657,0.00476*
1,1,0.00322,0.01657,0.00476*
1,1,0.00322,0.01657,-0.00476*
1,1,0.00322,-0.01657,-0.00476*
%
%ADD26ROUNDEDRECTD26*%
%ADD27R,0.05395X0.04608*%
%ADD28R,0.05198X0.05592*%
%ADD29R,0.22128X0.08348*%
%ADD30R,0.02639X0.03427*%
%ADD31R,0.02443X0.01655*%
%ADD32R,0.05986X0.09529*%
%ADD33R,0.07954X0.03624*%
%ADD34R,0.03624X0.07954*%
%ADD35R,0.13191X0.13191*%
%ADD36R,0.01655X0.05395*%
%ADD37R,0.07167X0.07561*%
%ADD38R,0.07001X0.08280*%
%ADD39R,0.07001X0.08280*%
%ADD40C,0.03033*%
%ADD41C,0.05986*%
%ADD42R,0.05986X0.05986*%
%ADD43C,0.12876*%
%ADD44C,0.09706*%
%ADD45C,0.06104*%
%ADD46C,0.05584*%
%ADD47R,0.05584X0.05584*%
%ADD48C,0.17403*%
%ADD49O,0.04214X0.05002*%
%ADD50O,0.04805X0.07561*%
%ADD51C,0.03356*%
D17*
X21500Y194500D02*
D03*
Y188201D02*
D03*
X37000Y194650D02*
D03*
Y188350D02*
D03*
X21500Y205850D02*
D03*
Y212150D02*
D03*
X322600Y123950D02*
D03*
Y117650D02*
D03*
X317700Y94650D02*
D03*
Y88350D02*
D03*
X154500Y93150D02*
D03*
Y86850D02*
D03*
X110000Y91150D02*
D03*
Y84850D02*
D03*
X120000Y92150D02*
D03*
Y85850D02*
D03*
X266500Y187150D02*
D03*
Y180850D02*
D03*
D18*
X24008Y174100D02*
D03*
X30898D02*
D03*
X23908Y164600D02*
D03*
X30798D02*
D03*
X23908Y155500D02*
D03*
X30798D02*
D03*
X243555Y70500D02*
D03*
X250445D02*
D03*
X243555Y57500D02*
D03*
X250445D02*
D03*
X313945Y134000D02*
D03*
X307055D02*
D03*
X303555Y162000D02*
D03*
X310445D02*
D03*
X303500Y171000D02*
D03*
X310390D02*
D03*
X230055Y138500D02*
D03*
X236945D02*
D03*
X114034Y27184D02*
D03*
X120924D02*
D03*
D19*
X60641Y7874D02*
D03*
X47255D02*
D03*
X134941D02*
D03*
X121555D02*
D03*
D20*
X68602Y7874D02*
D03*
Y13780D02*
D03*
D21*
X80445Y58894D02*
D03*
X89500D02*
D03*
X98555D02*
D03*
D22*
X89500Y83106D02*
D03*
D23*
X98626Y91000D02*
D03*
X89374D02*
D03*
D24*
X270800Y149000D02*
D03*
D25*
X265879Y156618D02*
D03*
X267847D02*
D03*
X269816D02*
D03*
X271784D02*
D03*
X273753D02*
D03*
X275721D02*
D03*
Y141382D02*
D03*
X273753D02*
D03*
X271784D02*
D03*
X269816D02*
D03*
X267847D02*
D03*
X265879D02*
D03*
D26*
X263182Y144079D02*
D03*
Y146047D02*
D03*
Y148016D02*
D03*
Y149984D02*
D03*
Y151953D02*
D03*
Y153921D02*
D03*
X278418D02*
D03*
Y151953D02*
D03*
Y149984D02*
D03*
Y148016D02*
D03*
Y146047D02*
D03*
Y144079D02*
D03*
D27*
X37000Y212445D02*
D03*
Y205555D02*
D03*
X350500Y180445D02*
D03*
Y173555D02*
D03*
X322500Y181055D02*
D03*
Y187945D02*
D03*
X244500Y28288D02*
D03*
Y35178D02*
D03*
X287500Y180555D02*
D03*
Y187445D02*
D03*
X274500D02*
D03*
Y180555D02*
D03*
X179000Y142555D02*
D03*
Y149445D02*
D03*
X163500Y142555D02*
D03*
Y149445D02*
D03*
X196500Y107945D02*
D03*
Y101055D02*
D03*
X134500Y54555D02*
D03*
Y61445D02*
D03*
X60600Y44745D02*
D03*
Y37855D02*
D03*
X183500Y107390D02*
D03*
Y100500D02*
D03*
X258000Y180500D02*
D03*
Y187390D02*
D03*
D28*
X114229Y47684D02*
D03*
X120528D02*
D03*
X114329Y37884D02*
D03*
X120628D02*
D03*
X337650Y196500D02*
D03*
X331350D02*
D03*
X316201Y108500D02*
D03*
X322500D02*
D03*
X60850Y59000D02*
D03*
X67150D02*
D03*
X46150Y29500D02*
D03*
X39850D02*
D03*
X263201Y118900D02*
D03*
X269500D02*
D03*
X283650Y119000D02*
D03*
X277350D02*
D03*
D29*
X292201Y99900D02*
D03*
X254799D02*
D03*
D30*
X303252Y148449D02*
D03*
Y154551D02*
D03*
X309748Y148449D02*
D03*
Y154551D02*
D03*
D31*
X329488Y180563D02*
D03*
Y184500D02*
D03*
Y188437D02*
D03*
X340512D02*
D03*
Y184500D02*
D03*
Y180563D02*
D03*
D32*
X335000Y184500D02*
D03*
D33*
X62571Y152500D02*
D03*
Y157500D02*
D03*
Y162500D02*
D03*
Y167500D02*
D03*
Y172500D02*
D03*
Y177500D02*
D03*
Y182500D02*
D03*
Y187500D02*
D03*
Y192500D02*
D03*
Y197500D02*
D03*
Y202500D02*
D03*
Y207500D02*
D03*
Y212500D02*
D03*
Y217500D02*
D03*
X129500Y152500D02*
D03*
Y157500D02*
D03*
Y162500D02*
D03*
Y167500D02*
D03*
Y172500D02*
D03*
Y177500D02*
D03*
Y182500D02*
D03*
Y187500D02*
D03*
Y192500D02*
D03*
Y197500D02*
D03*
Y202500D02*
D03*
Y207500D02*
D03*
Y212500D02*
D03*
Y217500D02*
D03*
D34*
X98535Y148563D02*
D03*
X103535D02*
D03*
X108535D02*
D03*
X113535D02*
D03*
X118535D02*
D03*
X93535D02*
D03*
X88535D02*
D03*
X83535D02*
D03*
X78535D02*
D03*
X73535D02*
D03*
D35*
X92429Y188925D02*
D03*
D36*
X95832Y16532D02*
D03*
X93273D02*
D03*
X98391D02*
D03*
X90714D02*
D03*
X88155D02*
D03*
D37*
X88746Y6000D02*
D03*
X97801D02*
D03*
D38*
X106610Y6000D02*
D03*
D39*
X79937Y6000D02*
D03*
D40*
X53948Y7874D02*
D03*
X128248D02*
D03*
D41*
X370472Y154016D02*
D03*
Y164016D02*
D03*
Y174016D02*
D03*
Y184016D02*
D03*
Y194016D02*
D03*
D42*
Y204016D02*
D03*
D43*
X165130Y35217D02*
D03*
X210130D02*
D03*
D44*
X218122Y47225D02*
D03*
X157138D02*
D03*
D45*
X203713Y15926D02*
D03*
X213713D02*
D03*
X171547D02*
D03*
X161547D02*
D03*
X198130Y199114D02*
D03*
X187992Y199016D02*
D03*
X178150Y199114D02*
D03*
X208261Y199021D02*
D03*
D46*
X205110Y70217D02*
D03*
X200110Y60217D02*
D03*
X190110D02*
D03*
X185110Y70217D02*
D03*
X180110Y60217D02*
D03*
X175110Y70217D02*
D03*
X195110D02*
D03*
D47*
X170110Y60217D02*
D03*
D48*
X347400Y119000D02*
D03*
X39200Y118900D02*
D03*
D49*
X84513Y17811D02*
D03*
X102033D02*
D03*
D50*
X109710Y6000D02*
D03*
X76836D02*
D03*
D51*
X143405Y189200D02*
D03*
X183600Y94400D02*
D03*
X196600Y94800D02*
D03*
X147125Y85925D02*
D03*
X256000Y144400D02*
D03*
X245100Y144500D02*
D03*
X247864Y160764D02*
D03*
X252000Y150100D02*
D03*
X169557Y157700D02*
D03*
X172900D02*
D03*
X295000Y134500D02*
D03*
X288400Y155800D02*
D03*
X293000Y148500D02*
D03*
X268800Y209300D02*
D03*
X251300Y210800D02*
D03*
X164100Y217200D02*
D03*
X162700Y198900D02*
D03*
X363000Y179000D02*
D03*
X281500Y189000D02*
D03*
X281000Y213000D02*
D03*
X313500Y201000D02*
D03*
X244704Y199204D02*
D03*
X274500Y194000D02*
D03*
X287000Y170500D02*
D03*
X263000Y174500D02*
D03*
X260500Y162500D02*
D03*
X130600Y28200D02*
D03*
X78700Y138000D02*
D03*
X113800Y137400D02*
D03*
X118300Y158200D02*
D03*
X73600Y157200D02*
D03*
X156800Y120400D02*
D03*
X137900Y185500D02*
D03*
X138800Y131200D02*
D03*
X54823Y182500D02*
D03*
X163500Y181102D02*
D03*
X154535Y202563D02*
D03*
X53600Y177400D02*
D03*
X70079Y217520D02*
D03*
X73327Y139961D02*
D03*
X151035Y152563D02*
D03*
X47100Y212400D02*
D03*
X252953Y171260D02*
D03*
X21654Y219488D02*
D03*
X147638Y194882D02*
D03*
X311700Y85600D02*
D03*
X298500Y143000D02*
D03*
X279500Y134500D02*
D03*
X29724Y188091D02*
D03*
X55000Y90900D02*
D03*
X67421Y50886D02*
D03*
X80512Y51476D02*
D03*
X53051Y29331D02*
D03*
X98425Y24114D02*
D03*
X183071Y189075D02*
D03*
X198425Y187795D02*
D03*
X219193Y199311D02*
D03*
X284154Y126279D02*
D03*
X256693Y118799D02*
D03*
X267421Y196555D02*
D03*
X103839Y84842D02*
D03*
X223130Y137992D02*
D03*
X296949Y154232D02*
D03*
X344390Y184843D02*
D03*
X344291Y196949D02*
D03*
X370276Y212008D02*
D03*
X317618Y70374D02*
D03*
X261221D02*
D03*
Y57382D02*
D03*
X116308Y7776D02*
D03*
X120571Y54331D02*
D03*
X125689Y85925D02*
D03*
X92421Y217028D02*
D03*
X60728Y17913D02*
D03*
X357087Y217717D02*
D03*
X352756Y215354D02*
D03*
X12795Y101378D02*
D03*
X30709Y101575D02*
D03*
X344000Y160000D02*
D03*
X302000Y121000D02*
D03*
X301000Y115000D02*
D03*
X83000Y42000D02*
D03*
X151000Y207000D02*
D03*
X318500Y145000D02*
D03*
X308500Y74000D02*
D03*
X304500Y80500D02*
D03*
X313500Y188500D02*
D03*
X310500Y177000D02*
D03*
X316500Y181000D02*
D03*
X339500Y174500D02*
D03*
X154500Y219000D02*
D03*
X163500Y169500D02*
D03*
X245500Y192500D02*
D03*
X134500Y69500D02*
D03*
X244500Y42000D02*
D03*
X237000Y129000D02*
D03*
X179000Y137500D02*
D03*
X183500Y112500D02*
D03*
X287500Y175500D02*
D03*
X44000Y194500D02*
D03*
X39500Y38500D02*
D03*
X98500Y53500D02*
D03*
X83500Y27000D02*
D03*
M02*
